<?xml version="1.0" encoding="utf-8"?>
<!-- Generator: Adobe Illustrator 21.1.0, SVG Export Plug-In . SVG Version: 6.00 Build 0)  -->
<svg version="1.1" id="Layer_1" xmlns="http://www.w3.org/2000/svg" xmlns:xlink="http://www.w3.org/1999/xlink" x="0px" y="0px"
	 viewBox="0 0 1280 1024" style="enable-background:new 0 0 1280 1024;" xml:space="preserve">
<style type="text/css">
	.st0{fill:#080403;}
	.st1{fill:none;stroke:#000000;stroke-width:4.83;stroke-miterlimit:10;}
	.st2{fill:none;stroke:#050505;stroke-width:4.83;stroke-miterlimit:10;}
	.st3{fill:#100C05;}
	.st4{fill:#96C953;}
	.st5{fill:#FCFCFC;}
	.st6{fill:none;stroke:#050505;stroke-width:6.0375;stroke-miterlimit:10;}
	.st7{fill:#100C05;stroke:#000000;stroke-width:0.3019;stroke-miterlimit:10;}
	.st8{fill:none;stroke:#000000;stroke-width:3.6225;stroke-miterlimit:10;}
	.st9{fill:#FC3464;}
</style>
<title>mim</title>
<path class="st0" d="M1021.2,485.3c7.7,7.4,16.3,13.8,22.4,22.6c0.9,1.3,2.3,1.4,3.6,1.6c5.1,1.1,8.2,4.2,9,9.3s-0.9,9.7-5.6,12.4
	c-2.4,1.4-3.3,2.1-2.2,5.3c2.2,6.2,1.4,12.4-4.2,16.9c-1.9,1.5-3,3-0.7,4.8c14,10.6,14,25.2,11.6,40.4c-2.4,15.7-6.3,31.2-7.4,47
	c-1.9,26.4-15.9,45.6-33.2,63.6c-42.2,43.7-82.2,89.4-122.4,134.9c-17.3,19.6-36.5,37.5-57.3,53.4c-20.7,15.9-41.7,16.8-63.9,3.9
	c-25.5-14.8-47.9-33.8-71.2-51.5c-72.9-55.3-139.7-117.5-206-180.3c-31-29.3-63.8-56.5-95.3-85.3c-18.5-16.8-35.5-35-49.4-55.9
	c-5.3-7.9-9.2-15.9-10.3-25.8c-2.5-22.6-6.7-44.9-7.9-67.6c-0.7-11.1,2.6-22.1,9.3-31c8.1-11.1,18.6-20,28.5-29.4
	c13.9-13.1,25.5-28.5,39.3-41.7c1.7-1.6,1.5-3.6,1.8-5.5c3.6-25.8,11-50.2,25.2-72.2c11.5-18,26.6-33.5,44.3-45.5c3-2,4.7-4.1,5.2-8
	c1.6-12.8,12.2-18.3,23.3-11.9c3.3,1.9,5.8,1.5,8.9,0.3c39.8-14.7,80.6-18.1,122-7.9c27.8,6.9,50.3,23.6,71.7,41.8
	c13.5,11.4,26.1,23.9,40.5,34.3c7.6,5.5,15.4,11,23.9,15.1c3.6,1.8,6.3,5.8,4.1,8c-5.1,5.3,4.8,19-10.9,17.8c3,3.5,7.3,5.8,5.8,10.9
	c-1.1,3.5-3.7,5-7.2,5.2c8.6,14.5,19.2,27,32.8,37.2c12.9,9.6,24.4,20.9,37.9,29.8c8.8,5.8,14.9,15.1,24,20.9
	c11,9.3,22.2,18.5,33,28c3,2.6,6.8,4.2,10.8,4.4c21.8,2,43.1,7.6,63.1,16.5C987.1,460.8,1004.3,472.8,1021.2,485.3z M811.9,897.7
	c7-2.3,12.9-6.4,18.7-10.8c20.2-15.6,38.8-33.2,55.6-52.5c38.6-44.4,77.9-88.3,118.6-130.9c14.7-15.4,29.3-30.9,31-54.1
	c0.7-9.8,3.4-19.5,5.3-30.5c-5.4,6.2-9.8,11.4-14.3,16.4c-35.4,39-71.1,77.7-106.1,117c-22.2,24.9-42.7,51.3-66.7,74.6
	c-11.6,11.2-23.3,22.3-39.6,26.6c-2,0.5-2.5,1.3-2.5,3.2c-0.2,13.4-0.5,26.9-0.8,40.3l-0.6,0.7L811.9,897.7z M772.6,359.7
	c1.9-9.6-2-18.5-3.5-27.7c-1.2-7.7-7-11.5-15.1-11.9c-1.6-0.1-3.1-0.4-4.7-0.5c-18.1-18.7-31.3-40.4-43.1-63.5
	c-9.3-18.1-20.8-35-42-41.7c-1.1,3.4-1.4,7.7-4.5,10.6c-8.4,7.8-16.8,15.6-25.4,23.2c-4.1,3.6-8.5,4.3-13,0.4
	c-1.4-1.2-2.9-2.9-5.3-2c4.9,9.9,4.5,13.8-2.7,22.1c-1.8,2.1-3.9,4-5.9,6c-4.4,4.4-9.6,8-13.3,13.1c-6.8,9.2-6.8,9.2-17.7,5
	c-0.2-0.1-0.6,0.4-1.2,0.7c1,1.9,1.9,3.9,3.1,5.8c4.6,7.4,4.4,8.6-1.6,15c-6.3,6.7-12.4,13.7-16.4,22.2c-1.7,3.6-4.6,4.7-8.4,4.3
	c-5-0.4-10-2.2-16.4-1.4c2.2,1.2,3.3,1.9,4.5,2.6c8.9,5.4,9.9,8.6,4.3,17.4c-3.7,5.9-8.4,11.3-12.3,17.1
	c-12.6,18.8-17.7,40-10.5,61.3c8.1,23.8,24.5,42.2,48,53c5.8,2.7,8,6.4,6.4,11.8c-1.6,5.4-5.8,6-10.9,4.7c0.4,3.4-0.8,6.3-2.8,9.3
	c14.1,1.7,27.8,2.8,41.3,0.4c35.9-6.4,67.6-22.4,96.8-43.6c24-17.4,45.6-37.1,60.1-63.3C769.1,394.7,775.2,378.2,772.6,359.7z
	 M692.5,624.2c0.6,41,9.8,80.4,28.8,117.3c10.6,20.6,24.4,38.8,45.6,50c15.1,8,18.2,6.8,24-9.4c13.2-37.3,30.5-73,51.8-106.4
	c28-43.9,61.1-83.3,102.7-115c24.9-18.9,53.3-31.9,81.6-44.9c4.7-2.2,5.2-3.6,1.4-7.2c-27.9-26.3-59.3-46.5-96.9-56.1
	c-26.6-6.8-53.3-6.5-80.2-3.6c-3.9,0.4-4.8,1.5-5.1,5.3c-1.3,17.7-8.9,32-24.4,41.3c-8.6,5.1-17.6,9.7-26.3,14.7
	c-4.7,2.8-10.3,3.8-15.7,2.8c-5.4-0.9-8,1.8-6.3,6.7c2.4,6.8,1.2,13.1-3.5,17.9c-9,9.3-14.9,20.2-19.3,32.2
	c-4,10.9-11.8,18.5-23.4,21.7c-8.8,2.4-18.2,1.9-26.6-1.5c-4.4-1.7-5.9-1.1-6.4,3.6C693.3,603.7,692.9,613.7,692.5,624.2
	L692.5,624.2z M407.4,351.3l-1.8-1c-0.7,1.2-1.4,2.4-2.3,3.5c-12.3,13.8-24.7,27.5-38.5,39.8C357,400.4,350,407.8,345,417
	c-4.7,8.6-4.6,16.8,0.6,25c4.3,6.3,9.1,12.3,14.4,17.8c15.7,16.9,32.9,32.4,49.5,48.6c32.6,31.7,64.4,64.2,98.1,94.7
	c77.7,70.2,156.3,139.4,238.7,204.2c16.6,13.1,33.8,25.1,53.3,33.6c5.7,2.7,12.3,2.7,18-0.1c4.2-1.9,8.2-4.3,11.9-7.1
	c11.8-8.8,21.9-19.5,32-30.2c21.3-22.5,40.2-47.1,61-70c32.6-36.1,65.6-71.9,98.4-107.8c10.1-11,18.9-22.9,23.7-37.3
	c1.8-5.2,0.9-11-2.4-15.4c-6.3-9.2-8.7-9.2-14.3,0.1c-1.7,2.8-4,5-6.9,6.6c-1,0.6-2.6,1-2.9,1.9c-2.1,6.5-7.2,9.3-13.2,11.3
	c-1.6,0.5-1.9,1.8-2.7,2.9c-6.7,9.4-17.2,15.3-23.4,25.2c-0.5,0.6-1.2,1-2,1.2c-1.7,0.5-2.2,1.9-3,3.3c-6,10.3-15.8,17.4-22.6,27.1
	c-0.3,0.3-0.6,0.5-1,0.6c-1.1,0.5-1.9,1.4-2.3,2.6c-4.5,9.9-10.8,18.8-18.5,26.4c-2.7,2.5-5.6,4.6-8.8,6.3
	c-7.8,4.7-16.4,8.5-19.1,18.6c-0.8,3-2.9,5.5-5.7,6.8c-5.9,2.6-11,5.5-10.9,13.1c-0.2,1-0.7,1.9-1.6,2.5c-6.2,4-9.1,10.5-13.1,16.3
	c-4.4,6.3-11.5,10.7-14.1,18.6c-0.6,1.7-2.6,3-4.1,4.3c-1.3,0.9-2.3,2.2-2.6,3.8c-1.3,7.2-6,12.2-12.1,15.8c-1.7,1-3,2.5-3.5,4.4
	c-3,8.1-8.8,12.8-17.4,13.6c-2.7,0.2-5.3,1.4-7.2,3.3c-3.8,3.2-9.4,6.4-13.1,3.2c-6.1-5.4-12.6-4.3-19.3-4.6
	c-3.9-0.1-7.4-1.8-10.9-3.4c-12.4-5.8-23.5-14-32.6-24.3c-16.7-18.5-27.7-40.3-35.9-63.5c-14.9-41.9-20.7-84.9-14.1-129.2
	c1-6.7-6.9-12.4-13.6-10c-18.9,6.9-33.9-0.1-40.6-19.1c-3.7-10.5-4.2-21-0.1-32.1c-1.5,0.3-2.5,0.3-3.4,0.6
	c-23.4,7.1-48.3,7.9-72,2.2c-2.1-0.5-3.1-0.2-4.3,1.8c-2.2,4-5.8,4.6-9.8,2.7c-4.8-2.3-6.7-0.5-7.5,4.4c-0.7,4.7-3.8,7.2-8.5,6.2
	c-5.4-1.3-10.4,1.5-14.3,3.3c-9.9,4.5-15.7,4.5-22.7-4.5c-21.6-28-42.3-56.6-58.7-88.1c-11.7-22.3-17.7-45.9-19.8-70.8
	C407,373.2,406.8,362.2,407.4,351.3L407.4,351.3z M343.5,459c2.1,14.6,4.6,28.2,5.9,42c0.8,8.5,4.4,15.2,8.9,21.9
	c13.9,20.9,31.1,38.9,49.7,55.5c38,34,76.7,67.4,113.8,102.5c45.3,42.8,90.3,85.9,139.4,124.4c33.2,26,65.2,53.7,100.2,77.4
	c10.3,7,20.9,13.5,33.3,16.5c3.3,0.8,5.2,0.3,5.3-3.7c0.3-13.1,0.7-26.1,1.2-39.2c0.1-2.4-0.7-3.4-3-4.3
	c-18.2-7.3-34.6-17.7-50.1-29.6c-46.8-36.1-91.5-74.8-136.7-112.9C518.1,630.9,431.1,545.7,343.5,459L343.5,459z M680.2,504.4
	c2.2,0.9,4.1,1.6,5.9,2.4c9,3.8,16,9.9,18.4,19.4c1.2,4.8,3.8,8.2,6.6,11.8c2.7,3.6,5.1,3.4,8.2,0c5.5-6.4,11.4-12.5,17.5-18.3
	c7-6.4,14.9-10.9,25.1-9.3c4,0.6,6.7-3.6,5.1-7.5c-4.6-11.2-2.2-20.2,7.3-27.7c4-3,8.4-5.5,13.1-7.4c2.6-1,5.1-2.5,7.1-4.5
	c5-5.2,3.6-11.2-3-13.5c-8.8-3-14.5-9.1-17.6-17.8c-1.2-3.2-2-6.5-3.1-10.4c-5.9,8.8-11.2,17.1-18,24.2c-2,2.1-1.3,3.8-0.2,5.9
	c2.6,5.1,2.9,11,1,16.4c-3.9,12.1-23.7,25.5-39.6,19.6c-3.1-1.2-5.8-2.1-9,0.2C697,493.5,688.8,498.6,680.2,504.4L680.2,504.4z
	 M840,725.5c-4.8-5.5-4.5-6.8,2.3-8.1c1.6-0.3,2.9-1.4,3.5-2.9c0.8-1.7-0.3-2.6-1.7-3.2c-2.5-1.2-3.8-3.3-2.4-5.9
	c1.3-2.6,3.9-2,5.9-1.1c2.5,1.2,3.7-0.2,4.9-1.9c1.2-1.7,0.6-2.9-0.9-4.1c-1.8-1.4-2.4-3.3-1.2-5.3c1.2-1.9,3.6-1.9,5.4-0.7
	s3,0.5,4.2-0.8c1.7-1.8,0.1-2.9-0.9-4c-1.4-1.6-2.7-3.1-1.2-5.3c1.5-2.1,3.4-2,5.3-0.8c1.2,0.7,2.2,1,3.2,0c1.3-1.4,0.6-2.6-0.4-3.6
	c-1.7-1.6-2.3-3.4-1-5.3c1.4-1.9,3.5-2,5.3-0.7s2.7,0.2,3.6-0.8c1-1,1.3-2.5,0.7-3.8c-2.6-6.6-2.4-6.8,5.2-5.7
	c1.8,0.2,3.7-0.6,4.7-2.1c1.2-1.5-0.2-2.5-1.1-3.6c-0.9-1.1-1.8-2.2-2.6-3.4c-1.3-1.4-1.3-3.6,0-5c1.1-1.4,3.1-1.7,4.5-0.6
	c0.1,0.1,0.2,0.2,0.3,0.3c1.1,0.9,2.3,2.2,3.6,1c1.8-1.6-0.3-2.8-1-4.1c-1-1.8-1-3.5,0.5-4.9c1.2-1.3,3.1-1.4,4.4-0.2c0,0,0,0,0,0
	c2.9,3.2,6,2.3,8.5,0.2c3.2-2.7-0.9-4.3-1.7-6.4s-1.3-4,0.6-5.5c1.3-1.2,3.4-1.1,4.7,0.2c0.1,0.1,0.1,0.1,0.2,0.2
	c1.6,2.1,3.2,2.1,5,0.7c2.1-1.6,3-3.3,1.6-6.1c-1.9-3.9-0.3-6,4.3-5.7c5.4,0.4,8.4-2.5,8.4-7.8c0-3.7,0.8-5.6,5-5.5
	c4.2,0.1,9-0.2,6-7.1c-1.3-3.1,1.8-5.4,5-4.2c7.9,3,10,1.7,11.6-7.4c0.5-2.7,2-4.5,4.5-3.4c6.4,2.8,5.8-1.8,5.7-5.3
	c0-6,0.7-6.7,6.3-4.6c3,1.1,5,0.7,5.3-3c0.5-6.5,0.8-6.6,6.9-3.8c3.6,1.6,7.9,0,9.6-3.6c0.5-1.1,0.7-2.3,0.6-3.5
	c-0.3-1.4,0.2-2.9,1.4-3.7c1.7-1.1,3.2-0.5,5,0.5c4.9,2.9,7.7,2,10-3c0.8-2,1.4-4.2,1.9-6.3c1.1-3.7,3.3-5.3,6.6-2.6
	c4.2,3.4,6.8,1.8,9.1-2.2c1.5-2.7,3.1-5.2,6.6-5.6c3.5-0.4,7.6,0.1,5.8-5.9c-0.4-1.5,1.6-3.2,3.8-3c1,0,2,0.3,3,0.3
	c2.7,0.1,4-1.6,4.7-3.9c0.5-1.6-0.1-3.4-1.5-4.3c-2.4-1.4-2.8,1.5-4.1,2.4c-2.9,2.5-6.2,4.5-9.7,6c-13.3,5.2-25.7,12.2-38.4,18.5
	c-19.2,9.7-37.7,20.6-54.1,34.7c-52.1,44.7-90.9,99.3-120.3,160.9c-9.3,19.6-15.4,40.5-25.2,59.8c-1.4,2.8,0.1,4.4,2.1,5.4
	c2.8,1.4,5-0.5,6.9-2.2c2-1.7,2.8-3.6,1-5.8c-3.6-4.5-1.9-6.4,3.1-7.9c5.5-1.6,6.2-4.5,3.2-9.9c-1.9-3.4-1.5-5.7,2.9-6.2
	c5.3-0.7,6.4-3.2,3.6-8.1c-2.8-5-1.9-6.4,3.5-6.5c1.4,0.2,2.7-0.6,3.4-1.8c0.7-1.3,0.3-2.9-1-3.6c0,0,0,0-0.1,0
	c-1.8-1.2-3-2.9-1.8-5.1c1.1-2,2.9-2.3,5.2-1.6c2.1,0.7,3.7-0.2,2.5-2.8c-3.3-6.7-3.3-6.8,4.2-7.8
	C830.4,728.4,830.4,728.4,840,725.5L840,725.5z M903.6,689c-7.7-2.8-14.1-7.7-20.2-12.7c-1.8-1.4-2.7-1-4.5,0.3
	c-5.3,3.6-6.5,9.9-10.5,14.5c-4.9,5.6-8.4,12.5-12.7,18.7c-0.9,1.2-2.3,1.9-2.3,3.9c-0.2,6.5-5.2,11-8.1,16.2
	c-2.8,4.9-4.3,10.2-6.5,15.2c-2.4,5.7-4.7,12.2-8.1,16.6c-4.5,6-1.7,15.2-9.4,19c1.5,7.2-2.5,12-8.5,16.1c7.1,1.1,12.2-2.4,13-8.8
	c0.5-3.7,1.7-5.6,5.4-6.8c6.4-2,9.3-6.9,8.9-13.6c-0.1-3,1.2-4.2,3.9-5c4.9-1.5,7.9-4.6,6.6-10.3c-0.9-3.9,0.8-5.4,4.6-5.9
	c5.3-0.6,10.9-6.8,10.4-12c-0.4-4.6,0.1-7,5.7-7.2c4.2-0.2,7.1-3.2,5.7-8.5c-1.9-7.7-0.4-9.6,7.2-9.6c6.8,0,10.5-4.6,8.9-11.2
	c-0.9-3.8,0.1-6,4.3-5.9C900,691.8,902,691.8,903.6,689L903.6,689z M638.1,542.6c0.2,7,2.5,13.7,6.6,19.3c4.1,5.3,9.3,7.6,15.9,5.6
	c14-4.2,24.6-12.6,31.2-25.6c4.5-8.8,1.8-17.1-6.8-22.2c-2.9-1.7-6.1-3-9.4-3.8C656.2,511.2,638,523.8,638.1,542.6z M782.7,415.1
	c0.4,3.4,0.9,6.7,1.6,10.1c3.2,11.5,11.7,16.4,23,12.8c12.4-3.9,22.8-12.5,29-24c2.4-4.4,3.1-9,0.7-13.8
	c-7.1-14.4-29.9-19.3-42.1-9.1C787.4,397.3,783.1,405.2,782.7,415.1z M715.9,580.8c9.4-0.1,17.3-3.1,21.3-11.6
	c6.7-14.1,11.9-29,23.8-39.8c0.1-0.1,0.3-0.3,0.4-0.5c0.9-1.6,1.7-3.3,0.4-5s-3.1-1.8-4.8-1.5c-4.5,0.7-8.2,3.2-11.6,6
	c-6.5,5.4-11.7,12.1-17.5,18.2c-7.7,8.1-13.2,8.8-22.7,2.7c-1.4-0.9-2.4-2.1-3.6,0.2c-3.5,6.9-8.8,12.4-14.6,17.4
	c-1.5,1.3-1.4,2.1,0.3,3.1C696.4,575.2,705.4,580.5,715.9,580.8L715.9,580.8z M972.4,614c5.4-2.7,6.5-4.5,5.6-9.9
	c-0.6-3.7,0.5-6,4.7-5.6c6.6,0.6,11.5-2.9,12.4-9.4c0.6-4.1,1.6-6.3,6.4-5.2c4.2,0.9,7.5-2.4,7.2-6.6c-0.3-4,1.6-5.2,5.4-5.2
	c4.3,0,7.2-2,6.5-7c-0.5-3.4,0.8-5.3,4.5-5.5c4.3-0.3,8.5-2,8.7-6.7c0.2-4,0.5-6.5,5.1-7c2.4-0.3,2.2-2.7,2-4.4
	c-0.4-3.3-2.4-0.6-3.6-0.7c-2.9-0.3-5.6,1.3-6.7,4c-2.2,4.6-6.3,6.5-11.4,6.1c-1.7-0.1-3.4-0.9-4.4,1.7c-2.2,6.2-6.6,9.2-13.3,10.6
	c-5.7,1.2-8.8,8.7-15.6,8.6c-3.1,0-4.7,2.1-7,3.3c-5.8,3.1-10.7,6.7-13.8,12.6c-0.2,0.4-0.5,0.6-0.9,0.7c-5.4,0.4-6.4,5.3-9.2,8.6
	C966.8,599.1,971,603.3,972.4,614L972.4,614z M832.4,437.9c-6.6,4.6-13,9.4-20.9,11.5c-2.4,0.6-2,2.3-2,4.2
	c0.3,12.3-4.5,19.7-16.1,24.8c-4.6,2-9.2,4.1-12.9,7.6c-3.4,3.2-5.8,7-2.5,11.6s7.5,4.2,12.1,1.5c7.2-4.3,14.4-8.8,21.9-12.4
	C830,477.8,838.7,457,832.4,437.9z M887.5,667.1c23.3,19.3,35.3,17.1,47.4-8.6c0.3-0.5,0.6-1.1,0.8-1.6c0.6-2.1,1.1-4.2,1.4-6.4
	c0.3-2.7-1.2-5.3-3.7-6.4c-2.8-1.4-5.1,0-7,1.9c-4.4,4.6-7.9,9.7-8.7,16.1c-0.4,3.5-1.9,6-5.7,5.5c-3.8-0.5-4.3-3.5-4-6.9
	c0.2-3,1-6,2.5-8.6c2.8-4.8-1.1-5.7-3.9-6.4c-3.6-0.9-14.2,7.7-14.2,11.4C892.4,661.4,890.4,664.2,887.5,667.1z M468.7,246.2
	c-4.9-0.1-10.6,0-15.7,2.8c-4.7,2.6-5.4,6-1.5,9.6c7.7,7,16,13.3,23.4,20.7c3.5,3.5,6.5,1.9,8.5-2.2c1.7-3.9,2.7-8,3-12.2
	C487.6,251.5,482.8,246.2,468.7,246.2z M493.2,208.9c1.3,3.6-1.4,9.3,2,12.5c4.3,4,10.2,6.4,13.3,11.9c0.4,0.8,1.3,0.7,2.1,0.4
	c4.6-1.4,9.5-1.8,13.7-4.4c2.5-1.6,5-4,2.4-6.8c-7.8-8.4-14.6-17.7-24.2-24.2c-4-2.8-7.3-1.1-8.5,3.6
	C493.7,204.2,493.4,206.5,493.2,208.9z M962.6,614.8c0.3-2.9-1.3-5.7-4-6.8c-3-1.4-5,0.4-6.8,2.3c-4.5,4.5-7.8,9.7-8.6,16.1
	c-0.5,3.6-2.1,5.8-5.8,5.1c-3.7-0.6-4.4-3.7-3.8-7c0.5-3.4,1.5-6.6,3.1-9.7c1.1-1.9,0.3-2.9-1.4-3.7c-2-1-2.8-0.2-3.3,1.8
	c-0.5,2.4-1.7,4.6-3.5,6.2c-3.9,3.4-9,5.5-9.8,11.6c-0.2,1.4-3.6,2.1-0.9,4.2c1.8,1.4,3.2,2.4,5.8,1c7-3.8,13.7-2.9,19,3.2
	c2.4,2.7,3.7,2,5.5-0.1c1.3-1.5,3-2.8,4.2-4.3C957,628.7,961.9,622.8,962.6,614.8z M850.7,409.6c-1.2,5.4-3.5,10.6-6.6,15.2
	c-2.8,4.1,0.3,7.7,1.3,11.3c0.7,2.5,3.9,0.9,5.8,0.8c9.5-0.6,18.9-1.5,29.4-2.4L850.7,409.6z M743.6,456.4l-25.9,22.7
	c10.5,1.2,17.6-2.8,23.5-9.4C744.6,466,746.4,461.6,743.6,456.4z M786.5,381.7c5.9-4.3,12.7-7.3,19.8-8.7l-18.8-15.8
	c0,4.6,0.1,8.3,0,12C787.3,372.9,786.9,376.8,786.5,381.7L786.5,381.7z M499.7,238.8c0-2.5-6.5-8.1-9.3-7.9c-3.1,0.2-5.7,2.5-6,5.7
	c-0.4,2.2,7.2,9.7,9.5,9C497.1,244.6,498.5,241.5,499.7,238.8z"/>
<path class="st1" d="M402,800.6c8-2.4,16.3-2.4,24.5-2.6c1.6,2.5,3.2,4.4,4.7,0l16.5,0.1c4.1-0.2,7.7,0.3,9.4,5
	c0.7,1.4,2.1,2.5,3.6,2.9c5.2,0.9,4.8,3.4,2.4,6.8c-1,1.4-1.5,3.1,0.5,4c1.8,0.9,2.4-0.9,3-2c1.2-2.1,2.3-4.2,3.4-6.3
	c1.5-2.9,2.9-3.9,5.8-1.1c4.3,4.4,10.2,5.1,14.9,1.9c4.3-2.9,7.6-1.9,11.4-0.3c5.6,3.6,10.8,7.6,15.6,12.1
	c5.4,4.9,11.7,8.5,18.6,10.7c3.4,1.3,6.7,2.8,9.8,4.5c5.1,2.4,8.2,7.5,8,13.1c0,3.6,0.2,7.2-0.1,10.9c-0.7,7.3,1.8,14.5,6.8,19.9
	c12.6,14.2,6.4,29.9-8.5,37.7c-10.4,5.3-21.9,8-33.6,8c-22,0.3-44.1,0.6-65.8-4.6c-11.9-2.8-21-9.6-28.4-18.8
	c-11-13.7-24.2-22.3-42.7-21.3c-11.7,0.6-23.6,1.6-35.1-3.1c-17.1-7-22.8-20.9-18.6-37.4c3.3-12.9,12.4-21.2,24.1-27
	c1.6,5.5,5.4,7.7,10.9,7.3c2.5-0.2,4.3,0.3,5.8,2.9c5.3,9,15.5,9,20.4-0.1c2.5-4.7,4-4.7,6.5-0.3c0.8,1.4,1.6,4,3.8,2.8
	c2.7-1.5,0.7-3.7-0.5-5c-2.9-3.1-2.1-4.9,1.1-7.4C405.1,810.3,405.4,805.5,402,800.6z M438.1,872.9c-6.9-4-11.6-5.5-16.2-6.3
	c-3.6-0.6-4.6,0.6-4.4,4.1c0.6,10.6,7.6,17.6,18.7,18.1c7.8,0.4,8,0.2,7.5-7.7c-0.5-8.5-2.7-16.6-4.6-24.8c-0.8-3.6-0.9-5.7,3.6-6.8
	c5.4-1.2,8.8-4.8,7.5-11c-0.5-2.4,1-4.2,1.8-6.2c2.4-5.5,0.9-10.3-4.3-13.3c-1.2-0.5-2.2-1.5-2.6-2.7c-3-8.2-8.2-10.4-16-6.7
	c-2.1,1-3.6,1.4-6,0.3c-8.8-3.9-15.2,0.8-14.5,10.6c0.2,2.8-0.3,4.2-2.7,5.8c-8.4,5.6-7.6,15.5,1.4,20.2c2.4,1.3,5.2,2.1,6.8,4.7
	c2.1,3.6,4.3,7.2,8.8,8.5c5,1.5,7.9-2.1,11.6-4.9c1.2,5.5,2.4,10.3,3.4,15.2C438.2,871,438.2,872,438.1,872.9z M473.5,861
	c-3,5.7-5.3,10.9-5.2,16.6c0,1.5-0.3,3.6,2.1,3.6c2.1,0,1.7-1.8,1.8-3.2c0.3-4,1.4-7.9,3.2-11.5c1.2-2.5,2-3.8,5.1-1.6
	c8.7,6,16.7,3.2,20.1-7c0.7-2.3,1.8-2.9,3.8-3.7c4.9-1.6,7.6-7,5.9-11.9c-0.2-0.7-0.5-1.4-0.9-2c-1.3-2.4-2.1-4.3-1.5-7.2
	c1.2-5.7-2-10-7.9-11.3c-1.5-0.3-2.9-1.2-3.7-2.4c-5-6.2-11.1-6.7-17-1.1c-1.5,1.8-3.9,2.6-6.2,2c-7.8-1.1-13.2,5.4-10.6,12.8
	c1.3,3.6,2,6.5-1.3,9.7c-2.6,2.5-2.4,6-1.3,9.6C461.8,859,467.3,860,473.5,861z M494.4,872.2c-4.6,0-9.3,1-12.9,4.7
	c-3.2,3.3-2.9,6.3,1,8.9c4.8,3.3,11.2,3,15.7-0.7c3.2-2.7,6.1-5.7,8.9-8.9c1.8-2,0.9-3.6-1.7-3.2
	C501.7,873.6,498.3,872.4,494.4,872.2z"/>
<path class="st2" d="M1021.2,485.3c-16.9-12.6-34.1-24.6-53.5-33.2c-20-9-41.3-14.6-63.1-16.5c-4-0.2-7.8-1.7-10.8-4.4
	c-10.9-9.5-22-18.7-33-28c2.1-0.2,2.2-1.8,2.7-3.4c3.1-10,9.8-18.5,18.8-23.9c1.8-1.1,3.4-2.1,5.5-2c2.1,4.4,5.5,6.7,10.5,6.2
	c3.1-0.4,4.8,0.7,6.5,3.7c4.4,7.9,14.8,7.8,19.6,0.2c1.1-1.7,1.4-4.1,3.8-5.3c1.2,1.7,2.4,3.2,3.6,4.8c0.9,1.2,1.6,3.2,3.6,1.7
	s0.4-2.8-0.4-4.2c-0.4-0.7-0.8-1.4-1.4-2c-2-2-1.9-3.3,0.7-5c5.4-3.5,6.2-8.5,3.3-14.1c7.8-3,16-2.7,24.2-2.9
	c0.5,1.1,0.9,2.4,2.3,2.4c1.5,0,1.8-1.2,1.9-2.4h16.7c2.6,1,6.3-1.4,7.9,2.5c1.2,3.3,4.1,5.6,7.5,6.2c2.8,0.6,2.4,2,1.3,3.8
	c-0.6,1.1-1,2.1-1.5,3.2c-0.6,1-0.4,2.3,0.6,3c0.1,0,0.2,0.1,0.2,0.1c1.4,0.7,2.2-0.4,2.8-1.5c1.2-2.1,2.3-4.2,3.4-6.4
	c1.6-3.4,3.2-4.6,6.5-1.2c4.4,4.3,10.1,4.5,15,1.4c3.8-2.4,6.8-2,10.3-0.2c6.8,4.1,13.2,9,19,14.5c5.3,5,12.4,7.1,19.2,9.7
	c12.2,4.7,17.2,12.9,14.5,25.4c-1.6,7.3,0.5,13.4,4.5,19.1c1.2,1.6,2.4,3.2,3.6,4.8c8.5,10.9,6.4,24.4-5,32.5
	c-10.9,7.7-23.3,10.4-36.2,10.9C1045,485.6,1033.1,485.3,1021.2,485.3z M973.3,431.6c-5-2.2-9.7-4.6-14.8-5.6
	c-4.6-0.8-6.4,0.2-5.4,5.2c2.2,11.7,8.5,16.7,21.1,17c4,0.1,5.2-0.9,5.2-4.9c-0.1-9.4-2.6-18.3-4.6-27.3c-0.8-3.7-0.9-6.4,4-7.3
	c11-2.1,5.2-13.2,9.6-19.2c2-2.7,0.2-6.3-1.9-8.9c-0.9-1.1-2-1.9-3.3-2.5c-1.3-0.4-2.3-1.5-2.6-2.8c-2.7-7.9-7.9-10.1-15.5-6.7
	c-1.9,0.9-3.4,1.9-6,0.7c-9-4.1-14.9,0.1-14.9,10c0,2.4,0.2,4.3-2.4,6c-9,6-7.9,15.9,2,20.7c2.4,1.1,4.8,2.2,6.2,4.6
	c2.1,3.7,4.4,7.1,9,8.4c4.8,1.3,7.7-2.2,11.5-5C971.1,420.5,973.6,425.6,973.3,431.6L973.3,431.6z M1009,420.3
	c-2.9,5.3-5,10.7-5.4,16.6c-0.1,1.6-0.1,3.5,2.2,3.5c2,0,1.8-1.8,1.9-3.2c0.3-3.8,1.3-7.5,2.9-11c1.4-3.2,2.5-4.1,6-1.6
	c7.8,5.6,16.9,2.2,19.3-7c0.7-2.6,1.7-3.4,4-4.2c4.9-1.6,7.5-6.9,5.9-11.8c-0.2-0.5-0.4-1-0.6-1.5c-1.5-2.6-2.1-5.5-1.7-8.5
	c0.5-5.9-2.2-9.2-8.3-10.5c-1.3-0.2-2.5-1-3.2-2.1c-5.1-6.7-11.1-7.1-17.4-1.4c-1.5,1.4-2.6,2.4-5.1,2.2c-10.2-1-14.6,4.8-10.9,14.5
	c1.2,3,0.4,4.6-1.4,6.8c-5.3,6.6-1.9,15.8,6.3,17.9C1005.2,419.6,1006.9,419.9,1009,420.3L1009,420.3z M1024.7,447.3
	c5.5-0.1,9-2,13.4-7.4c1.8-2.2,6-3.6,4.7-6.8c-1.1-2.8-4.7,0.3-7.1-0.9c-1.3-0.5-2.7-0.8-4.1-0.7c-4.7-0.3-9.2,0.3-13.1,3.2
	c-5.3,3.9-4.8,8.7,1.3,11.4C1021.5,446.7,1023.1,447.1,1024.7,447.3L1024.7,447.3z"/>
<path class="st3" d="M277.7,721.8c-10.5,1-18.6-2-24.3-11.7c-2.5-4.2-7.2-7.2-9-12.3c-0.6-1.7-2.4-1.1-3.7-1.1
	c-3.9,0.2-7.7-1.4-10.4-4.2c-5-5.7-10.7-10.6-15.9-16.1c-4.4-4.4-5.8-11-3.6-16.9c2.1-5.9,3.3-11.9,5.3-17.7
	c0.8-2.3,0.6-3.1-1.6-4.5c-7.4-4.8-8.8-10.6-5.2-18.7c1-2.4,2.2-4.4,1.6-7.4c-1.9-9.3,3.1-15.3,12.5-16.6c7.7-1,12.5-5.5,17.2-11.9
	c4.7-6.4,8.9-13.3,14.9-18.3c5.4-4.5,12.2-3.9,17.8,0.5c1.7,1.4,3,2.1,5.3,1.5c3-0.7,6.1-0.4,8.9,0.8c2.4,0.9,4.1,0.8,5.6-1.6
	c0.5-0.8,1.5-1.8,2.3-1.8c8.5-0.1,16.3-5,24.9-3.2c4.5,0.9,8.2,3,9.9,7.7c1.1,2.9,11.8,7.2,14.8,6.2s6.2-1.7,8.1,0.2
	c4.2,4,9.2,3.4,14.1,4.1c7.6,1.2,11,5.1,12,12.8c0.1,1.6,1,3,2.3,3.9c2.2,1.5,4.9,4.1,4.4,6.1c-2.4,9.2,5.4,14.1,8.2,21
	c0.8,1.9,2.4,2.6,3.7,3.8c7.2,6.5,7.5,15.9,0.6,22.7c-1.1,1.1-2.3,1.8-2.5,3.8c-0.8,9.3-6.9,14.1-15.2,16.5
	c-2.7,0.8-4.3,1.5-5.2,4.6c-1.6,5.9-6.1,10.7-12,12.6c-2.4,0.8-3.7,1.9-4.4,4.2c-2.3,8.2-8.9,12.1-16.4,11.5
	c-8.8-0.6-16.5,5-25.3,2.8c-2.8-0.7-2.6,2.9-3.7,4.6c-1.8,1.5-0.8,3.3-0.5,5c1.8,9.3-0.3,17.9-5,25.9c-1.1,1.9-2.2,4.4-4.8,3.1
	c-3.2-1.6-1.3-4-0.2-6c3.1-5.2,4.8-11.1,4.8-17.1c0-3.4-0.3-5.4-4.5-3.6c-2.1,0.9-5,1.6-7,1C289.2,715.8,283.3,717.9,277.7,721.8z
	 M375.5,616.8c-9.9-1.1-18.5,2.3-26.4,7.9c-1.8,1.3-3.8,3.3-5.7,0.9c-2.1-2.6,0.3-4.3,2.2-5.8c7.3-5.3,16-8.5,25-9.3
	c1.4,0,2.8,0.1,4.2,0.1c2.2,0.1,4.6,0.7,5.5-2.2c0.8-2.3,0.3-4.9-1.3-6.7c-1.1-1.4-2.6-2.5-4.4-3c-1.6-0.4-2.7-1.9-2.5-3.5
	c0.3-10.1-3.6-12.7-13.3-8.9c-2.4,0.9-4.4,1-5-2c-0.7-3-2.4-4.8-5.4-4.4c-3,0.4-4.8,2.4-4.9,5.8c-0.1,1.6-0.4,3.2-0.7,4.7
	c-1.6,2-2.7,4.5-5,5.8c-3.9,2.3-6.1,1.8-5.6-3.3c3.7-2.4,6.8-5.3,5.2-10.3c-1.4-4.5-4.4-6.3-9.3-5.2c-2.6,0.6-3.1-1.6-3.3-3.8
	c-0.9-6.9-9.1-10.2-14.2-5.6c-2.4,2.2-4.1,3.3-7.1,1.2c-1.7-1.2-4.1-1.1-5.6,0.3c-1.9,1.3-2.5,3.9-1.4,5.9c1.1,2.4,0.7,5.1,1.1,7.7
	c-0.8,3.3-1,7.3-6.3,6.1c-1.5-2.4,0.3-4.7,0.3-7c0-3.7-0.5-7.4-4.6-8.9c-2.9-1.1-6.4-2.7-8.8,0.5c-3,3.9-4.7,2.8-6.3-0.9
	c-1.6-3.7-4.3-5.7-8.5-5.2s-7.7,2.8-8.1,6.9c-0.5,4.5-2.1,7-6.6,7.7c-1.7,0.3-2.9,1.7-3,3.4c0,2.2,2.3,1.7,3.6,2.3
	c2.2,1,4.4,1.9,6.6,2.9c3.4,3.2,6.4,6.6,7.4,11.3c0.4,2,0.8,4.3-1.8,5c-2.6,0.7-3.4-1.3-4-3.4c-1.8-6.8-6.6-10.1-13.4-10.7
	c-3.5-0.4-6.9,1-9.2,3.6c-2.8,3-5.6,4.4-10,3.9c-5.4-0.5-9.7,3.7-8.5,8.3c1.2,4.6,0.2,8.6-1.9,12.6c-1.6,3-1.8,6.3,0.7,9
	c2,2.4,5,3.5,8.1,3c1.7-0.5,3.4-1.2,5-2c5-0.1,9.9-0.6,14.8,0.9c2.3,0.7,5.3,0.9,4.4,4.2c-0.9,3.3-3.6,1.8-6,1.4
	c-6-1-12.3-2.4-17.4,2.8c-3,3.4-8.6,21.8-8,26c0.3,2.6,1.5,5,3.5,6.8c5.2,4,9.8,8.6,13.8,13.8c1.7,2.6,4.9,3.8,7.9,3.2
	c3.4-0.9,1.6-4.4,2.5-6.6c0.2-1,0.3-2,0.2-3c4.6-9.1,12-15.3,20.8-20.1c1.8-1,3.9-2.1,5.3,0.1c1.7,2.6-0.5,3.9-2.4,5.1
	c-2.5,1.6-5.1,3.1-7.5,4.9c-5,3.8-9.7,7.8-10.4,14.7c-2,6.3,0.1,13.1,5.3,17.2c1.8,1.4,3.3,3.2,4.3,5.3c4.4,8.4,15,10.6,21.8,4.4
	c1.9-2.1,4.9-2.8,7.6-1.8c3.2,1,6.6,1.9,10,1.4c4.7-0.7,8.7-3.6,10.7-7.9c1.9-3.6-2.4-4.5-3.5-6.8c-0.8-1.6-1.8-3.1-2.8-4.6
	c-1.9-6.3-3.2-12.8-3.6-19.4c-0.2-2.2,0.5-4.3,3-4.3c2.2,0,2.7,1.8,2.9,3.8c0.4,3.6,1,7.1,1.5,10.7c0.6,4,2.1,7.8,4.5,11
	c3.9,5.2,11.8,7.2,16.6,3.6c2.8-2.2,4.9-2.2,8.1-1.6c9.4,1.9,17.2-2.2,17.6-9.7c0.2-4.4,1.6-5.1,5.6-5.4c6.8-0.5,11.8-8.5,10.5-15.3
	c-0.2-2-1-3.9-2.3-5.4c-3.8-5-9.5-6.3-15.1-7.7c-2.3-0.6-4.6-1.3-3.9-4.1c0.8-3,3.5-2.1,5.5-1.6c5.9,1.2,11.4,3.6,16.3,7.1
	c1.5,2.4,3,4.7,4.4,7.1c0.7,1.2,1.2,2.3,3,2.4c5.9,0.2,13-6.9,11.7-12.6c-0.7-3.3,0.6-4.4,2.9-5.6c3.3-1.7,5.6-4,4.9-8.1
	c-0.6-3.7-1.9-7.1-6.2-7.8c-1.4-0.1-2.6-1.2-2.9-2.6C385.8,618.7,384.2,617.4,375.5,616.8L375.5,616.8z"/>
<path class="st1" d="M277.7,721.8c5.7-4,11.6-6,18.7-3.8c2.1,0.7,4.9,0,7-1c4.3-1.9,4.5,0.2,4.5,3.6c-0.1,6-1.7,11.9-4.8,17.1
	c-1.2,2.1-3,4.5,0.2,6c2.7,1.3,3.8-1.2,4.8-3.1c4.7-8.1,6.8-16.6,5-25.9c-0.3-1.7-1.3-3.5,0.5-5c23.7-0.2,46.2,21.8,48.2,46.8
	c0.5,7.6-3.1,15-9.6,19.1c-10.1,6.9-21.2,9.4-33.5,8.2c-10.8-0.9-21.4-3-31.6-6.3c-14-4.7-22-15-23.4-29.2
	c-0.9-9.5,4.4-17.6,11.6-24C276.1,723.6,276.9,722.7,277.7,721.8z M321,736.3c-2.6,2.4-5.8,5.3-8.8,8.3c-0.6,0.6-0.1,1.9,0.7,2.7
	c0.8,1,2.2,1.3,3.2,0.6c2.9-1.8,5.8-3.6,7.8-6.4c0.9-1.1,1.1-2.7,0.5-4C324,736.6,323,736.3,321,736.3L321,736.3z M325.3,753.5
	c2.8-1.4,7.9-0.2,9-5.3c0.2-1.3-0.7-2.4-2-2.6c-0.4-0.1-0.8,0-1.2,0.1c-3.3,1.6-8.5,0.4-9.7,5.4C321.1,753,323,753.6,325.3,753.5
	L325.3,753.5z"/>
<path class="st3" d="M502.2,808.9c-3.9-1.5-7.1-2.5-11.4,0.3c-4.7,3.1-10.5,2.4-14.9-1.9c-2.8-2.8-4.3-1.8-5.8,1.1
	c-1.1,2.1-2.2,4.3-3.4,6.3c-0.7,1.1-1.2,2.9-3,2c-2-1-1.4-2.6-0.5-4c2.4-3.5,2.7-5.9-2.4-6.8c-1.6-0.4-2.9-1.4-3.6-2.9
	c-1.7-4.7-5.2-5.2-9.4-5c-3.5-2.6-6.8-5.5-5.8-10.3c1.2-5.7-3.1-7.4-6.2-9.9s-5.5,0.1-7.9,1.6c-2.8,1.7-0.2,3.5,0.1,5.1
	c0.9,4.5,2.2,9,3.3,13.4c-1.6,4.4-3.1,2.5-4.7,0c-0.1-3-0.5-6-1.5-8.9c-1.2-4.6-2.8-7.7-8.2-9.6c-4.8-1.7-8.7-4.5-14.1-2.7
	c-1.9,0.6-5.4,0-6-1.7c-3.2-7.8-13.4-5.4-16.9-12.2c-0.8-1.4-1.2-3-1-4.6c0.4-2.7,0.6-5.1-2.1-6.8c-0.6-0.5-1-1.2-1.2-2
	c-2.5-6,2.9-23.1,8.8-26.2c2-1.1,1.6-2.4,1.8-3.9c1-6,4.3-9.5,10.3-9.5c2.2,0,3.3-0.6,4.2-2.4c1.3-2.5,3.9-4.8,6.1-4.2
	c5.3,1.5,9.8-2.2,14.2-1.8c7.2,0.7,14.5,3.6,21.3,6.3c3.1,1.2,5.7,4.5,9.9,4.3c1-0.1,2,0.2,2.8,0.8c5.1,6.2,12.8,10,16.5,17.4
	c2,4,3.6,5.5,8,2.6c4.3-2.8,9.3-3,12.9,1.6c1.6,2,3,2,5.1,1.2c2.6-0.9,5.9-0.7,7.4,1.2c3.1,4.5,8.1,3.8,12,5.8
	c7.2,3.6,14.9,9.8,16.8,16.5c2.3,8.2,4.3,18.8-3,27c-0.8,0.8-1.3,1.9-1.3,3c-0.7,7.1-4.4,10.7-11.4,11.7c-1.8,0.3-3.5,0-4.5,2.1
	C511.1,807.7,506.8,808.6,502.2,808.9z M468.3,744.2c0.3,1.7,1.2,3.6-0.9,4.8c-2.1,1.2-3.3-0.6-4.7-1.6c-1.7-1.2-3.3-3.2-5.7-1.1
	c-2.1,1.5-2.7,4.3-1.4,6.5c2.8,5.2,2.9,7.9-4.3,5.6c-2.5-0.8-4.2,1-5.3,3.1c-1,2.1-0.3,3.2,1.9,4.2c3.5,1.6,3.3,3.9-0.1,5.5
	c-2.4,1.1-4.4,2.5-4.2,5.2c0.2,2.5,2.6,2.6,4.6,3c2.8,0.6,3.8,2.4,2,4.8c-1.9,2.4-4.1,4.3-1.3,7.2c2.4,2.5,5,1.6,7.7,0.3
	c4.1-2,4.8,0,4.6,3.8c-0.4,5,2.8,7.4,7.5,5.7c1.5-0.6,2.8-1.5,4-2.6c3-2.5,4.9-2.5,5.6,1.8c0.5,3.3,3,4.6,6,4.8c2.7,0.2,6-0.2,6.7-3
	c1.7-6.8,4.2-3.8,7.2-1.2c2.3,2.1,5.7,2.6,8.5,1.2c2.8-1.3,2.3-3.9,1.9-6.3c-0.5-1.4,0.1-2.9,1.4-3.6c1.6-0.8,2.6,0.1,3.6,1.2
	c0.6,0.8,1.5,1.4,2.4,1.7c3.2,0.7,5.3-1,7.1-3.4c1-1.4,0.9-2.7-0.8-3.3c-1.9-0.7-4.3-1.2-3.6-3.8c0.8-2.9,3.3-1.9,5.5-1.8
	c3.1,0.1,4.4-2.3,5-5.1c0.6-2.8-1-3-3.1-2.9c-1.3,0.1-2.4-0.8-2.6-2c-0.4-2,1.1-2.9,2.6-3.5c4-1.7,4.6-4.8,3.1-8.5
	c-1.5-3.7-4.2-3.4-7.5-2.1c-3.2,1.3-5-0.3-3.7-3.5c1-2.7,2-4.8-0.9-6.8c-2.5-2-6-1.8-8.2,0.4c-2.9,2.4-4.6,1.3-5.1-2.4
	c-0.9-6.4-3.6-7.4-8.6-3.2c-3.5,2.9-5.6,3.2-5.9-2.1c-0.2-2.4-0.8-4.5-3.5-4.8s-3.8,1.6-4.1,4.1c-0.2,1.7-0.2,3.9-2.6,4.2
	c-2.4,0.3-2.9-1.7-3.9-3.2c-1.1-1.7-2.4-3.7-4.7-2.7c-2,0.8-2.9,3-2.2,5C468.2,744.1,468.2,744.2,468.3,744.2z M398,764.6
	c-0.9,2.7-0.7,3.9,0.2,4.7c3.6,3.5,7.4,2.5,10.7-0.5c3.3-3,5.4-3.5,6.3,1.8c0.6,3.3,3.3,4.4,6.2,4.5c2.9,0,5.7-0.4,6.5-4
	c0.9-3.8,2.8-4,5.5-1.5c1.4,1.3,2.8,3.6,4.8,2.3c2.1-1.3,3-3.9,2.1-6.2c-1.5-5.6,1.1-9.8,6.2-12.2c1.7-0.8,2.4-1.3,2.6-3.3
	c0.7-6.4,4-10.2,10.9-10.4c3.3-0.1,6.9-5.2,6-8.1c-1.2-4-3.7-4.5-7.5-2.9c-3.2,1.3-5.7,0.3-4-3.5c1.2-2.8,1.8-4.8-0.9-6.7
	c-2.6-1.7-5.1-2.1-7.7,0.1c-3.5,3-5.1,2.3-5.4-2.5c-0.4-5.5-4-7.1-8-3.4c-4,3.7-6.3,4.5-6.7-2.2c-0.1-2.1-1.2-3.9-3.6-4.1
	s-3.4,1.6-3.9,3.7c-0.5,1.8,0.3,4.4-2.7,4.6c-2.7,0.2-3-2.2-4.1-3.8c-1.1-1.6-2.3-3.2-4.4-2.1c-2,0.8-2.9,3.1-2.1,5
	c0.6,1.7,1.6,3.5-0.5,4.8c-2.3,1.5-3.6-0.5-5.2-1.7c-1.8-1.3-3.3-3.1-5.6-0.7c-1.9,1.5-2.5,4.2-1.3,6.4c2.5,6.1,2.4,6.3-3.9,5.4
	c-2.3-0.4-4.5,0.8-5.4,2.9c-1.1,2.1-0.4,3.2,1.9,4.6c3.7,2.3,2.1,4.3-1.3,5.7c-2,0.6-3.3,2.5-3.2,4.6c0.2,2.3,2.1,2.7,3.9,3
	c4.1,0.8,4.6,2.9,1.9,5.8c-1.8,2-3,4.1-0.8,6.3c1.7,1.9,4.5,2.3,6.6,1C396.5,759.6,398.9,760.1,398,764.6L398,764.6z"/>
<path class="st3" d="M966.4,357.2c-0.1,1.2-0.3,2.4-1.9,2.4c-1.6,0-1.8-1.3-2.3-2.4c0-4.7-1.7-9-3.1-13.4c-0.6-2.1-1.4-3.7-3.9-3.8
	c-0.8,0-1.6-0.2-2.3-0.7c-4.5-3.6-9.3-5.1-15.1-3.2c-1.9,0.6-5.3-0.1-6-1.9c-3-7.7-13.8-5-16.2-11.9c-1.8-5.3-4-10.9-4.7-16.1
	c-0.7-5.6,0.1-12.9,2.8-17.7c3.2-5.7,7-11.1,11.3-16.1c4.2-4.6,11.4-7.3,17.2-9.2c4.2-1.4,10-3,14.6-2.4c7.2,1.1,14.2,3.2,20.8,6.3
	c3.4,1.6,6.4,4.2,10.6,4.4c0.8,0,1.6,0.2,2.2,0.7c5,6.3,12.8,10,16.6,17.4c1.9,3.6,3.4,6,7.9,2.7c4.1-3,8.9-3,12.5,1.1
	c1.7,1.9,2.9,2.8,5.5,1.8c2.8-1.1,6.4-0.7,7.8,1.5c2.8,4.3,7.4,3.5,10.9,5.3c7.6,4,13.1,10.8,18.5,17.5c0.1,0.2,0.2,0.4,0.2,0.6
	c-1.6,8.6,2.9,18.3-4.5,25.9c-1,1-0.8,2.1-0.9,3.3c-0.1,2.7-1.5,4.8-3.1,7c-3.2,4.3-9.7,2.3-12.4,5.8c-2.8,4-7.4,6.3-12.3,6.2
	c-3.5-1.8-6.5-2.2-10.3,0.2c-4.8,3.1-10.6,2.9-15-1.4c-3.3-3.3-4.8-2.1-6.5,1.2c-1,2.2-2.2,4.3-3.4,6.4c-0.6,1-1.4,2.2-2.8,1.5
	c-1-0.6-1.4-1.9-0.9-2.9c0,0,0-0.1,0-0.1c0.4-1.1,0.9-2.2,1.5-3.3c1.1-1.8,1.6-3.3-1.3-3.8c-3.5-0.5-6.3-2.9-7.5-6.2
	c-1.6-3.9-5.3-1.5-7.9-2.5c-3.3-2.4-6.4-5.3-5.7-9.8c1-6.3-3.2-8.5-7.6-10.9c-3.1-1.7-4.2,1.3-6.2,2.1c-2.5,1.1-1,3-0.4,4.6
	C964.8,347.8,965.9,352.5,966.4,357.2z M1065.1,323.5c-0.1-5-2.6-6.9-7.1-5.5c-3.4,1-6.2,1-4.6-3.4c1-2.9,1.6-5-1.2-6.8
	c-2.3-1.8-5.6-1.7-7.7,0.4c-3.2,2.7-4.8,2-5.2-2.4c-0.6-5.7-4-7.4-7.9-3.8c-4.7,4.3-6.7,3.8-7.1-2.6c0-1.9-1.5-3.5-3.4-3.6
	c-2-0.1-3.2,1.1-3.9,3.1c-2.3,6.5-2.4,6.4-7.2,1.1c-1.1-1.2-2.3-2.6-4.1-1.6c-1.7,0.8-2.7,2.7-2.2,4.5c0.5,1.9,1.9,3.9-0.6,5.4
	c-2.4,1.5-3.6-0.7-5.2-1.8c-1.5-1.1-3.1-2.8-5.2-0.9c-2.1,1.9-2.8,3.5-1.7,6.3c2.5,6.3,2.4,6.4-4,5.7c-2.3-0.3-4.5,1-5.2,3.2
	c-0.8,1.9-0.2,3,1.8,4.3c3.6,2.3,2.6,4.4-1.1,5.8c-2,0.6-3.3,2.5-3.2,4.6c0.1,2.4,2,2.7,3.8,3.1c5,0.9,4.2,3.3,1.5,6.1
	c-1.5,1.6-2.3,3.4-0.8,5.4c1.3,1.9,3.7,2.7,5.9,1.9c1.1-0.3,2.1-1.2,3.2-1.5c2.9-0.9,4.6,0.4,3.9,3.2c-0.7,2.9-1,5.1,2.1,6.6
	c2.8,1.3,6.2,0.7,8.3-1.6c3.3-3.1,5.5-4.2,6.8,1.6c0.7,3,3.4,4.4,6.5,4.3c2.6-0.1,5.3-0.4,6-3.7c1.2-4.8,3.5-4.1,6.2-1.2
	c2.2,2.6,5.7,3.4,8.8,2.2c3.4-1.3,2.8-4.1,2.4-7.1c-0.4-2.8,1.4-4,4.2-2.6c1,0.6,1.8,1.8,2.8,2.2c3.5,1.4,5.8-0.7,7.6-3.2
	c0.9-1.2,0.9-2.8-1-3.3c-1.9-0.6-4.2-1.4-3.3-4c0.8-2.6,3-1.8,5-1.6c3.6,0.3,4.8-2.4,5.5-5.3c0.7-2.8-1.5-2.6-3.3-2.7
	c-1.3,0-2.3-0.9-2.4-2.2c-0.3-1.7,0.7-2.6,2.2-3.1C1063.9,328.1,1065.4,326.2,1065.1,323.5z M933.4,324.2c-0.8,2.7-0.4,4.7,2.1,5.8
	c3.4,1.6,6.3,0.5,8.9-1.8c3-2.7,5.3-4.3,6.2,1.6c0.5,3.2,3.3,4.5,6.3,4.5c2.8,0,5.7-0.3,6.6-3.9c1.1-4.2,3-4,5.8-1.3
	c1.3,1.3,2.8,3.8,4.8,1.9c1.2-1.2,2.9-2.7,2-5.6c-1.8-5.7,0.7-10.2,6.2-12.7c1.5-0.4,2.6-1.8,2.6-3.4c0.7-6.4,4-9.9,10.9-10.4
	c3.7-0.3,6.4-3.5,6.1-7.2c0-0.1,0-0.1,0-0.2c-0.4-4-3.3-5.5-7.5-3.6c-3.1,1.4-5.7,0.3-4-3.5c1.2-2.9,1.5-4.9-1.1-6.7
	s-5.2-1.9-7.7,0.3c-3.2,3-5,1.7-5.4-2.1c-0.2-2.3,0-4.6-2.6-5.5c-2.4-0.8-4.4,0.3-6,2c-3.7,3.9-5.7,3.3-6.1-2.1
	c-0.2-2.4-0.9-4.5-3.7-4.5s-3.7,1.9-3.9,4.4c-0.1,1.6-0.3,3.3-2.2,3.9c-2.3,0.6-3.1-1.1-4-2.7c-1.1-1.9-2.4-4.2-5.1-3
	c-2.1,0.9-2.4,3.1-1.9,5.2c0.4,1.8,1.2,3.6-0.9,4.8c-2.1,1.2-3.3-0.7-4.7-1.8c-1.8-1.2-3.3-3.1-5.7-0.9c-2.4,2.2-2.4,4.4-1.1,7
	c0.8,1.5,2.4,2.9,0.8,4.8c-1.6,1.9-3.2,0.7-4.9,0.2c-2.9-1-4.6,0.9-5.7,3.2c-1.4,2.7,0.7,3.2,2.5,4.3c3.1,1.9,2.3,4-0.6,5.3
	c-2.4,1.1-4.3,2.4-4.1,5.2c0.2,2.8,2.7,2.4,4.5,3c3.2,0.9,3.8,2.8,1.4,5.3c-1.8,1.9-3.1,3.9-1.3,6.3c2.1,2.7,4.8,2.5,7.5,0.9
	C932.4,318.7,933.8,320.2,933.4,324.2L933.4,324.2z"/>
<path class="st0" d="M907.7,83.5c-9.2,4.8-18,9.6-26.8,14.2c-2.6,1.4-5.4,2.7-8.2,3.7c-3.3,1.2-6.2,0.2-7.6-2.9
	c-1.4-3.1-0.8-6.5,2.7-8.2c15-7.2,29.1-16.1,44.5-22.7c3-1.3,6.1-2.4,9,0.2c2.9,2.6,2.1,5.7,1.4,8.9c-4.4,21.8-8.7,43.7-13.1,65.5
	c-0.2,1-0.2,1.9-0.4,3.8c8.5-4.9,16.4-9.7,24.4-14c5.8-3.2,11.7-6,17.7-9c4-2,7.8-1.5,9.5,2.9c1.5,3.9-0.3,6.7-4.4,8.5
	c-15.7,6.9-29.7,16.7-44.8,24.6c-4.4,2.3-9.2,6.7-14.4,3c-5.2-3.7-1.9-9.4-1.1-14c3.5-19.3,7.4-38.6,11.2-58
	C907.9,87.9,908.1,85.7,907.7,83.5z"/>
<path class="st0" d="M811.1,164.8c-4.1,2.3-7.4,4.2-10.7,6c-3,1.7-6.1,1.8-7.9-1.4c-1.8-3.1-0.7-6.1,2.8-8c5.4-3,10.8-6.2,16.3-9.2
	c5.5-2.9,8.8-1.2,9.7,4.9c0.9,8,1.2,16.1,1,24.2c0,1.9-1,4.4,0.9,5.5c1.6,0.9,3.2-1.2,4.7-2c4.8-2.8,9.7-5.7,14.6-8.5
	c3.2-1.8,6.6-3,8.9,0.9c2.6,4.3-0.4,6.6-3.8,8.5c-8.4,4.8-16.6,9.8-25,14.5c-5.8,3.3-8.8,1.6-10-5
	C810.6,185.5,811.9,175.6,811.1,164.8z"/>
<path class="st3" d="M402,800.6c3.3,4.9,3.1,9.7-1.6,13.3c-3.2,2.4-4,4.3-1.1,7.4c1.2,1.3,3.2,3.5,0.5,5c-2.2,1.2-3-1.4-3.8-2.8
	c-2.5-4.4-3.9-4.4-6.5,0.3c-4.9,9.2-15.1,9.2-20.4,0.1c-1.5-2.6-3.3-3.1-5.8-2.9c-5.5,0.4-9.3-1.8-10.9-7.3c0-2.8-0.3-5.7,1.6-8.1
	c1.6-1.9,0.9-3.5,0.1-5.5c-3-8.5-0.9-12.8,7.4-15.7c1.4-0.3,2.5-1.2,3.1-2.4c0.6-1.3,1.5-2.3,2.7-3.2c3-2.2,7.2-2.9,9.7-0.8
	c5.5,4.5,16.5-0.5,17.8,10.6C395.3,793.5,397.9,797.9,402,800.6z M391.2,812.6c8.7-2.6,9.6-5.2,3.6-11.4c-2.1-1.9-3.6-4.5-4.1-7.2
	c-0.8-5.3-2.4-9.3-9.1-7.9c-2.1,0.4-3.6-1.6-5.3-2.5c-4.2-2.2-6.3-1.2-6.7,3.5c-0.2,2.6-0.6,4.3-3.8,3.9c-7.6-1.1-9.2,1.1-6.2,8.5
	c1.2,3,1.5,5.5-0.4,8.5c-3.4,5.2-1.7,8.3,4.7,8.2c4.7-0.1,7.9,1.1,10,5.7c2.1,4.6,7.8,5,10.5,0.5
	C386.4,818.8,388.7,815.6,391.2,812.6L391.2,812.6z"/>
<path class="st3" d="M938,360.2c2.9,5.7,2,10.6-3.3,14.1c-2.6,1.7-2.7,3-0.7,5c0.5,0.6,1,1.2,1.4,2c0.7,1.3,2.2,2.8,0.4,4.2
	c-1.9,1.4-2.7-0.5-3.6-1.7c-1.2-1.6-2.4-3.2-3.6-4.8c-2.4,1.2-2.7,3.5-3.8,5.3c-4.8,7.6-15.3,7.7-19.6-0.2c-1.6-3-3.4-4-6.5-3.7
	c-5,0.6-8.5-1.8-10.5-6.2c-0.4-3-0.7-6.2,1.3-8.6c2-2.4,1.1-4.1,0.3-6.5c-2.9-7.6-0.1-13.3,7.4-15.1c1.5-0.3,2.8-1.3,3.4-2.7
	c0.7-1.2,1.6-2.3,2.7-3.1c2.8-2,6.8-2.8,9-0.9c5.5,4.7,16.9-0.5,18.3,10.8C930.9,353.3,933.7,357.2,938,360.2z M913.8,384.3
	c2.9,0.1,5-0.7,6-2.9c2.3-5,6.3-8.9,11.2-11.2c3.9-1.9,4.4-5,1-8.1c-2.7-2.4-5.3-5.1-5.9-8.8c-0.9-5.2-2.1-9.6-9-8
	c-1.8,0.4-3.3-1.2-4.8-2.1c-4.7-2.8-7-1.8-7.5,3.5c-0.3,2.8-1.2,4.5-4.1,3.2c-2.3-1-4.1-1.2-6,0.7c-2.2,2.4-1.4,4.8-0.2,7.2
	c1.8,3,1.7,6.7-0.3,9.6c-3.1,4.8-1.1,8,5,7.8c4.8-0.1,8.2,1,9.9,5.8C909.8,383,911.7,384.4,913.8,384.3L913.8,384.3z"/>
<path class="st0" d="M767.7,216.1c2.7-1.6,4.8-3,7.1-4.1c2.5-1.3,5.1-1.7,6.8,1.2c1.7,2.9,0.2,5-2.4,6.4c-4.3,2.3-7.9,5.5-11.6,8.5
	c-2.1,1.7-4.1,3.5-7,2.1c-2.9-1.4-2.4-4.3-2.4-6.9c0.1-4.8,0.3-9.7,0.5-14.4c0.1-3-0.2-5-3.9-2.7c-2.9,1.8-6.3,2.9-8.1-1.1
	c-1.9-4.1,1.7-5.5,4.6-7c2.8-1.5,5.9-3.4,9-4.7c4.3-1.9,6.9-0.3,7.3,4.5c0.3,3,0,6,0,9C767.7,209.7,767.7,212.6,767.7,216.1z"/>
<path class="st3" d="M796.2,191.2c-1,3.7-3.4,6.6-7.7,6.7c-3.4,0.1-5.3-2.2-5-5.4c0.4-4.1,3.4-6.4,7.2-6.8
	C794.2,185.4,795.9,187.6,796.2,191.2z"/>
<path class="st3" d="M1113.8,522.3c0.1-2.9,0.4-5.1,3-5.3s2.6,1.8,2.8,3.7c0.4,3.6,1.2,7.1,1.8,10.7c0.4,2,0,3.8-2.1,4.3
	s-3.3-1.1-3.6-3C1114.9,529,1114.3,525.2,1113.8,522.3z"/>
<path class="st3" d="M365.9,261.9c0.2,1.6,0.5,3.3-1.7,3.8c-2.2,0.5-3.5-0.7-3.8-2.7c-0.7-3.9-1.3-7.9-1.8-11.9
	c-0.2-1.9,0.3-3.7,2.7-3.9c2.4-0.2,3,1.3,3.2,3.4C364.8,254.4,365.4,258.2,365.9,261.9z"/>
<path class="st3" d="M235.5,458c0.3,1.7,0.1,3.2-2.1,3.5c-1.5,0.3-3-0.6-3.3-2.2c0-0.1-0.1-0.3-0.1-0.4c-0.7-4.1-1.4-8.3-1.8-12.4
	c-0.2-1.9,0.7-3.6,3.1-3.5c2.1,0,2.6,1.4,2.8,3.2C234.5,450,235,454,235.5,458z"/>
<path class="st3" d="M659.3,945.2c0.3,1.7-0.1,3.2-2.1,3.6c-1.4,0.3-2.8-0.7-3.1-2.1c0,0,0,0,0,0c-1.4-4.4-2.1-8.9-2.1-13.5
	c-0.1-1.7,1.1-3.2,2.8-3.3c0,0,0,0,0,0c1.8-0.2,2.8,1.1,3,2.9C658.3,936.9,658.8,941,659.3,945.2z"/>
<path class="st3" d="M1003.4,848.1c0-3.4-0.7-6.5,2.7-6.8c3.6-0.4,3,2.8,3.3,5.1c0.4,3.4,1,6.7,1.4,10.1c0.2,1.4,0.2,2.9-1.8,3.3
	s-3.2-0.1-3.6-2.1C1004.6,854.2,1003.9,850.6,1003.4,848.1z"/>
<path class="st3" d="M235.5,823.9c-0.1-3.4-0.3-6.3,3-6.3c3,0,2.6,2.8,2.9,5c0.4,2.9,0.8,5.9,1.3,8.8c0.3,2,0.9,4.3-1.8,4.9
	c-3,0.7-3.6-1.8-4.1-3.9C236.2,829.3,235.8,826.1,235.5,823.9z"/>
<path class="st3" d="M863.5,139c-0.1,3.6-1.8,5.8-5.5,5.8c-4-0.1-5.5-2.8-5.6-6.3s1.9-5.7,5.4-5.7C862,132.7,863.1,135.7,863.5,139z
	"/>
<path class="st3" d="M672.3,945.6c0.2-0.8,0.7-3.3,1.4-5.8c0.5-1.9,1.8-3.3,3.9-2.6c1.7,0.6,2.2,2.2,1.8,4c-0.5,2.3-1.2,4.6-1.7,6.9
	c-0.4,2-1.2,3.5-3.6,2.9C672.3,950.6,671.9,949.1,672.3,945.6z"/>
<path class="st3" d="M255.6,833.4c1.4-2.9-0.1-9.1,5-8.2c5.5,1,0.6,5.9,0.9,9c0.2,2.1-0.3,4.8-3.3,4.6S255.8,835.8,255.6,833.4z"/>
<path class="st3" d="M1023.5,857.9c1.1-3.5-0.2-8.3,4.9-9.3c1.4-0.1,2.6,0.9,2.7,2.3c0.1,0.5-0.1,1.1-0.4,1.6c-2,3.2,1,8.9-4.7,9.8
	C1023.1,862.6,1023.6,859.7,1023.5,857.9z"/>
<path class="st3" d="M378.8,263.1c1.1-2.8-0.3-7.4,4.4-8.5c1.2-0.4,2.6,0.3,2.9,1.5c0.2,0.6,0.1,1.3-0.2,1.9
	c-1.7,3.4,0.7,8.9-4.4,10.1C378.3,268.9,378.9,265.6,378.8,263.1z"/>
<path class="st3" d="M248.4,459c1.3-2.9-0.6-7.8,4.7-8.8c1.2-0.3,2.4,0.5,2.7,1.7c0.1,0.5,0,1-0.2,1.4c-2,3.4,0.9,9.2-4.8,10.4
	C247.9,464.3,248.6,461.2,248.4,459z"/>
<path class="st3" d="M124.4,466.3c0.2,2.6-0.5,4.8-2.6,4.2c-4.9-1.4-3.2-6.7-5-10c-0.6-1-0.2-2.4,0.8-3c0.4-0.2,1-0.3,1.5-0.2
	C124.2,458.4,123.1,463.4,124.4,466.3z"/>
<path class="st3" d="M989.1,859.7c0.2,2.8-0.6,5-2.7,4.4c-4.8-1.4-3.1-6.7-4.9-10c-0.5-1.1-0.1-2.4,1-2.9c0.4-0.2,0.9-0.3,1.4-0.2
	C988.9,852.1,987.7,857.1,989.1,859.7z"/>
<path class="st3" d="M344.4,266.1c0.1,2.6-0.8,4.7-2.8,4c-4.6-1.6-3.2-6.8-4.8-10.2c-0.5-1-0.1-2.3,0.9-2.8c0.5-0.3,1.1-0.3,1.6-0.1
	C344.1,258.3,343.2,263.1,344.4,266.1z"/>
<path class="st3" d="M1134,532.7c0.3-1.2,0.8-3.5,1.5-5.7c0.6-1.8,1.7-3.4,3.9-2.7c2.2,0.7,1.9,2.7,1.6,4.5s-0.9,3.8-1.2,5.8
	c-0.3,1.9-0.9,3.7-3.1,3.6C1134.1,538,1133.6,536,1134,532.7z"/>
<path class="st3" d="M221.1,836.6c0.3,2.9-0.8,4.7-2.9,3.9c-4.5-1.7-3.2-6.7-4.7-10.1c-0.7-1.5,0.9-3.6,2.6-3
	C220.7,828.9,220.2,833.5,221.1,836.6z"/>
<path class="st3" d="M637.7,948.5c0.1,2.4,0.1,4.7-2.4,4.2c-5.4-1-3.2-6.5-5.1-9.7c-0.6-1.2-0.1-2.6,1.1-3.2
	c0.5-0.2,1.1-0.3,1.6-0.2C637.2,941,636.7,945.6,637.7,948.5z"/>
<path class="st3" d="M1099.8,536.3c0,2.2-0.9,3.5-2.8,3.6c-1.7,0.2-5.7-7.4-5.4-10.4c0.1-1.8,1.3-3.5,3-2.9
	C1099.3,528.3,1098.3,533.2,1099.8,536.3z"/>
<path class="st4" d="M1146.5,1063.6c-2.5,0-3.9-0.8-4.2-3c-0.2-2.2,0.5-3.7,2.7-3.9c2.1-0.2,3.9,1.3,4.1,3.4c0,0,0,0,0,0.1
	C1149.6,1062.3,1148,1063.2,1146.5,1063.6z"/>
<path class="st5" d="M407.3,351.2c-0.5,11-0.3,22,0.7,32.9c2.1,24.9,8.1,48.5,19.8,70.8c16.4,31.4,37,60.1,58.7,88.1
	c6.9,9,12.7,9,22.7,4.5c3.9-1.8,8.9-4.6,14.3-3.3c4.8,1.1,7.8-1.5,8.5-6.2c0.7-4.8,2.6-6.7,7.5-4.4c4,1.9,7.6,1.3,9.8-2.7
	c1.1-2.1,2.2-2.3,4.3-1.8c23.8,5.7,48.6,4.9,72-2.2c0.9-0.3,1.9-0.3,3.4-0.6c-4.1,11.1-3.6,21.7,0.1,32.1c6.7,19,21.7,26,40.6,19.1
	c6.7-2.4,14.6,3.3,13.6,10c-6.6,44.3-0.9,87.3,14.1,129.2c8.3,23.3,19.2,45,35.9,63.5c9.1,10.3,20.2,18.6,32.6,24.3
	c3.5,1.6,7,3.2,10.9,3.4c6.7,0.3,13.3-0.8,19.3,4.6c3.7,3.3,9.3,0,13.1-3.2c2-1.9,4.5-3,7.2-3.3c8.6-0.8,14.5-5.5,17.4-13.6
	c0.6-1.9,1.8-3.5,3.5-4.4c6-3.6,10.7-8.5,12.1-15.8c0.3-1.6,1.3-2.9,2.6-3.8c1.6-1.2,3.6-2.6,4.1-4.3c2.6-7.9,9.7-12.2,14.1-18.6
	c4-5.8,6.9-12.3,13.1-16.3c0.8-0.5,1.4-1.4,1.6-2.4c-0.1-7.5,5-10.5,10.9-13.1c2.8-1.3,4.9-3.8,5.7-6.8
	c2.7-10.1,11.4-13.9,19.1-18.6c3.2-1.7,6.1-3.8,8.8-6.3c7.8-7.6,14.1-16.5,18.5-26.4c0.3-1.2,1.2-2.1,2.3-2.6c0.4-0.1,0.8-0.3,1-0.6
	c6.8-9.7,16.6-16.8,22.6-27.1c0.8-1.4,1.2-2.8,3-3.3c0.8-0.2,1.5-0.6,2-1.2c6.2-9.9,16.7-15.8,23.4-25.2c0.8-1.1,1.1-2.4,2.7-2.9
	c5.9-1.9,11-4.8,13.2-11.3c0.3-0.9,1.9-1.3,2.9-1.9c2.8-1.6,5.2-3.8,6.9-6.6c5.6-9.3,8-9.3,14.3-0.1c3.3,4.4,4.2,10.2,2.4,15.4
	c-4.8,14.5-13.6,26.3-23.7,37.3c-32.8,35.9-65.7,71.8-98.4,107.8c-20.8,22.9-39.6,47.6-61,70c-10.1,10.6-20.2,21.3-32,30.2
	c-3.7,2.8-7.7,5.1-11.9,7.1c-5.7,2.8-12.3,2.8-18,0.1c-19.5-8.5-36.7-20.5-53.3-33.6c-82.4-64.8-161-134-238.8-204.3
	c-33.7-30.5-65.5-63-98.1-94.7c-16.6-16.1-33.7-31.6-49.5-48.6c-5.3-5.5-10.1-11.5-14.4-17.8c-5.3-8.2-5.4-16.4-0.6-25
	c5-9.1,12.1-16.6,19.7-23.4c13.9-12.3,26.2-26,38.5-39.8c0.8-1.1,1.6-2.2,2.3-3.5L407.3,351.2z M584,622.8
	c11.4-0.7,21.9-6.8,27.5-19.6c5.5-12.5,3.4-24.3-5.3-34.9c-2-2.4-4-4.1-7.9-4.3c-4.5-0.2-8.7-4.1-13.8-1.1c-1.3,0.8-3.4-0.8-4.7-2.1
	c-0.7-0.7-1.8-2-2.4-1.5c-3.9,3.5-9.7,1.9-13.7,5.2c-4.6,3.6-8.4,8.1-11.2,13.3c-1.2,2.3-2.2,3.7-4.9,1.8c-2-1.5-4.6-2.6-6.2,0.4
	c-1.8,3.4,1.1,4.8,3.4,5.8c3.2,1.4,4,3.1,4,6.8C549.3,609.2,564.2,622.8,584,622.8z"/>
<path class="st5" d="M343.5,459c87.6,86.7,174.6,171.9,267.8,250.6c45.2,38.1,89.9,76.8,136.7,112.9c15.5,11.9,31.9,22.3,50.1,29.6
	c2.3,0.9,3.1,1.9,3,4.3c-0.5,13.1-1,26.1-1.2,39.2c-0.1,4.1-1.9,4.6-5.3,3.7c-12.3-3-22.9-9.5-33.3-16.5
	c-35-23.8-67-51.4-100.2-77.4c-49.1-38.5-94.2-81.6-139.4-124.4c-37.1-35.1-75.7-68.5-113.8-102.5c-18.6-16.6-35.8-34.6-49.7-55.5
	c-4.5-6.7-8.1-13.5-8.9-21.9C348.1,487.2,345.6,473.6,343.5,459z"/>
<path class="st5" d="M811.2,896.9c0.3-13.4,0.6-26.9,0.8-40.3c0-1.9,0.5-2.7,2.5-3.2c16.2-4.2,28-15.3,39.6-26.6
	c24-23.2,44.5-49.7,66.7-74.6c35-39.3,70.7-78,106.1-117c4.6-5,8.9-10.2,14.3-16.4c-2,11-4.6,20.7-5.3,30.5
	c-1.8,23.1-16.3,38.6-31,54.1C964.1,746,925,789.9,886.3,834.3c-16.8,19.3-35.4,36.9-55.6,52.5c-5.7,4.4-11.7,8.5-18.7,10.8
	C811.7,897.4,811.5,897.1,811.2,896.9z"/>
<path class="st5" d="M840,725.4c-9.7,3-9.7,3-5.5,10.7c-7.5,1-7.5,1.1-4.2,7.8c1.2,2.5-0.4,3.4-2.5,2.8c-2.3-0.7-4.1-0.4-5.2,1.6
	c-1.2,2.2,0,3.9,1.8,5.1c1.3,0.7,1.8,2.3,1.1,3.5c0,0,0,0,0,0.1c-0.6,1.2-2,2-3.4,1.8c-5.4,0.1-6.1,1.7-3.5,6.5
	c2.6,4.8,1.7,7.5-3.6,8.1c-4.5,0.5-4.8,2.8-2.9,6.2c3,5.3,2.3,8.3-3.2,9.9c-5,1.4-6.7,3.3-3.1,7.9c1.8,2.2,0.8,4.2-1,5.8
	c-1.8,1.6-4.2,3.6-6.9,2.2c-1.9-1-3.5-2.6-2.1-5.4c9.8-19.3,15.9-40.2,25.2-59.8c29.4-61.7,68.2-116.2,120.3-160.9
	c16.4-14.1,34.9-25,54.1-34.7c12.7-6.4,25.1-13.3,38.4-18.5c3.5-1.5,6.7-3.6,9.7-6c1.2-1,1.6-3.8,4.1-2.4c1.4,0.9,2.1,2.6,1.5,4.3
	c-0.6,2.3-2,4-4.7,3.9c-1,0-2-0.3-3-0.3c-2.2-0.1-4.2,1.6-3.8,3c1.8,6-2.4,5.5-5.8,5.9c-3.4,0.4-5.1,2.9-6.6,5.6
	c-2.2,4.1-4.8,5.6-9.1,2.2c-3.3-2.6-5.5-1.1-6.6,2.6c-0.5,2.1-1.1,4.2-1.9,6.3c-2.3,5.1-5.1,5.9-10,3c-1.7-1-3.2-1.6-5-0.5
	c-1.2,0.9-1.7,2.3-1.4,3.7c0.3,4-2.8,7.4-6.7,7.7c-1.2,0.1-2.4-0.1-3.5-0.6c-6.1-2.9-6.4-2.8-6.9,3.8c-0.3,3.7-2.3,4.2-5.3,3
	c-5.6-2.1-6.3-1.4-6.3,4.6c0,3.5,0.7,8.1-5.7,5.3c-2.4-1.1-4,0.7-4.5,3.4c-1.6,9.1-3.6,10.4-11.6,7.4c-3.2-1.2-6.3,1.1-5,4.2
	c2.9,6.9-1.7,7.2-6,7.1c-4.4-0.1-5,1.8-5,5.5c0,5.3-3,8.2-8.4,7.8c-4.6-0.4-6.2,1.7-4.3,5.7c1.4,2.9,0.5,4.5-1.6,6.1
	c-1.9,1.4-3.4,1.5-5-0.7c-1.1-1.4-3.2-1.7-4.6-0.6c-0.1,0-0.1,0.1-0.2,0.2c-1.9,1.5-1.4,3.4-0.6,5.5c0.8,2,4.9,3.7,1.7,6.4
	c-2.5,2.1-5.6,3-8.5-0.2c-1.3-1.2-3.2-1.1-4.4,0.1c0,0,0,0,0,0c-1.5,1.4-1.5,3.1-0.5,4.9c0.7,1.2,2.8,2.4,1,4.1
	c-1.3,1.2-2.5,0-3.6-1c-1.3-1.3-3.3-1.3-4.6,0c-0.1,0.1-0.2,0.2-0.3,0.3c-1.3,1.4-1.3,3.6,0,5c0.8,1.1,1.7,2.2,2.6,3.4
	s2.3,2.1,1.1,3.6c-1,1.6-2.8,2.4-4.7,2.1c-7.6-1.1-7.8-1-5.2,5.7c0.6,1.3,0.4,2.8-0.7,3.8c-1,1-1.9,1.9-3.6,0.8s-4-1.3-5.3,0.7
	c-1.4,2-0.7,3.8,1,5.3c1.1,1,1.8,2.3,0.4,3.6c-1,1.1-2,0.7-3.2,0c-1.9-1.2-3.9-1.2-5.3,0.8c-1.4,2-0.3,3.7,1.2,5.3
	c1.1,1.1,2.6,2.2,0.9,4c-1.2,1.3-2.3,2-4.2,0.8s-4-1.3-5.4,0.7c-1.4,2-0.7,3.9,1.2,5.3c1.5,1.1,2.1,2.4,0.9,4.1s-2.4,3-4.9,1.9
	c-2-0.9-4.5-1.4-5.9,1.1c-1.3,2.5-0.1,4.6,2.4,5.9c1.3,0.7,2.5,1.5,1.7,3.2c-0.5,1.5-1.9,2.6-3.5,2.9
	C835.4,718.6,835.1,719.9,840,725.4z"/>
<path class="st1" d="M772.6,359.7c-3.4,5.1-9.3,7.9-15.4,7.2c-3.2-0.2-5.6,2.1-8.6,2.4c-12.2,1.5-21.3-6-22.7-19.2
	c-0.6-6.6,0.6-13.3,3.5-19.2c3.9-8.5,10.8-11.9,20-11.3c1.6,0.2,3.1,0.5,4.7,0.5c8.1,0.4,13.9,4.2,15.1,11.9
	C770.5,341.2,774.4,350.2,772.6,359.7z"/>
<path class="st5" d="M850.7,409.6l29.9,24.8c-10.5,0.9-19.9,1.8-29.4,2.4c-2,0.1-5.1,1.7-5.8-0.8c-1-3.6-4.1-7.2-1.3-11.3
	C847.2,420.2,849.5,415,850.7,409.6z"/>
<path class="st5" d="M786.5,381.7c0.4-4.9,0.8-8.7,0.9-12.5c0.1-3.8,0-7.5,0-12l18.9,15.8C799.1,374.5,792.4,377.4,786.5,381.7z"/>
<path class="st5" d="M811.9,897.7l-1.4-0.1l0.6-0.7C811.4,897.1,811.7,897.4,811.9,897.7z"/>
<path class="st3" d="M438.1,872.9c0.1-0.9,0.1-1.9,0-2.8c-1.1-4.8-2.2-9.8-3.4-15.2c-3.7,2.8-6.6,6.4-11.6,4.9
	c-4.5-1.3-6.7-4.9-8.8-8.5c-1.6-2.7-4.3-3.5-6.8-4.7c-8.9-4.6-9.7-14.5-1.4-20.2c2.4-1.6,2.9-3.1,2.7-5.8
	c-0.7-9.8,5.7-14.5,14.5-10.6c2.4,1.1,3.9,0.7,6-0.3c7.8-3.6,13-1.5,16,6.7c0.4,1.2,1.4,2.2,2.6,2.7c5.3,3,6.8,7.8,4.3,13.3
	c-0.9,2-2.3,3.7-1.8,6.2c1.3,6.2-2.1,9.8-7.5,11c-4.5,1-4.5,3.1-3.6,6.8c1.9,8.2,4.1,16.4,4.6,24.8c0.5,8,0.3,8.1-7.5,7.7
	c-11.1-0.5-18.1-7.5-18.7-18.1c-0.2-3.5,0.7-4.7,4.4-4.1C426.6,867.4,431.2,868.9,438.1,872.9z M439.6,818.8
	c0.4-4.7-3.2-6.6-8.3-4.1c-3.1,1.5-5.8,2.9-9.5,0.7c-5.4-3.2-8.2-1.2-7.7,5.2c0.4,4.7-0.8,7.9-5.2,10.4c-4.7,2.6-4.7,8.2,0.2,10.3
	c5.1,2.3,9.4,6.1,12.3,10.9c2,3.2,4.8,3.6,7.2,0.3c3.1-4.2,7.7-7.1,12.8-8.2c1.9-0.5,4.4-1.4,3.6-3.9c-1.3-4.2,0.6-7.2,2.2-10.7
	c1.3-2.8,0.5-5.9-3.6-5.5C439.2,824.5,437.7,823,439.6,818.8z M422.1,871.2c1.9,8.6,5.4,12.3,12.3,13.4c3.3,0.5,4.6-0.3,3.1-3.7
	C434.7,874.3,428.9,872.7,422.1,871.2z"/>
<path class="st3" d="M473.5,861c-6.2-1-11.7-2-13.8-8.6c-1.1-3.6-1.3-7.1,1.3-9.6c3.3-3.2,2.6-6,1.3-9.7
	c-2.6-7.3,2.8-13.9,10.6-12.8c2.3,0.5,4.7-0.3,6.2-2c5.9-5.6,12.1-5.1,17,1.1c0.9,1.3,2.2,2.1,3.7,2.4c5.9,1.3,9.1,5.7,7.9,11.3
	c-0.6,2.9,0.2,4.8,1.5,7.2c2.7,4.4,1.4,10.2-3,12.9c-0.6,0.4-1.3,0.7-1.9,0.9c-2,0.8-3.1,1.4-3.8,3.7c-3.3,10.2-11.4,13.1-20.1,7
	c-3.1-2.2-3.9-0.9-5.1,1.6c-1.8,3.6-2.9,7.5-3.2,11.5c-0.1,1.3,0.3,3.2-1.8,3.2c-2.4,0-2-2.1-2.1-3.6
	C468.2,871.8,470.5,866.7,473.5,861z M502.1,834.8c0.6-7.1,0.5-7.2-6.8-6.2c-2.3,0.3-3.8-0.5-3.7-2.6c0.1-2.7-0.1-4.8-2.9-5.8
	c-3.1-1-4.9,1-6.7,3c-2.1,2.4-4.3,3.6-7.8,3c-6.8-1.2-8.5,1.1-6,7.6c1.5,3.9,1.6,7-1.5,10.4c-4.4,4.8-2.4,9.8,4,10.6
	c4.6,0.5,8.9,2.4,12.4,5.4c5.3,4.5,11.2,2.4,12.3-4.5c0.6-3.8,1.6-5.7,5.6-6.3c4.5-0.7,5.5-3.8,2.8-7.5
	C502.3,840,501.6,837.4,502.1,834.8z"/>
<path class="st3" d="M494.4,872.2c3.9,0.2,7.3,1.4,11,0.8c2.5-0.4,3.5,1.2,1.7,3.2c-2.7,3.2-5.7,6.2-8.9,8.9
	c-4.5,3.7-10.9,4-15.7,0.7c-3.9-2.6-4.2-5.6-1-8.9C485.1,873.2,489.8,872.3,494.4,872.2z M499.6,877.2c-5.1-0.7-9.2-1.1-13,1.3
	c-1,0.6-2.3,1.2-2,2.6c0.3,1.4,1.6,1.8,2.7,2.1C492.5,884.6,496.3,882.4,499.6,877.2z"/>
<path class="st3" d="M973.3,431.6c0.3-6-2.2-11.2-2.9-17.5c-3.9,2.8-6.7,6.4-11.5,5c-4.5-1.2-6.8-4.7-9-8.4
	c-1.4-2.4-3.8-3.4-6.2-4.6c-9.9-4.8-10.9-14.6-2-20.7c2.7-1.8,2.4-3.7,2.4-6c-0.1-9.9,5.9-14.1,14.9-10c2.6,1.2,4.1,0.1,6-0.7
	c7.5-3.4,12.7-1.2,15.5,6.7c0.3,1.3,1.3,2.4,2.6,2.8c1.3,0.6,2.4,1.4,3.3,2.5c2.1,2.6,3.9,6.2,1.9,8.9c-4.3,5.9,1.4,17-9.6,19.2
	c-4.9,1-4.8,3.6-4,7.3c2,9,4.5,17.9,4.6,27.3c0,4-1.2,5-5.2,4.9c-12.7-0.3-18.9-5.3-21.1-17c-0.9-5,0.8-6,5.4-5.2
	C963.7,427,968.3,429.4,973.3,431.6z M941.4,395.4c-0.2,2.4,1.2,4.7,3.5,5.4c4.9,1.9,9,5.4,11.5,10c2.1,3.6,5.1,4.5,8.1,0.6
	c2.9-3.9,7.1-6.6,11.8-7.7c2.3-0.5,4.9-1.4,4.2-4.8c-0.7-3.3,0.3-6.1,1.8-9.1c2.3-4.4,0.9-6.3-4.3-6.3c-2.8,0-4.7-1-3.5-3.8
	c1.1-2.6,1.2-4.6-1.2-6.3c-2.4-1.7-4.6-0.8-6.7,0.5c-2.9,1.8-5.6,2.6-9,0.8c-6-3.2-8.9-1.3-8,5.3c0.6,4.6-0.6,7.8-4.8,9.8
	C942.5,390.8,941.1,393,941.4,395.4L941.4,395.4z M973.8,443.7c-1.8-7.2-6-11.4-12.7-12.5c-2.7-0.4-3.7,0-2.8,3.1
	C960.3,440.6,965.5,444,973.8,443.7L973.8,443.7z M973.8,432.4l-0.2,0.4h0.3L973.8,432.4z"/>
<path class="st3" d="M1009,420.4c-2-0.4-3.8-0.8-5.5-1.2c-8.2-2-11.6-11.3-6.3-17.9c1.8-2.3,2.6-3.8,1.4-6.8
	c-3.7-9.6,0.8-15.5,10.9-14.5c2.5,0.3,3.6-0.8,5.1-2.2c6.2-5.8,12.3-5.3,17.4,1.4c0.7,1.1,1.9,1.9,3.2,2.1c6,1.3,8.8,4.6,8.3,10.5
	c-0.4,2.9,0.3,5.9,1.7,8.5c2.4,4.5,0.8,10.2-3.8,12.6c-0.5,0.3-1,0.5-1.5,0.6c-2.3,0.8-3.3,1.6-4,4.2c-2.4,9.2-11.5,12.6-19.3,7
	c-3.5-2.4-4.6-1.6-6,1.6c-1.6,3.5-2.5,7.2-2.9,11c-0.1,1.3,0,3.2-1.9,3.2c-2.3,0-2.3-2-2.2-3.5C1004,431.1,1006.1,425.7,1009,420.4z
	 M1008.2,385.1c-5.1-0.1-6.8,2.4-4.8,7c1.8,4.4,2.2,8.1-1.5,12.1c-3.9,4.2-1.9,9.2,3.8,9.9c5,0.6,9.7,2.6,13.5,5.9
	c5,4.1,10.9,1.7,11.7-4.8c0.5-3.8,1.6-5.7,5.6-6.3c4-0.6,5.6-3.4,3.2-6.9c-2.1-2.7-2.8-6.2-1.7-9.5c1.1-4.3-1.2-6-5.6-4.9
	c-2.4,0.6-5.1,1.6-5-2.4c0.1-2.5-0.4-4.3-2.8-5.3c-2.8-1.2-4.7,0.3-6.3,2.2C1015.5,385.2,1012.3,387,1008.2,385.1z"/>
<path class="st3" d="M1024.7,447.4c-1.6-0.2-3.3-0.7-4.8-1.2c-6-2.6-6.6-7.5-1.3-11.4c3.9-2.9,8.5-3.5,13.1-3.2
	c1.4,0,2.8,0.2,4.1,0.7c2.4,1.2,6-2,7.1,0.9c1.3,3.3-2.9,4.7-4.7,6.8C1033.8,445.5,1030.2,447.3,1024.7,447.4z M1034.2,436.8
	c-2.1-1.4-4.3-0.8-6.4-0.8c-3-0.1-5.9,1.2-7.8,3.6c-0.8,1.1,0.4,1.8,1.2,2.2c2.8,1.7,6.3,1.7,9-0.2
	C1032,440.5,1033.9,439.3,1034.2,436.8L1034.2,436.8z"/>
<path class="st6" d="M370.3,654.6c-4.9-3.5-10.4-5.9-16.3-7.1c-2-0.5-4.7-1.4-5.5,1.6c-0.7,2.9,1.6,3.5,3.9,4.1
	c5.6,1.4,11.3,2.7,15.1,7.7c1.3,1.6,2.1,3.4,2.3,5.4c-2.6,0.2-6-0.7-7.4,1.5c-2.6,4.2-6.2,3.7-9.8,3.4c-4.2-0.4-6.4,1.5-7.2,5.3
	c-1.1,4.7-4,6.8-8.9,7.2c-2.6,0.2-5.2-0.4-8,1.1c-5.3,3.1-11,4.4-16.4-0.4c-1.4-1.2-3.3-1.6-5-0.9c-0.5-3.6-1.2-7.1-1.5-10.7
	c-0.2-2-0.7-3.8-2.9-3.8c-2.6,0-3.2,2.1-3,4.3c0.5,6.6,1.7,13.1,3.6,19.4c-2.2,0.9-3.2,2.7-2.4,4.8c1.5,4-1.1,3.4-3.6,3.8
	c-3.6,0.6-7.6-3.2-9.5-1.9c-4.4,3-7.6,0.1-11.3-0.4c-2-0.3-4-0.4-5.5,1.5c-2.2,2.8-3.8,2.5-6-0.4c-4.3-5.7-9-11-15.2-14.6
	c0.7-6.8,5.4-10.9,10.4-14.7c2.4-1.8,5-3.3,7.5-4.9c2-1.2,4.1-2.6,2.4-5.1c-1.4-2.2-3.5-1-5.3-0.1c-8.8,4.8-16.2,10.9-20.8,20.1
	c-3.3-4.1-8.5-6.8-9.8-12.4c-0.8-4.2-3.8-7.6-7.8-9c-2.1-0.8-2.2-1.2-1.4-3.6c1.7-4.9,4.9-10.6-1-15.2c5.1-5.2,11.3-3.8,17.4-2.8
	c2.3,0.4,5.1,1.9,6-1.4c1-3.3-2.1-3.5-4.4-4.2c-4.8-1.6-9.8-1-14.8-0.9c-0.6-3.1-1.9-6.1-3.7-8.7c-0.8-1.3-2-3.6,0-4.1
	c6-1.3,7.2-8.1,11.8-10.1c7.5-3.3,9.4-8.2,7.6-15.6c6.8,0.6,11.6,3.9,13.4,10.7c0.6,2.1,1.4,4.1,4,3.4s2.2-3,1.8-5
	c-1-4.7-4-8.1-7.4-11.3c1.4-6.3,7.7-9.4,11.7-9.4c5.9,0.1,13.7-1.3,17.9,6c1.1,2,2.8,4.3,5.7,1.8c5.3,1.2,5.5-2.8,6.3-6.1
	c2.3,0.1,4.2,0,5.7-2.3c2.4-3.6,6.2-4.5,10.4-5c4.5-0.6,7.4,2.1,10.9,4c5.3,2.9,7,7.7,7.9,13.1c-0.5,5.1,1.7,5.7,5.6,3.3
	c2.3-1.4,3.4-3.8,5-5.8c5.8,1.4,11.7,2.2,17.7,2.4c1.8,0,4-0.2,4.8,1.7c2.1,5.2,7.9,9.3,5.4,16.1c-9,0.8-17.7,4-25,9.3
	c-2,1.4-4.3,3.2-2.2,5.8c1.9,2.3,3.9,0.3,5.7-0.9c7.9-5.6,16.5-9,26.4-7.9c-0.5,1.8-3.4,2.9-1,5.7c3.9,4.4,5,10.6,9.6,14.6
	c0.7,0.5,0.9,1.4,0.4,2.1C380.4,645,377.9,652.2,370.3,654.6z M335.9,633.8c0.4-6.4-11.6-25.4-16.3-28.2c-1.4-0.8-3.1-0.9-4.5-1.6
	c-5.6-3.1-12.1-1.7-17.7-3.8c-4.6-1.7-8.6-1.7-12.3,1.7c-0.9,1.1-2.2,1.7-3.6,1.8c-6.4-0.2-9.5,6.5-15.4,7.6
	c-0.7,0.1-1.5,1.6-1.5,2.4c0.2,3.5-2.1,5.3-4,7.6c-1.1,1.3-2.1,3.4-1.9,4.9c1,6.4-1.5,13,4.8,19.2c7.1,7,11,16.4,24,14.8
	c8.5-1.1,20.9-3,28.1-5.5c5.9-2,9.2-6.2,13.8-9.5C333.4,642.8,335.8,638.5,335.9,633.8z"/>
<path class="st3" d="M321,736.3c2,0,3,0.3,3.4,1.2c0.6,1.3,0.4,2.8-0.5,4c-2,2.8-4.9,4.6-7.8,6.4c-1.1,0.7-2.5,0.4-3.2-0.6
	c-0.8-0.7-1.3-2-0.7-2.7C315.2,741.6,318.4,738.8,321,736.3z"/>
<path class="st7" d="M325.3,753.5c-2.3,0.1-4.2-0.6-3.8-2.4c1.1-5,6.3-3.8,9.7-5.4c1.2-0.4,2.5,0.2,3,1.4c0.1,0.3,0.2,0.7,0.1,1.1
	C333.2,753.3,328.2,752.1,325.3,753.5z"/>
<path class="st3" d="M869.4,475.9c12-0.3,24,1.4,35.6,4.8c2.6,0.8,6.1,1.5,5,5.3s-4.2,2.7-7,1.8c-13.9-4.4-28.3-5.2-42.8-4.6
	c-2.9,0.1-6,0.7-6.4-3.3c-0.3-4.2,3.4-3.8,6-4.1C863,475.7,866.2,475.9,869.4,475.9z"/>
<path class="st3" d="M797.7,523.4c0.7,0.2,1.5,0.4,2.2,0.6c12.9,5.6,25.9,10.9,37.3,19.3c2.4,1.7,5.1,3.6,2.9,6.8
	c-2.2,3.2-4.9,1.1-7.2-0.7c-10.8-7.9-23-13-35.2-18.2c-2.3-1-4.6-2-3.8-5.2C794.3,524.3,795.9,523.2,797.7,523.4z"/>
<path class="st3" d="M744.4,608.5c3.1-0.1,4.1,1.4,4.7,3.2c2.5,6.9,5,13.9,8.5,20.5c1.2,2.3,0.9,4.3-1.5,5.5c-2.3,1.1-3.9,0-5-2
	c-4-7.2-6.7-14.9-9.2-22.7c-0.6-1.7,0.3-3.7,2-4.3C744.1,608.6,744.2,608.5,744.4,608.5z"/>
<path class="st3" d="M584,622.8c-19.8,0-34.8-13.6-35-30.4c-0.1-3.6-0.9-5.4-4-6.8c-2.3-1-5.3-2.4-3.4-5.8c1.6-2.9,4.1-1.8,6.2-0.4
	c2.7,2,3.7,0.5,4.9-1.8c2.8-5.1,6.6-9.7,11.2-13.3c4-3.3,9.8-1.7,13.7-5.2c0.6-0.5,1.6,0.7,2.4,1.5c1.3,1.3,3.4,2.9,4.7,2.1
	c5.1-3,9.3,0.9,13.8,1.1c3.9,0.2,5.9,1.8,7.9,4.3c8.7,10.6,10.8,22.4,5.3,34.9C605.9,616,595.4,622.1,584,622.8z M608.4,588.5
	c-0.3-4-1.4-7.9-3.4-11.4c-0.5-0.9-1.2-2.8-2.4-1.8c-3.2,2.7-7.4,1.4-10.7,3.5c-5.5,3.4-10.3,2.7-15.3-1.4
	c-8.7-7.1-11.7-6.9-16.5,0.1c-2.1,3-4.6,6,1.1,8.2c1.4,0.6,2.1,2.1,1.5,3.6c-0.4,1.6-1.5,2.7-3,2.4c-8.7-2-4.1,4.5-3.6,6.5
	c3.2,11.9,16.7,20.5,28.8,18.7C598.2,614.7,608.3,603.4,608.4,588.5L608.4,588.5z M572.6,566l-0.9,2.9c5.1-0.2,8.6,2.2,11.5,5.6
	c0.7,0.5,1.5,0.6,2.3,0.3c3.7-2.6,8-4.1,12.5-4.5C589.6,566.8,580.9,567.8,572.6,566L572.6,566z"/>
<path class="st1" d="M579.5,467.4c0.2-12.2,3.6-22.9,14.5-29.9c7.2-4.7,26.6-3.4,33.2,2.1c4.4,3.4,7.1,8.5,7.5,14
	c0.2,6.6,2.1,12.6,3.6,18.8c2.3,9.9-4.1,23.8-17.1,21.5c-2.2-0.3-4.5,0-6.4,1.1c-18.1,8.6-34.4-4-35.2-22.6
	C579.5,470.7,579.5,469,579.5,467.4z"/>
<path class="st0" d="M631,415.5c-4,0.3-6.7-1.5-7.2-5.5s1.4-6.8,5.4-7.4c5.9-0.8,8.6-4.8,10.3-9.7c1.5-4.5,4.1-7.1,8.9-5.5
	c5.2,1.7,5.2,5.8,3.8,10.3C648.7,407.8,639.6,415.6,631,415.5z"/>
<path class="st0" d="M701.4,356.4c-5,0.4-8.2-0.8-8.9-5.3s1.8-7.5,6.3-7.7c4.2-0.3,6.5-2.5,8.5-5.7c2.5-4,6.2-5.3,10.2-2.5
	c4,2.8,3.2,6.4,0.9,10.1C714.2,351.8,708.8,356.4,701.4,356.4z"/>
<path class="st3" d="M703.1,386.1c2.2-0.2,4.3,1.1,5,3.2c1,1.9,0.2,4.2-1.6,5.3c-6.4,3.9-11.4,9.4-16.8,14.5c-1.7,2-4.8,2.3-6.8,0.5
	c-0.1-0.1-0.1-0.1-0.2-0.2c-1.9-1.6-2.5-3.9-0.8-5.9c5.6-6.6,11.7-12.7,19.3-16.9C701.8,386.3,702.4,386.2,703.1,386.1z"/>
<path class="st3" d="M588.7,371.4c0.2,1.1-0.6,3.3-3.5,3.9c-2.9,0.7-4.5-1.4-5.3-3.8c-1.3-4.5-0.9-8.8,2.3-12.5s7.1-4.1,11.6-3.2
	c2.8,0.6,4.5,2,4.3,4.8c0,2.1-1.7,3.9-3.8,3.9c-0.4,0-0.8-0.1-1.2-0.2C588.1,363.4,587.4,365.8,588.7,371.4z"/>
<path class="st3" d="M670.7,287.5c1.2,0.2,2.4,0.5,3.5,1c1.8,0.6,2.9,2.5,2.4,4.3c-0.5,2.7-2.4,3.5-4.9,3.2c-4-0.5-6.9,0.1-6.5,5.2
	c0.2,2.5-1.1,4.3-3.8,4.4c-3.1,0.2-4.1-1.9-4.5-4.6C655.8,293.7,661.7,287.4,670.7,287.5z"/>
<path class="st8" d="M651,536.2c4.8,4.3,7,9.6,8.1,15.2c0.3,1.4,0.8,3.6-0.8,4.3c-1.9,0.9-3.4-0.9-4.5-2.2
	C649.6,548.6,649.7,542.7,651,536.2z"/>
<path class="st8" d="M662.2,529.4c5.7,0.7,10,1.5,13.3,4.6c1.6,1.5,2.8,3.9,1.2,5.9c-1.6,2-3.7,0.3-5.2-0.8
	C667.8,536.5,664.6,533.2,662.2,529.4z"/>
<path class="st8" d="M802.7,397.3c10.7-1.5,17.8,3.3,19.7,12.8c0.4,1.7,1.3,3.9-0.9,4.7c-2,0.8-3.3-0.9-4.2-2.5
	C813.8,406.3,809,401.7,802.7,397.3z"/>
<path class="st8" d="M794,407.7c4.7,5.1,8.7,10.2,14,14.1c1.1,0.8,2.3,2.1,1.2,3.5c-0.9,1.2-2.5,1-3.9,0.8
	c-4.8-0.6-9.9-5.9-10.8-11.5C794.2,412.5,794.2,410.1,794,407.7z"/>
<path class="st3" d="M335.9,633.8c-0.1,4.6-2.5,8.9-6.4,11.4c-4.5,3.3-7.9,7.5-13.8,9.5c-7.2,2.5-19.7,4.4-28.1,5.5
	c-13,1.6-16.9-7.9-24-14.8c-6.3-6.2-3.8-12.7-4.8-19.2c-0.2-1.5,0.8-3.6,1.9-4.9c1.9-2.3,4.2-4.1,4-7.6c0-0.8,0.8-2.3,1.5-2.4
	c5.9-1.1,9-7.8,15.4-7.6c1.4,0,2.7-0.7,3.6-1.8c3.6-3.4,7.7-3.4,12.3-1.7c5.7,2,12.2,0.7,17.7,3.8c1.4,0.8,3.1,0.8,4.5,1.6
	C324.3,608.4,336.3,627.4,335.9,633.8z M315.2,648.8c2.8-0.3,7.1,0.2,6.6-4.7c-0.4-3.9,0.9-4,3.9-3.6c3.3,0.4,4.6-2.1,5-4.8
	c0.3-2.2,1.2-4.9-2.7-5.4c-3.6-0.4-2.6-2.3-1.4-4.7c1.7-3.4,0.2-5.9-3.8-5.8c-3.3,0.1-5-0.4-2.9-3.9c1.5-2.4-0.3-3.7-1.7-5.1
	c-1.3-1.4-2.8-2.2-4.5-0.1c-1.7,2.1-3.3,1.3-4.1-0.8c-2.1-5.6-5.4-4.9-9-1.8c-2,1.8-3.8,2.2-4.5-0.5s-1.9-4-4.5-3.6
	c-2.3,0.2-4.1,2-4.3,4.3c-0.5,4.1-2.2,4.4-4.8,1.5c-2-2.2-3.6-1.9-3.6,1.2c0,4.5-2.3,4.2-5.6,3.3c-3.5-0.9-5.3,0.2-3.2,4
	c0.8,1.5,1.5,4.1,0,4.2c-6.5,0.3-7.4,2.9-4.5,8.2c0.3,0.5-0.8,1.7-1.2,2.6c-1.6,3.3,5.7,15,9.3,14.5c3.2-0.4,3.6,0.5,3.6,3.5
	c-0.1,3.8,3.9,5.9,6.2,3.4c2.3-2.5,3.5-1.8,5.8-0.1c3.1,2.1,6.7,3,8.8-1.7c1.4-3.3,2.9-1.9,5.1-0.7c2.7,1.5,6,3.4,7.1-2
	C310.9,647.6,312.8,648.2,315.2,648.8L315.2,648.8z"/>
<path class="st3" d="M461.8,766.8c0-3.1,1.5-4.8,5.2-4.2c0.9,0.1,1.8,1.3,1.5,1.5c-5.8,3.6,2,8.5-1.1,12.6c-0.3,0.4,3.2,4.3,5.4,6
	c0.8,0.7,3.1-0.1,2.3,2.1c-0.7,1.9-2.8,1.9-4.1,1.2c-3.3-1.8-5.8-4.7-7.2-8.2C462.4,774.5,462.4,770.7,461.8,766.8z"/>
<path class="st3" d="M477.1,769.1c0.4-1.1,0.6-2.2,0.7-3.3c-0.3-2.1-0.6-4.1,1.9-5c1.6-0.5,3.3,0,4.2,1.4c1.6,1.9,1.5,3.1-0.6,4.8
	c-1.4,1.2,1.1,3.9-0.4,5.8c0,0,0.6,1,1.1,1.1c1,0.2,2.1,0,2.3-1.2c0.3-1.4,0.5-3.2,2.4-1.9c1.2,0.8,1.6,2.5,0.7,3.8
	c-0.1,0.2-0.3,0.3-0.4,0.5c-2,2.4-4.8,3.5-7.4,1.5C479.3,774.7,477.6,772,477.1,769.1z"/>
<path class="st3" d="M398.5,736c0.3-2.8,2.1-4.3,5.6-3.5c0.8,0.2,1.8,1.2,1.4,1.5c-6.2,3.3,2.5,8.6-1.7,12.1c-0.7,0.6,0,2,0.6,1.8
	c4.3-0.9,2.6,6.4,7.1,5c0.1,0.5,0.4,1.1,0.3,1.6c-0.5,1.2-1.7,1.8-3,1.4c-4.6-0.5-6.3-4.8-8-7.8C399,745.1,399.2,740.5,398.5,736z"
	/>
<path class="st3" d="M436.2,737.5c0.3,1.9,0.4,3.6-0.6,5c-0.9,1.4-2.7,1.9-4.2,1.1c-1.7-0.8-1.3-1.8-0.6-3.4c1-2.1,2.1-4.8-1.3-6
	c-1.4-0.5-3.5,0-2.5-2.7c0.7-1.8,1.5-3.2,3.6-3.5s3.9,0.1,4.2,2.3C435.2,732.8,437,735.1,436.2,737.5z"/>
<path class="st3" d="M997.2,325.1c0.2-2.1,2-3.7,4.2-3.6c0.6,0,1.1,0.2,1.6,0.5c1,0.5,1.9,1.6,0.8,2.2c-6,3.6,3.2,8.8-1.4,12.4
	c3.6,0.1,3.3,4.5,5.7,5.3c1.4,0.5,2.9,0,2.3,2c-0.5,1.7-2.2,1.8-3.5,1.3c-4.2-1.5-6.5-5.1-8-8.9
	C997.7,333.4,997.9,329.9,997.2,325.1z"/>
<path class="st3" d="M1019.1,329.5c0.1,1.3-2.3,2.6,0,3.6c1.6,0.7,2.6-0.1,2.8-1.9c0.1-1.1,0.9-1.8,2.1-1.3c0.9,0.5,1.4,1.5,1.2,2.5
	c0,1.7-1.1,3.1-2.7,3.6c-1.9,0.8-3.9,1.1-5.7-0.2c-2.9-2.1-5.1-11.2-3.4-14.2c0.7-1.6,2.6-2.2,4.1-1.5c0.2,0.1,0.4,0.2,0.5,0.3
	c1.6,1,3.6,2.8,1.8,4.8C1018.5,326.8,1017.8,327.8,1019.1,329.5z"/>
<path class="st3" d="M937.1,296.2c3.3,0.7,3.2,2.7,2.3,5.6c-1.1,3.7,3.2,5.7,3.8,9c0.2,0.5,0.6,1,1.1,1.2c1.1,0.4,3-1.1,3.3,1.2
	c0.1,0.5-0.8,1.5-1.4,1.7c-1.7,0.7-3.7,0.4-5-0.9c-5.6-5-6.4-11.8-7.2-18.6c0-0.2,0-0.4,0.1-0.6c0.2-1.9,1.8-3.3,3.7-3.3
	c1.2,0,2.8,0,3,1.4C941.3,295.7,937.6,293.6,937.1,296.2z"/>
<path class="st3" d="M971.8,296.8c0.1,1.8,0.3,3.2-0.5,4.5c-0.7,1.5-2.4,2.3-4,1.7c-2.3-0.7-1.3-2.1-1-3.8c0.3-1.7,3.9-4.4-1.2-5.1
	c-1-0.1-3.5-0.6-2.8-3c0.5-2,1.6-3.6,4-3.9c2-0.2,4.1,0.4,4.2,2.4C970.6,292.3,972.9,294.5,971.8,296.8z"/>
<path class="st3" d="M391.2,812.6c-3.6-0.1-7.5-1-9,3.9c-0.6,1.1-1.8,1.8-3,1.6c-0.7,0-10.1-8.9-9.9-9.6c0.7-2.6,0.7-5.3,0.2-8
	c-0.7-4.2,3.7-3.2,6-4.3c2.8-1.3,1.9,0.9,2.7,2.3c1,1.8,2,3.8,3.2,5.6c0.8,1.3,2,2.2,0.2,3.3c-1.2,0.7-3,1-3.6-0.8
	c-0.7-2.1-3.1-3.4-2.4-5.9l0.8-0.8L375,800c-2.2,2.6-1.9,8.2,0.6,8.9s2.7,3.1,4.1,4.8c1.2-2.3,2.7-4.1,5.6-3.8
	c1.2,0.1,2.6-0.2,1.8-2c-0.5-1.2-1.7-2.8,0.5-3.2c1.8-0.3,2.3,1.8,3.2,3.1C391.8,809.3,389.4,811.2,391.2,812.6L391.2,812.6z"/>
<path class="st3" d="M911.7,359.7c-1.4-0.5-3.8-1.2-2.9,1.2c1,2.7-2.7,7.8,3.9,8.1c1.9,0.1,0.9,3.1,1.8,4.8c1.7-2.1,2.7-5.2,6.3-4.7
	c0.8,0.1,1.5-0.4,1.7-1.2c0.4-1.2-2.3-3.3,1-3.5c1.3-0.1,2,1.2,2.4,2.4c0.5,1.6,0.7,3.9-0.9,4.3c-3.6,0.7-6.8,2.8-8.7,5.9
	c-0.3,0.4-1.4,0.7-1.6,0.5c-3.4-3.2-7.3-6.1-9.8-10c-0.9-1.4,1.1-4.9-0.1-7.7c-0.6-1.4,0.9-3.4,2.6-3.4c2.2,0,4.1-2.5,6.2-1
	c1.1,0.8-0.5,2.1-0.8,3.2l0.1-0.1c-0.6,0.3-1.8,0-1.3,1.3L911.7,359.7z"/>
<path class="st3" d="M912.8,358.5c3.9,0.2,3.7,4,4.8,6.2c1,2-2.2,2.8-2.8,1.9c-1.4-2.1-5.5-3.2-3.1-7l-0.1,0.1
	c0.6-0.3,1.5-0.3,1.3-1.3L912.8,358.5z"/>
<path class="st3" d="M424.4,827.5c-0.2,3.1-0.3,6.3-5.6,6.7c3,1.6,5.3,2.4,5.2,5.3c0,1,0.2,2,1.5,2.1c1.4,0.1,3.2-2.3,3.6,0.7
	c0.3,1.6-1.2,2.4-2.6,2.9c-1.6,0.6-3.8,0.8-4.3-0.8c-1.2-3.6-3.1-6.5-6.5-8.3c-0.2-0.1-0.3-0.7-0.3-1.1c-0.5-2.7,8.2-11.3,11-10.9
	c1,0.1,2.2,0.8,2.8,0.4c6.6-3.9,6.4,2.4,8.4,5.4c0.5,0.7,0.6,1.5-0.2,2c-0.8,0.6-1.9,0.6-2.1-0.1
	C433.4,825.8,428.2,828.9,424.4,827.5z"/>
<path class="st3" d="M487.3,836.7c2.1,0.7,3.5,2.2,2.9,3.2c-1.3,2.1-3.1,3.9-5.2,5.2c-0.8,0.5-2.6-1.6-2-2.8
	C484.3,840.3,485.7,838.4,487.3,836.7z"/>
<path class="st3" d="M955.3,394.1c2.2,0.8,3.6,1.8,4.1,3.8c0.5,2,0.3,4.5,3.4,2.2c0.5-0.4,1.3-0.3,1.7,0.2c0.1,0.1,0.2,0.3,0.2,0.5
	c0.4,1,0.1,2.1-0.8,2.7c-1.4,1.2-3.6,2.5-4.8,1.2c-3.1-3.4-5.8-7.1-8.2-11c-0.7-1.2,0.7-3,2.4-3.6c0.9-0.3,2.7-0.6,2.6-0.8
	c-0.4-9.7,7.9-4.1,11.6-6.4c1.4-0.9,3.2,0.4,3.8,2.1c0.7,2,2.1,4.5,1.4,6c-0.9,1.9-2.4,0.2-3.5-1.1c-0.8-1-0.8-4.5-2.3-2.8
	c-2.2,2.4-7.9-3.3-7.4,3.6C959.6,392.6,956.8,392.6,955.3,394.1z"/>
<path class="st3" d="M1026.3,400.1c-3,0-2.9,4.1-5.7,4.3c-1.2,0-2.1-0.9-2.1-2.1c0-0.3,0.1-0.6,0.2-0.9c1.1-2,2.1-4.6,4.5-5
	C1024.9,396,1025.5,398,1026.3,400.1z"/>
<path class="st9" d="M375,800l1.4-0.3l-0.8,0.8C375.4,800.4,375.2,800.2,375,800z"/>
<path class="st9" d="M912.9,358.5c0.2,1.1-0.7,1.1-1.3,1.3C911.1,358.5,912.3,358.7,912.9,358.5z"/>
<path class="st3" d="M290.2,624.5c0,1.8-1.1,2.4-2.6,2.6c-1.1,0.3-2.2-0.4-2.5-1.5c0-0.1,0-0.2-0.1-0.3c-0.2-1.9,1.2-2.4,2.6-2.6
	c1.1-0.3,2.2,0.4,2.5,1.5C290.1,624.2,290.2,624.3,290.2,624.5z"/>
<path class="st3" d="M286,638.3c-1.6-0.2-2.4-0.9-2.4-2.3c0-1.7,1.1-2.5,2.5-2.8c1-0.3,2.1,0.3,2.4,1.3c0.1,0.2,0.1,0.4,0.1,0.5
	C288.8,637,287.1,637.6,286,638.3z"/>
<path class="st3" d="M302.6,626.6c-1.6,0-2.7-0.7-2.8-2.3c-0.1-1.3,0.9-2.1,2.2-2.3c1.2-0.3,2.4,0.4,2.7,1.6
	c0.1,0.2,0.1,0.5,0.1,0.7c0.2,1.1-0.6,2.1-1.7,2.2C302.9,626.6,302.7,626.6,302.6,626.6z"/>
<path class="st3" d="M301.9,636.3c0.3,1.2-0.5,2.4-1.8,2.7c0,0-0.1,0-0.2,0c-1.1,0.4-2.3-0.1-2.7-1.2c-0.1-0.3-0.1-0.6-0.1-0.9
	c0-1.4,1.1-2.1,2.3-2.3c1-0.3,2.1,0.3,2.4,1.4C301.9,636.1,301.9,636.2,301.9,636.3z"/>
</svg>
