<svg id="Layer_1" data-name="Layer 1" xmlns="http://www.w3.org/2000/svg" viewBox="0 0 643.16 609.53"><defs><style>.cls-1{fill:#010101;}.cls-12,.cls-14,.cls-2{fill:#fff;}.cls-2{stroke:#050505;stroke-width:6.64px;}.cls-14,.cls-2{stroke-miterlimit:10;}.cls-3{fill:#020202;}.cls-4{fill:#040404;}.cls-5{fill:#060606;}.cls-6{fill:#080808;}.cls-7{fill:#0c0c0c;}.cls-8{fill:#0a0a0a;}.cls-9{fill:#070707;}.cls-10{fill:#0d0d0d;}.cls-11{fill:#0b0b0b;}.cls-13{fill:#fefefe;}.cls-14{stroke:#1c1c1c;stroke-width:0.83px;}.cls-15{fill:#fdfdfd;}.cls-16{fill:#fafafa;}.cls-17{fill:#030303;}.cls-18{fill:#050505;}.cls-19{fill:#3e3e3e;}.cls-20{fill:#404040;}.cls-21{fill:#dedede;}.cls-22{fill:#090909;}.cls-23{fill:#0f0f0f;}.cls-24{fill:#dfdfdf;}.cls-25{fill:#111;}.cls-26{fill:#212121;}.cls-27{fill:#252525;}.cls-28{fill:#171717;}.cls-29{fill:#1c1c1c;}</style></defs><title>mim</title><g id="design-freepik"><path class="cls-1" d="M882.35,490.22c5.27,5.07,11.19,9.49,15.45,15.55.75,1.06,1.91.94,3,1.23a7.32,7.32,0,0,1,5.72,6.39c.46,3.23-.45,6.32-3.26,8-2.38,1.42-2.42,2.58-1.76,5.08,1,3.86.41,7.75-3.1,10.5-1.22,1-2.27,2-.65,3.31,9.46,7.37,9.62,17.37,8,27.86-1.71,10.78-4.35,21.5-5.09,32.34-1.25,18.18-11,31.42-22.89,43.76-29,30.06-56.56,61.46-84.19,92.79a280.76,280.76,0,0,1-39.41,36.72c-14.24,11-28.71,11.38-44,2.58a263.16,263.16,0,0,1-31.42-21.63c-38.48-30.29-77.09-60.4-112.66-94.19-36.6-34.77-73.78-68.92-111.88-102.05a212.92,212.92,0,0,1-26.25-27.66c-8.48-10.58-15.36-21.57-16.17-35.89-.74-13.07-3.5-26-4.23-39.14A32,32,0,0,1,414,434.11c5.55-7.51,12.61-13.55,19.34-19.91,9.57-9,17.58-19.52,27-28.71,2-1.91,1.54-4.65,1.89-7,2.52-16.91,7.9-32.74,17.26-47.14a107.63,107.63,0,0,1,30-30.6,7.21,7.21,0,0,0,3.57-5.52c1.2-8.84,8.34-12.45,16.08-8.07,2.35,1.33,4,.86,6.15.09,28.45-10.35,57.42-12.69,86.73-4.5,18,5,32.54,16.16,46.56,28,9.19,7.77,17.76,16.26,27.5,23.37a115.23,115.23,0,0,0,16.45,10.41c2.46,1.23,4.42,3.94,2.89,5.49-3.53,3.6,3,11.39-5.53,12.36-.41,0-.81.12-1.5.23,1.4,2.09,4,3.4,3.66,6.26s-2.17,4.31-5,4.61a82.79,82.79,0,0,0,22,25.16c8.94,6.71,17,14.48,26.35,20.79,6.33,4.28,10.93,10.89,17.47,15.13a6.42,6.42,0,0,1,4.88,1.61c5.12,4.22,10.28,8.39,15.21,12.81a21.45,21.45,0,0,0,12.26,5.3,139.08,139.08,0,0,1,35.64,9.36,168,168,0,0,1,36.18,20.27C879.33,485.51,882.38,486.66,882.35,490.22Z" transform="translate(-321.86 -202.04)"/><path class="cls-2" d="M456.5,706.93A69.37,69.37,0,0,1,469,705.27c1.64-.05,3.31,0,4.22-1.77,1.37-.69,2.67.56,4,.12,3-1.13,6.27.85,9.24-.75,3.82.51,7.85.29,9.82,4.91.84,2,4.32,1.21,5.22,4,.85-1.35,1.69-2.49,3.15-2.88,1.71-.45,2.83.53,4.07,1.47,3.16,2.38,6.31,2,9.64.07,3.55-2,5.31-1.27,6.27,2.23A66,66,0,0,1,537.28,722a31.81,31.81,0,0,0,11.87,6.64,37.61,37.61,0,0,1,6,2.84c4.2,2.22,6.4,5.74,6,10.5-.74,8.62,1,16.18,6.74,23.13,4.51,5.45,3.16,13-2,18.06-5.66,5.6-12.79,9-20.45,9.06-16.66.16-33.37,2.09-50-1.3-9.56-1.94-17.42-6.23-23.36-13.78-7.79-9.89-17.33-15.43-30.34-14.67-6.3.37-12.68.66-19-.81-20.4-4.72-22.46-25.29-10.72-38A35.08,35.08,0,0,1,422.33,716c1.66-.14,2.31,1.67,3.5,2,4.87,1.31,9.4,2.69,12.82,7,1.15,1.46,4.36.65,6.35-1.15s2.2-5.86,6.33-4.64c-.23-4,6.07-5,4.42-9.69A2.48,2.48,0,0,1,456.5,706.93Z" transform="translate(-321.86 -202.04)"/><path class="cls-2" d="M882.35,490.22c-10.87-8-21.87-15.85-34.19-21.62a136,136,0,0,0-46-12.56,12.23,12.23,0,0,1-7.42-3c-7.16-6.26-14.48-12.33-21.74-18.48a32,32,0,0,1,17.52-21.58,1.56,1.56,0,0,1,2.15.6c1.48,2.31,3.66,2.88,6.19,2.69s3.89.89,5.08,3a6,6,0,0,0,10.72,0c1-1.75,2.77-2.36,4-3.47,2.43-2.18,5.88-4.3,5.67-8.43-.06-1.2-.54-2.4.84-3.17,5.39-1.83,11-1.79,16.6-2,1.4-.3,2.59-1.16,4-1.52,2.83-1.2,5.88.47,8.71-.7,3.85.25,7.91-.15,9.93,4.44,1,2.31,5.29,1.59,5.11,5.38,2.49-4.5,3.73-5,7.34-2.45,3.38,2.37,6.6,2.12,10,.14,3.23-1.88,5-1.25,6.56,2.19,9.7,6.48,18.3,14.59,29.61,18.71,5.63,2.05,7.66,7.23,6.55,13.35s-.08,11.59,4.07,16.26c9.75,11,4.89,21.83-6.35,27.22-5.39,2.59-11,4.35-17.13,4.25C900.83,489.27,891.56,489.1,882.35,490.22Z" transform="translate(-321.86 -202.04)"/><path class="cls-2" d="M395.66,644.6c17.81.62,33.12,16.44,32.67,33.62a14.63,14.63,0,0,1-5.79,11.41,24.77,24.77,0,0,1-14,5.56,74.38,74.38,0,0,1-31.38-4.12c-10.3-3.75-16-12.49-15.24-23,.5-6.61,5-10.83,9.09-15.31.87-3,4.63-5.92,7.44-5.3a22.42,22.42,0,0,0,10.58,0c3-.75,4.33.93,4.64,3.72.39,3.53-.55,6.81-1.72,10.06,1.48-4,2.39-8,1.61-12.38C393.2,647.17,392.64,644.9,395.66,644.6Z" transform="translate(-321.86 -202.04)"/><path class="cls-1" d="M395.66,644.6c-1.14,1.25-.46,2.63-.24,3.94,1,6-.33,11.54-3.19,16.78-.76,1.38-1.51,3.51-3.61,2.46s-.74-2.85,0-4.23a22.9,22.9,0,0,0,3.09-12.31c-.08-1.74-.53-2.5-2.54-1.87-1.81.57-4,1.27-5.66.76-4.83-1.49-8.75.06-12.57,2.65-7.23.72-12.78-1.39-16.74-8.09-1.66-2.8-4.82-4.8-6-8.16-.42-1.15-1.5-1-2.46-1.07-1.22-.14-2.68-.07-3.61-.72-6.77-4.67-12.94-10-16.94-17.36a8.83,8.83,0,0,1,0-8.07c1.81-3.67,2-7.72,3.43-11.45.61-1.6.28-2.25-1.14-3.25-5.09-3.59-6-7.2-3.43-12.93a8.15,8.15,0,0,0,1-5.12c-1.2-6.32,2.36-10.3,8.91-11.25,5-.73,8.51-3.65,11.6-8.12a75.26,75.26,0,0,1,10-12.38,8.43,8.43,0,0,1,10.46-1,14.37,14.37,0,0,0,8.27,2.27,25.35,25.35,0,0,0,9.28-1.52c5-1.68,10.6-3.52,16.25-2.56,3.25.55,5.93,2,7.29,5.39.87,2.18,8,4.91,10.37,4.27,1.64-.45,3.73-1,4.83,0,3.34,3.08,7.54,2.32,11.35,3.27,4.1,1,6.83,3.6,7.11,8.08a3.78,3.78,0,0,0,1.57,3.14c3.19,2.43,4.08,5.76,3.43,9.61-.13.76-1,1.93-.16,2.25,4.51,1.7,4.77,6.84,8.07,9.59,5,4.14,4.94,10.61.34,15.25-.76.77-1.63,1.32-1.76,2.64-.63,6.62-5,9.87-10.89,11.47-1.67.45-2.79,1-3,2.77,0,.27-.17.53-.22.8-1.2,6.77-9.45,6.7-12,12.73-2.77,6.66-9.43,6.32-15.7,6.59-4.12.18-8.05,2.45-12.5,1.69C396.45,641.27,396.3,643.45,395.66,644.6Z" transform="translate(-321.86 -202.04)"/><path class="cls-1" d="M844.83,402.3c-1.16,2.37-2.16,1.6-3.1-.16,0-3.39-1.27-6.46-2.25-9.62a3,3,0,0,0-2.57-2.29,8.09,8.09,0,0,1-4.44-2.12c-1.31-1.33-2.52-1.48-4.37-1-4.06,1.09-7.84.45-9.8-3.87-.78-1.73-2.12-1.42-3.39-1.67-4.45-.88-6.45-3.36-5.95-7.89.16-1.42.05-2.33-1.06-3.2a4.77,4.77,0,0,1-1.23-1.65c-1.84-3.71,1.54-16,5.18-17.89,1.53-.81,1.71-1.74,2-3.15.78-3.72,2.84-6.25,7-6.39.14,0,.35.07.4,0,3.58-4,8.58-3.85,13.27-5,3.28-.77,6.17-1.84,8.68,1.06a3.18,3.18,0,0,0,4,1.09c.74-.26,1.93-.46,2.4-.07,4,3.3,10.42,3.16,13.19,6.59,3.24,4,9.13,5.6,10.35,11.5.33,1.59,2.32,2.69,4.64,1,3.11-2.28,6.52-2.29,9.22.94a2.52,2.52,0,0,0,3.23.84c1.2-.43,2.76-.75,3.61.06,3.42,3.31,7.88,4.14,12.1,5.63a3.57,3.57,0,0,1,2,2c.78,2.64,2.74,3.69,5,4.83,2.56,1.28,4.05,4.19,3.34,6.63-1.55,5.35,1.66,11.57-3.47,16.41-1.37,1.29-.56,5.2-2.84,6.49-4.59,2.6-9.36,4.86-13.78,7.78-.72.47-1.89.26-2.85.37a6.33,6.33,0,0,0-7.15.13,7.89,7.89,0,0,1-10-.77c-2.68-2.53-3.87-1.3-5.09,1.19-.6,1.23-1.25,2.45-1.92,3.64-.4.72-.9,1.53-1.89,1.13a1.35,1.35,0,0,1-.58-2.09c2.31-3.35.34-4.14-2.33-6.07-3-2.14-5.19-5.24-9.28-5.43-2.91.06-4.23-1.52-4.42-4.28a7.82,7.82,0,0,0-1.41-4.65c-.81-1-1.77-1.89-3.16-1.25-1.22.56-1.13,1.76-1,2.87C845.61,396.83,847.07,399.64,844.83,402.3Z" transform="translate(-321.86 -202.04)"/><path class="cls-1" d="M476.59,705.24c-2.07,2.24-2.07,2.24-3.4-1.74,0-2.54-1-4.84-1.7-7.22-.5-1.77-1.39-2.88-3.34-3.1a6.5,6.5,0,0,1-4-2.05c-1.36-1.46-2.67-1.28-4.43-.85-4.11,1-7.82.28-9.76-4-.8-1.75-2.18-1.37-3.44-1.62-4-.8-5.92-3.09-5.87-7.2,0-.41.27-1,.09-1.21-4-4.42-1.71-9.43-1.55-14.29.07-2-.06-4.69,1.48-5.32,5.65-2.29,4.13-10.78,10.43-11.85,2.54-.43,4.26-1.08,5.63-3.18.69-1.07,2.37-1.95,3.22-1.53,4.68,2.3,9-3.72,13.07-.82,2.77,2,6,1.46,8.21,2.65,4.44,2.37,10.59,2.89,13.28,6.32,3.19,4.08,9.11,5.62,10.33,11.5.36,1.75,2.39,2.54,4.65,1,3.15-2.16,6.54-2.29,9.24,1a2.51,2.51,0,0,0,3.23.86c1.19-.44,2.79-.75,3.6.06,3.39,3.39,8.47,3.35,11.93,5.83,3.19,2.29,5.44,6.1,9,8.34.31.2.47.67.66,1,1.78,3.42.64,15.86-1.75,18.89a5,5,0,0,0-1.44,2.36c-1,5.65-2.74,7.31-8.11,8.23-.95.16-2,0-2.5,1.07-1.81,3.65-5.12,4.3-8.72,4.38a5.11,5.11,0,0,0-6.32-.07c-3.35,2.1-7.28,2.26-10.38-.6-2.76-2.54-3.91-1.24-5.1,1.29-.59,1.24-1.26,2.45-2,3.63-.42.7-.93,1.49-1.94,1a1.32,1.32,0,0,1-.51-2.1c2.28-3,1.49-4.78-2.11-5.58a2,2,0,0,1-1.27-1c-1.34-3.75-4.67-4.07-7.84-4.69-3.31-.17-4.94-2-5.2-5.23a7.5,7.5,0,0,0-.22-1.63c-.59-1.88-1.35-4.21-3.67-3.61s-1.09,2.95-.89,4.6C477.47,701,479,703.27,476.59,705.24Z" transform="translate(-321.86 -202.04)"/><path class="cls-1" d="M805.88,256.55c4.88-2.82,9.71-5.72,14.65-8.43,4.48-2.46,9-4.77,13.61-7.06,2.73-1.37,5.34-1.13,6.57,1.95,1.1,2.76-.27,4.63-3,5.83-9.92,4.3-18.84,10.46-28.32,15.57-1.95,1-3.9,2.09-5.89,3-2.15,1-4.44,2-6.63.28s-1.61-4-1.2-6.14q3-15.68,6-31.35c1-5.26,2.06-10.5,3.28-16.7-6.86,3.63-12.9,6.86-19,10a42.91,42.91,0,0,1-5.65,2.57c-2.19.76-4.24.23-5.27-2s-.46-4.49,1.89-5.62c10.21-4.92,19.84-11,30.27-15.44,2-.87,4.16-1.78,6.25-.08s1.63,3.82,1.18,6.08c-3,14.9-5.94,29.81-8.9,44.71A3.24,3.24,0,0,0,805.88,256.55Z" transform="translate(-321.86 -202.04)"/><path class="cls-1" d="M728.07,274.58c-1.6-.21-2.84-.72-3.3-2.27s-.34-3.22,1.12-4.1c4.49-2.7,9-5.43,13.69-7.74,2.64-1.29,4.64.52,5.11,4.08a116.89,116.89,0,0,1,.65,17.8c-.05,2.59.56,3.32,3,1.79,3.62-2.28,7.34-4.4,11.07-6.51,2.19-1.24,4.56-1.93,6.09.82s-.35,4.33-2.54,5.6c-5.62,3.25-11.21,6.55-16.86,9.74-4.54,2.56-6.53,1.54-7.4-3.47-1-5.63-.7-11.31-.6-17,.06-3.39-1-3.43-3.48-1.89C732.53,272.74,730.54,274.36,728.07,274.58Z" transform="translate(-321.86 -202.04)"/><path class="cls-3" d="M825.13,404.15c1.58,3.32,1.66,6.57-1.49,8.9-2.27,1.68-2.71,3-.73,5.13.76.82,1.94,2.16.48,3.17s-2.13-.72-2.69-1.65c-1.74-2.91-2.86-2.92-4.6.19-3.38,6-10.37,6.2-13.8.39-1.09-1.85-2.27-2.54-4.26-2.35-3.84.35-6.26-1.48-7.57-5a4.18,4.18,0,0,1,.06-1.23c1.43-4,2.09-7.94.57-12.07a4.66,4.66,0,0,1,.16-2c.67-4.73,6.27-3.59,8.27-7s5.52-3.48,10.2-1a6.57,6.57,0,0,0,2.25.85c6.22.62,6.84,1,8.14,7C820.81,400.51,822.93,402.29,825.13,404.15Z" transform="translate(-321.86 -202.04)"/><path class="cls-3" d="M456.5,706.93c2.26,3.58,2,7-1.46,9.46-2.14,1.54-2.18,2.7-.63,4.58.79,1,2.27,2.38.61,3.5-1.45,1-2.1-.82-2.68-1.77-1.58-2.57-2.6-3.05-4.38.07-3.6,6.34-10.27,6.46-14,.37a3.88,3.88,0,0,0-4-2.11c-3.75.23-6.41-1.26-7.57-5-.09-.26-.33-.58-.25-.76,2.09-4.78.79-9.76,1.08-14.66.16-2.7,10.31-9.73,13.17-9.54,4.18.27,7.84,2.65,12.07,3.13,1.94.22,2.85,2.86,3.16,5A10.8,10.8,0,0,0,456.5,706.93Z" transform="translate(-321.86 -202.04)"/><path class="cls-3" d="M708,304.94a61.63,61.63,0,0,1,5.45-3c1.67-.73,3.31-.48,4.19,1.42a2.76,2.76,0,0,1-1.42,3.85c-3.42,1.89-6.22,4.59-9.36,6.85-2.83,2-5.23.9-5.34-2.57s.13-7.18.3-10.77c.11-2.31.06-4.14-3-2.29-2,1.2-4.09,1.53-5.23-1-1.07-2.39.78-3.49,2.56-4.43,2.08-1.1,4.11-2.28,6.24-3.27,3.48-1.62,5.36-.6,5.56,3.2S708,300.53,708,304.94Z" transform="translate(-321.86 -202.04)"/><path class="cls-4" d="M727.54,288.1c-.79,2.52-2.39,4.47-5.4,4.41a3.09,3.09,0,0,1-3.18-3.86A5,5,0,0,1,724,284.2C726.36,284.09,727.41,285.66,727.54,288.1Z" transform="translate(-321.86 -202.04)"/><path class="cls-5" d="M773.88,252.1c-.11,2.55-1.38,4-3.88,3.85s-3.55-1.91-3.66-4.17c-.13-2.46,1.19-4,3.66-4C772.79,247.74,773.62,249.76,773.88,252.1Z" transform="translate(-321.86 -202.04)"/><path class="cls-6" d="M946.13,516.59c0-2.34-.31-4.19,1.7-4.48,2.33-.33,1.94,1.7,2.16,3.14.36,2.31.83,4.61,1.21,6.92a2.06,2.06,0,0,1-1.44,2.61c-1.34.36-2.12-.53-2.38-1.69C946.84,520.68,946.44,518.23,946.13,516.59Z" transform="translate(-321.86 -202.04)"/><path class="cls-7" d="M633.39,806.12c.19,1.16.06,2.32-1.29,2.63s-2.09-.59-2.39-1.75a31.38,31.38,0,0,1-1.28-8.58c0-1.39.66-2.52,2.18-2.46,1.3.06,1.71,1.14,1.84,2.36C632.73,800.92,633.08,803.52,633.39,806.12Z" transform="translate(-321.86 -202.04)"/><path class="cls-8" d="M342,723.27c-.09-2.72,0-4.47,2-4.51,1.82,0,1.84,1.64,2,3.05.27,2.33.65,4.64,1,7,.18,1.19,0,2.36-1.27,2.71-1.54.42-2.32-.68-2.61-2C342.61,727.07,342.23,724.62,342,723.27Z" transform="translate(-321.86 -202.04)"/><path class="cls-5" d="M342,471.86a1.56,1.56,0,0,1-1.45,1.76,1.93,1.93,0,0,1-2.35-1.78c-.49-2.71-.94-5.44-1.24-8.18-.15-1.33.37-2.54,2-2.57,1.41,0,1.81,1,1.95,2.18C341.25,465.87,341.61,468.47,342,471.86Z" transform="translate(-321.86 -202.04)"/><path class="cls-5" d="M426.66,331c.09-2.1-.5-4.19,1.91-4.35s1.92,2.11,2.17,3.59c.35,2,.67,4,.92,6.06.15,1.24.26,2.6-1.46,2.84s-2.14-1-2.41-2.22C427.33,334.75,427,332.6,426.66,331Z" transform="translate(-321.86 -202.04)"/><path class="cls-9" d="M875,744.94c.16,1.09.32,2.32-1.11,2.65s-2.36-.59-2.6-1.94c-.47-2.69-.87-5.4-1.16-8.11a2.07,2.07,0,0,1,2-2.56c1.28,0,1.82,1,1.95,2.22C874.36,739.79,874.69,742.36,875,744.94Z" transform="translate(-321.86 -202.04)"/><path class="cls-7" d="M959.92,522.74c1-1.79.07-6.15,3.44-5.48s.51,4.1.53,6.29c0,1.55-.44,3.24-2.53,2.84C959.65,526.05,959.72,524.49,959.92,522.74Z" transform="translate(-321.86 -202.04)"/><path class="cls-10" d="M642.41,806.76c.83-1.85-.09-6.16,3.29-5.56,3.59.63.6,4.07.58,6.23,0,1.38-.24,3.35-2.45,3C642,810.11,642.24,808.49,642.41,806.76Z" transform="translate(-321.86 -202.04)"/><path class="cls-7" d="M355.9,729.38c.76-2,.11-5.89,3.23-5.46,3.64.5.83,3.75.8,5.74,0,1.5-.07,3.72-2.42,3.5C355.37,732.95,356,731,355.9,729.38Z" transform="translate(-321.86 -202.04)"/><path class="cls-6" d="M440.6,337.09c.82-1.88-.06-5.84,3.24-5.34,3.74.57.65,3.76.71,5.73,0,1.48-.14,3.68-2.59,3.23C440.1,340.37,440.7,338.61,440.6,337.09Z" transform="translate(-321.86 -202.04)"/><path class="cls-5" d="M884,745.83c.64-2-.06-5.05,3.09-5.74a1.68,1.68,0,0,1,1.69,2.53c-1.22,2.18.62,6.1-3.27,6.6C883.65,749.45,884,747.45,884,745.83Z" transform="translate(-321.86 -202.04)"/><path class="cls-6" d="M354.37,466a4.59,4.59,0,0,1,1.12.79c.8,1-.79,7.87-1.92,8.32a1.92,1.92,0,0,1-1.56,0c-2-1.62-1-3.75-.63-5.63C351.7,468,351.81,466.07,354.37,466Z" transform="translate(-321.86 -202.04)"/><path class="cls-7" d="M936.33,525.11c0,1.53-.6,2.79-1.84,2.48-3.46-.86-2.36-4.5-3.58-6.75a1.6,1.6,0,0,1,1.73-2.18C936.12,519.52,935.27,523,936.33,525.11Z" transform="translate(-321.86 -202.04)"/><path class="cls-11" d="M860.21,747.73c0,1.64-.28,3.27-1.78,2.86-3.36-.91-2.33-4.47-3.39-6.79a1.5,1.5,0,0,1,1.76-2C860,742.6,859.42,745.75,860.21,747.73Z" transform="translate(-321.86 -202.04)"/><path class="cls-6" d="M618.54,808.64c0,1.55,0,3.23-1.67,2.88-3.59-.73-2.29-4.45-3.49-6.68a1.57,1.57,0,0,1,1.66-2.2C618.25,803.43,617.74,806.6,618.54,808.64Z" transform="translate(-321.86 -202.04)"/><path class="cls-6" d="M327.12,473.9c0,1.69-.56,3.22-1.94,2.69-3-1.17-2.35-4.55-3.22-7a1.48,1.48,0,0,1,1.91-1.88C326.89,468.79,326.39,471.85,327.12,473.9Z" transform="translate(-321.86 -202.04)"/><path class="cls-9" d="M332.06,731.37c.09,2-.39,3.45-1.89,2.92-3.13-1.11-2.39-4.48-3.25-6.88a1.55,1.55,0,0,1,1.88-2C331.79,726.5,331.26,729.62,332.06,731.37Z" transform="translate(-321.86 -202.04)"/><path class="cls-6" d="M416.77,339c.09,1.94-.38,3.53-1.8,3.1-3.24-1-2.32-4.5-3.34-6.84a1.47,1.47,0,0,1,1.79-2C416.71,334.07,415.8,337.36,416.77,339Z" transform="translate(-321.86 -202.04)"/><path class="cls-12" d="M656.1,584.34c.45-5.79,1-12.68,1.49-19.57.2-2.8,1-4,4.1-2.7a29,29,0,0,0,15.9,1.7,23.25,23.25,0,0,0,18.65-15.35c3.15-8.24,7.07-15.8,13.29-22.2,3.26-3.35,4.13-7.66,2.55-12.35-1.19-3.54.55-5.36,4.36-4.73a16.19,16.19,0,0,0,11.13-2.2c5.74-3.32,11.66-6.33,17.38-9.67,10.64-6.22,15.92-15.88,17-27.88.28-3.17,1.26-4,4.34-4.33,22.56-2.73,44.73-1.71,66.28,6.12,20.74,7.54,38.63,19.61,54.48,34.81,3.28,3.15,3.2,3.34-1,5.17-10,4.4-19.66,9.5-29.4,14.44-34.83,17.69-60.85,45.16-83.75,76-20.94,28.16-36.94,59-48.82,92-4.33,12-6.41,12.91-17.59,6.67-14.2-7.93-23.55-20.38-30.72-34.51a177.12,177.12,0,0,1-19.27-74.9C656.45,589,656.29,587.24,656.1,584.34Z" transform="translate(-321.86 -202.04)"/><path class="cls-13" d="M460.2,397a169.91,169.91,0,0,0,2.14,37A119.8,119.8,0,0,0,474,468.84c11.29,21.83,25.62,41.62,40.57,61,4.84,6.27,8.07,6.22,15.64,3,2.79-1.19,6.24-3.14,10.05-2.18,2.79.7,5-.9,5.44-3.78.58-3.72,2-5.19,5.72-3.34a4.46,4.46,0,0,0,6.16-1.74c.89-1.42,1.59-1.88,3.26-1.49a95.54,95.54,0,0,0,48-1.11c1-.28,2-1,3.43-.36a32.28,32.28,0,0,0,.38,21.74c4.61,12.86,14.92,17.71,27.7,13.07,5.34-1.94,10.12,2.21,9.43,7.89-5.38,44.16,3.11,85.29,27.58,122.69a69,69,0,0,0,29.42,25.5c4.49,2,9.09,3.44,14,2a2.35,2.35,0,0,1,2.82.73c4,4.1,8,4.52,12.34.85a12.08,12.08,0,0,1,6.57-2.76,12,12,0,0,0,9.73-6.92,14.56,14.56,0,0,1,6.23-7.22,3.48,3.48,0,0,0,1.24-1.09q5.8-9.27,11.53-18.58c.07-.11,0-.35.07-.4,6-3.73,8.22-10.6,12.91-15.34,2.61-2.63,5.39-4.85,5.25-8.87-.07-1.9,1-2.17,2.4-2.64a12.72,12.72,0,0,0,9-9.5c.22-.9,0-2.07,1.09-2.54,4.6-2,7.34-6.38,12.11-8.38,5.73-2.41,9.37-7.67,12.68-12.8,1.92-3,4.65-5.55,5.32-9.28.2-1.12,1.58-1.12,2.09-1.84,4.71-6.63,11.51-11.51,15.59-18.63a4.6,4.6,0,0,1,2.13-2.3c.87-.38,2-.88,2.34-1.63,3.26-7.37,12-9.76,15.28-17.08.62-1.39,1.93-1.44,3-1.9,3.15-1.32,5.92-3.08,7.29-6.37a3.51,3.51,0,0,1,1.85-2,12.75,12.75,0,0,0,6.3-6.84c1.34-3,3.79-3.38,6.1-1.11,4.4,4.33,6.14,9.07,3.78,15.34-4.26,11.33-12.13,20-20,28.76-32.15,36-65.6,70.84-96.57,107.92-9.12,10.92-19,21.29-30.3,30a63.39,63.39,0,0,1-7,4.49c-4.89,2.84-9.8,2.92-15,.53-15.65-7.12-29.1-17.49-42.44-28.08C632.23,663.12,580.1,617.45,528.85,570.8c-23.11-21-45-43.38-67.49-65.12-11.33-11-23-21.55-33.76-33.11a87.75,87.75,0,0,1-9.9-12.24c-3.62-5.66-3.7-11.33-.44-17.23,3.41-6.16,8.13-11.22,13.28-15.82,9.63-8.59,18.27-18.09,26.84-27.68C458,398.92,458.72,398.34,460.2,397Z" transform="translate(-321.86 -202.04)"/><path class="cls-12" d="M711.34,403.86c1.8,12.56-2.35,23.74-8.19,34.45-8.35,15.34-20.4,27.45-34,38.16-20.86,16.47-43.62,29.13-69.84,34.9-10.7,2.36-21.4,1.87-32.53.41,1-2.15,2.13-4,1.55-6.45,3.6.87,6.52.6,7.67-3.13s-.43-6.33-4.39-8.15a60.82,60.82,0,0,1-33-36.54c-4.93-14.52-1.48-29,7.05-41.91,1.9-2.88,4.13-5.54,6.17-8.33,6.7-9.18,6.5-10.63-2.6-17.23,3.5-1,6.6.35,9.7.66s5.23-.55,6.66-3.54c2.72-5.67,6.9-10.32,11.19-14.85,3.88-4.09,4-5.16,1-10-.85-1.39-1.55-2.87-2.31-4.3,1.12-.75,1.79,0,2.46.35,5.68,2.62,6.51,2.4,10-3,2.21-3.42,5.4-5.9,8.34-8.61a71.69,71.69,0,0,0,5.31-5.23c5.41-6.15,5.68-9,1.63-16.13a5.32,5.32,0,0,1,3.68,1.6c3.67,3.34,7.08,2.4,10.31-.52,5.43-4.91,10.8-9.9,16.15-14.89,2.22-2.07,2.84-4.95,3.35-7.64,12.11,3.47,18.92,12.62,25.38,22.17,3.65,5.4,6.28,11.35,9.23,17.13,6.15,12,14.42,22.55,23.55,32.44.4,2.26-1.32,2.42-2.78,2.7-5.82,1.13-8.44,5.21-9.86,10.47-1.68,6.25-1.18,12.09,3.5,17a8.79,8.79,0,0,0,8.83,2.31c5-1.33,10.52-1,14.92-4.39A1.63,1.63,0,0,1,711.34,403.86Z" transform="translate(-321.86 -202.04)"/><path class="cls-13" d="M416.38,472.9c19.31,19.73,39.7,37.62,58.8,56.84,39.92,40.17,82.41,77.49,125.24,114.49,30.79,26.59,61.79,52.9,94,77.73,10.67,8.22,22,15.36,34.53,20.39a2.66,2.66,0,0,1,2,3c-.34,8.84-.64,17.69-.85,26.54-.06,2.83-1.18,3.49-3.84,2.83-8.35-2.08-15.57-6.39-22.53-11.19-27.14-18.71-52.31-40-78-60.6-35-28.1-67-59.54-99.66-90.18-22.41-21-46-40.63-68.62-61.44-11.72-10.8-22.55-22.43-31.41-35.78-2.94-4.43-5.18-8.89-5.74-14.39C419.42,491.7,417.75,482.31,416.38,472.9Z" transform="translate(-321.86 -202.04)"/><path class="cls-13" d="M896.1,582c-1.4,7.7-3.21,14.3-3.7,21-1.19,16.46-11.79,27.31-22.18,38.15-27,28.17-53,57.19-78.53,86.68a284.15,284.15,0,0,1-40.5,38.57,48.28,48.28,0,0,1-12.73,7.47c0-9.6,0-19.1,0-28.6a1.76,1.76,0,0,1,1.57-2c11.61-3.05,19.9-11.07,28.14-19.08,16.2-15.74,30-33.6,45-50.42,24.09-27,48.66-53.67,73-80.49C889.31,589.87,892.32,586.33,896.1,582Z" transform="translate(-321.86 -202.04)"/><path class="cls-12" d="M648,503.17c6.2-4.11,11.84-7.82,17.44-11.59a4.17,4.17,0,0,1,4.32-.17c9.65,4.17,20.74-1.67,25.82-8.35,3.52-4.64,4.57-9.8,2.14-15.23-1.06-2.37-.91-4,.9-5.91,4.29-4.47,7.47-9.82,11.39-15.39.83,2.75,1.36,4.85,2.1,6.87a19.42,19.42,0,0,0,12.1,12.28c4.65,1.67,5.5,5.94,1.95,9.51a15.85,15.85,0,0,1-4.92,3,43.33,43.33,0,0,0-8.3,4.67c-6.73,5.05-8.54,11.07-5.67,18.91,1.2,3.28-.25,5.73-3.59,5.48-7.07-.54-12.69,2.42-17.54,7-3.9,3.72-7.55,7.71-11.12,11.75-2.35,2.66-4.27,2.56-6.35-.18a20.87,20.87,0,0,1-4.09-7.53c-1.58-6.12-5.82-10.24-11.45-12.93C651.64,504.74,650.12,504.11,648,503.17Z" transform="translate(-321.86 -202.04)"/><path class="cls-13" d="M757.53,655.35c-6.58,1.94-6.64,2.08-3.54,7.13-5.07,1-5,1-3,5.53.87,1.89-.36,2.29-1.79,1.87-1.61-.47-2.79-.09-3.5,1.31s.05,2.42,1.12,3.23c.86.65,1.38,1.42.92,2.47s-1.36,1.36-2.68,1.29c-3.39-.17-3.65,1.67-2.32,4.25,2.08,4,1.66,4.87-2.73,5.91-2.74.65-2.65,2.29-1.43,4.37,2.08,3.54,1.47,5.46-2.53,6.72-3.26,1-4.17,2.41-2,5.3,1.47,1.94.33,3.42-1.23,4.55s-3,2.14-4.85.6-.66-3.08.17-4.7c4.06-7.89,6.4-16.46,9.81-24.62,17.66-42.19,42-79.89,74.5-112.26a194.67,194.67,0,0,1,52-37.34c8.8-4.31,17.34-9.16,26.49-12.78a24.29,24.29,0,0,0,6.94-4.49c.7-.61,1.09-2.26,2.58-1.24a2.39,2.39,0,0,1,1,2.17,3,3,0,0,1-1.86,3,12.2,12.2,0,0,1-3.25.16c-1.83,0-3.23,1.06-2.71,2.78.79,2.58-.7,3.07-2.4,3.13-3.19.1-5,1.74-6.43,4.41s-3.29,3.13-5.76,1.36c-2.88-2.08-4.2-.76-4.85,2.21a18.58,18.58,0,0,1-1.34,3.9c-1.44,3.06-3.65,4.09-6.66,2-1.12-.77-2.17-1.26-3.41-.49a2.48,2.48,0,0,0-1,2.52c.25,4.25-3.49,6.59-7.37,4.65-3.38-1.7-4.21-1.29-4.41,2.61-.13,2.59-1.34,3.06-3.49,2.42-4.17-1.26-4.51-1-4.48,3,0,2.55.27,5.32-4,3.72-2-.74-2.79.84-3,2.83-.61,5.31-3,6.66-7.81,4.65a2.74,2.74,0,0,0-2.76.11,2.26,2.26,0,0,0-.77,3c2,4.18-1.11,4.64-3.72,4.6-2.93,0-3.92.81-3.91,3.76,0,3.61-2.06,5.6-5.8,5.33-2.85-.2-4.08,1.05-3,3.65.74,1.83.77,3.09-.8,4.34s-2.58.91-3.87-.48a2.26,2.26,0,0,0-3.36.15c-1,1.05-.65,2.22-.21,3.46.52,1.47,3.34,2.61,1.13,4.49-1.8,1.53-3.9,1.85-5.9-.21a2.09,2.09,0,0,0-3,.28c-1,1.07-.85,2.21-.17,3.41.43.77,1.56,1.55.61,2.52s-1.73.09-2.51-.5a2.27,2.27,0,0,0-3.35.23,2.63,2.63,0,0,0,0,3.44c.48.68,1,1.33,1.49,2,.63.84,1.85,1.63.84,2.82s-2,2-3.59,1.07c-1.33-.74-2.69-.9-3.73.41-.91,1.15-.54,2.35.32,3.4a2.28,2.28,0,0,1-3,3.37,2.33,2.33,0,0,0-3.3.72,2.54,2.54,0,0,0,.51,3.38c.7.72,1.34,1.54.58,2.53s-1.64.55-2.56.08a2.4,2.4,0,0,0-3.32.64c-1.06,1.45-.25,2.57.74,3.65.73.8,1.69,1.59.59,2.81a2.07,2.07,0,0,1-2.91.48c-1.29-.71-2.78-.76-3.65.72s-.18,2.66,1,3.61a1.84,1.84,0,0,1,.25,2.88c-.68.88-1.43,1.7-2.77,1.21-1.58-.58-3.4-1.27-4.43.61-1.11,2,.5,3,1.94,4.31,2.11,1.87.5,3.23-1.39,3.8C754.63,651.11,754.5,651.32,757.53,655.35Z" transform="translate(-321.86 -202.04)"/><path class="cls-12" d="M738.9,704.38c4.34-3,6.6-6.05,6.27-10.82-.09-1.33,2.82-2.82,2.8-4.22-.09-5.37,4-9,5.39-13.76.91-3,3-6.19,4.45-9.35,1.72-3.71,3-7.8,5.35-11,2.76-3.72,4-8.13,6.3-12,2.47-4.14,6.23-7.35,8-12.07,1-2.66,3.35-5.08,5-7.71,1.23-2,3.69-3.91,6.67-.75,2.72,2.89,6.32,4.9,10,6.64.76.37,2.25.38,1.78,1.74a2.51,2.51,0,0,1-2.08,1.08c-4.66-.38-5.07,1.65-3.83,5.57.89,2.84-2.71,6.12-6.22,6.25-5.8.2-6.64,1.13-5.41,6.62.8,3.59-1.07,5.51-4.08,5.81s-4.11,1.28-3.88,4.35a8.57,8.57,0,0,1-7.35,8.87c-2.36.39-3.51,1.5-2.92,3.94,1,3.93-1.1,6.06-4.45,7.18-1.83.61-3.11,1.44-2.69,3.46,1,4.8-1.93,7.45-5.51,9.06-2.7,1.21-4.17,2.35-4.54,5.49C747.46,702.61,744.09,704.68,738.9,704.38Z" transform="translate(-321.86 -202.04)"/><path class="cls-12" d="M618.85,529.56c0-10.92,9.61-19.57,20.46-19.08a23.25,23.25,0,0,1,12.49,3.86c5,3.45,6.73,8.64,4.14,14.13-4.55,9.67-12.24,15.8-22.58,18.45-4.25,1.09-7.54-.81-10.06-4.13A23.23,23.23,0,0,1,618.85,529.56Z" transform="translate(-321.86 -202.04)"/><path class="cls-12" d="M718.54,443.26c0-9.58,5.21-17.62,13-20.77,6.6-2.67,16.26,0,21.89,6,3.7,4,4.37,8,1.65,12.86a34.19,34.19,0,0,1-19.61,16.23c-7.88,2.59-13.94-.9-16.06-9A44.8,44.8,0,0,1,718.54,443.26Z" transform="translate(-321.86 -202.04)"/><path class="cls-14" d="M711.34,403.86c-2.13,3.29-5.34,4.56-9.08,4.93a26,26,0,0,0-4.44.84c-9.9,2.77-17-1.59-18.44-11.9a22.39,22.39,0,0,1,4.69-17.46c2.76-3.52,6.95-3.52,10.72-4.58a8.46,8.46,0,0,0,4.32,1c5.09.28,9,3,9.79,7.82C709.93,390.9,712.56,397.15,711.34,403.86Z" transform="translate(-321.86 -202.04)"/><path class="cls-12" d="M672,555.84c-6.92-.29-13-3.84-19.18-7.3-1-.59-1.47-1.24-.37-2.19a42.4,42.4,0,0,0,10.06-12c.87-1.65,1.71-.59,2.63,0,6.58,4.07,10.18,3.5,15.61-2.19,3.91-4.1,7.38-8.62,11.76-12.27a17.27,17.27,0,0,1,7.57-4.12c1.39-.28,2.85-.32,3.79.95s.33,2.63-.46,3.83a1.73,1.73,0,0,1-.24.34c-7.69,7-11.43,16.43-15.41,25.72C685,553.15,679.43,555.8,672,555.84Z" transform="translate(-321.86 -202.04)"/><path class="cls-12" d="M848.95,579.07c-1.39-7.94-4-10.54-11.83-11.91,1.56-2.59,2.65-5.48,6.19-6a1.43,1.43,0,0,0,1-.75c1.67-4.2,5.43-5.9,8.94-8.16,1.72-1.11,3-2.44,5.24-2.48,4.55-.08,6.6-5,10.38-5.89,4.55-1,7.62-3,9.17-7.28.61-1.69,1.84-1.3,3-1.22,3.53.25,6.25-1.09,7.86-4.25a4.29,4.29,0,0,1,4.25-2.65c.89,0,2.16-1.58,2.66.33.31,1.2.3,2.81-1.28,3-3.1.44-3.38,2.22-3.53,4.93-.18,3.06-2.88,4.25-5.65,4.48s-3.69,1.34-3.35,4c.4,3.18-1.63,4.57-4.36,4.61-3.11.05-4,1-3.72,4.26.26,3.07-2.55,4.19-5.06,3.8-3-.47-4,.54-4.45,3.24-.87,5-3.64,7.1-8.69,6.8-2.64-.16-3.76,1.41-3.05,3.62C853.83,575.27,851.72,576.92,848.95,579.07Z" transform="translate(-321.86 -202.04)"/><path class="cls-12" d="M752.38,457.6c4.57,12.3-1.74,27.66-13,33.13-5.45,2.65-10.67,5.81-15.91,8.87-3.13,1.83-6,2.33-8.34-1s-.48-6,2-8.29a31,31,0,0,1,8.59-4.93c7.31-3.18,11.44-8.48,11-16.75-.06-1.23-.49-2.56,1.21-3.05C743.34,464,747.9,460.94,752.38,457.6Z" transform="translate(-321.86 -202.04)"/><path class="cls-12" d="M824.47,604.93c-1.2,6.18-5.49,11.4-10.46,16.06-4.55,4.26-7.63,4.51-13.13,1.56-2.06-1.11-4-2.51-5.95-3.77-2.82-1.79-5.43-3.27-2-7.21,1.57-1.8,1.41-4.77,3.24-7.09s4.32-2.73,6.52-3.92c1.49-.8,2.6.58,3.64,1.36,1.27.95.11,2-.26,3a19.88,19.88,0,0,0-1.66,6.81c0,2.09.83,3.59,3,3.79s3.38-1.09,3.61-3.17c.5-4.64,2.87-8.3,6-11.56,1.29-1.35,2.83-2.37,4.8-1.45S824.47,602,824.47,604.93Z" transform="translate(-321.86 -202.04)"/><path class="cls-12" d="M502.07,325.76c9.93,0,13.6,4.17,12.38,13.46a25.32,25.32,0,0,1-2.06,7.58c-1.34,2.84-3.54,3.85-5.91,1.56-5-4.81-10.37-9.12-15.54-13.69-2.89-2.55-2.4-5,.92-7S499,325.67,502.07,325.76Z" transform="translate(-321.86 -202.04)"/><path class="cls-12" d="M519.47,301.71c.22-3.2-1.17-7.49,2.61-9.18s6.42,1.79,8.6,4.27c3.29,3.73,6.84,7.18,10.23,10.8,2.79,3,2.3,5.36-1.39,7.12a25,25,0,0,1-7.54,2.11c-.53.07-1.42.22-1.58,0C527.06,311.58,517.75,310.7,519.47,301.71Z" transform="translate(-321.86 -202.04)"/><path class="cls-12" d="M842,579.24c-.64,5.8-4.14,10.08-7.72,14.3-2.3,2.72-4.21,5-7.86.89-2.73-3.08-7.09-2.9-10.82-1-1.76.92-3,.95-4.4-.41-1.77-1.72.62-2.24.9-3.36a9.45,9.45,0,0,1,5.38-6.61c1.88-.93,2.79-3,3.38-5.05.38-1.28.85-2,2.29-1.37a1.69,1.69,0,0,1,.9,2.66A21.34,21.34,0,0,0,822,586c-.34,2.3.22,4.31,2.87,4.62,2.35.27,3.42-1.18,3.72-3.47a19.09,19.09,0,0,1,5.93-11.12c1.3-1.29,2.69-2.51,4.73-1.56A4.64,4.64,0,0,1,842,579.24Z" transform="translate(-321.86 -202.04)"/><path class="cls-15" d="M785.67,455.19c-8.06.65-15.12,1.3-22.2,1.74-2.65.16-4.53-5.49-2.91-8.44.86-1.57,1.84-3.07,2.58-4.69s1.23-3.34,2.05-5.6Z" transform="translate(-321.86 -202.04)"/><path class="cls-12" d="M691.23,470c3,8.48-7,17.33-17.2,15.63C679.72,480.2,685.85,475.84,691.23,470Z" transform="translate(-321.86 -202.04)"/><path class="cls-16" d="M720.76,419a70.62,70.62,0,0,0,.47-17.22L734.59,413A36,36,0,0,0,720.76,419Z" transform="translate(-321.86 -202.04)"/><path class="cls-12" d="M517.13,315.39c2.79.11,6.72,3.46,6.23,5.35s-1.47,4-3.81,4.39c-1.86.3-6.42-4-6.22-5.86A4,4,0,0,1,517.13,315.39Z" transform="translate(-321.86 -202.04)"/><path class="cls-1" d="M481.34,756.61c-.14-4.34-1.54-8-2.28-12.07-6.88,4.86-9.26,4.51-13.71-2.1-1.34-2-3.22-2.91-5.18-3.93-6-3.13-6.55-9.76-1-13.65,1.76-1.23,2.12-2.43,2-4.44-.3-6.53,3.81-9.43,9.9-7a4.73,4.73,0,0,0,4.2-.25c5.3-2.34,8.71-1,10.85,4.38a4,4,0,0,0,2.09,2.26,6.72,6.72,0,0,1,2.18,1.84c3.24,4.43-.62,17.31-5.89,19-2.65.83-3.08,1.9-2.49,4.43,1.28,5.51,2.71,11,3.14,16.68.44,5.84-.16,6.41-6.07,5.84-6.81-.66-11.12-5.05-11.81-11.77-.28-2.75.44-3.83,3.37-3.33C474.38,753.15,477.7,754.78,481.34,756.61Z" transform="translate(-321.86 -202.04)"/><path class="cls-3" d="M505.44,720.64c1.73.81,2.84-.23,4.18-1.43,4.16-3.76,7.91-3.4,11.71,1a4.34,4.34,0,0,0,2.31,1.48c4.55,1.28,6.19,3.63,5.51,8.13a6.25,6.25,0,0,0,.92,4.25c2.27,4.17,1,8.05-3.34,9.8-1.73.69-2.14,1.76-2.68,3.21-2.3,6.22-7.79,8.22-13.21,4.48-2.5-1.72-3.3-.79-4.19,1.3a22.26,22.26,0,0,0-2,7.58c0,.82-.06,1.84-1.16,1.87-1.37,0-1.37-1.16-1.4-2.09a17.41,17.41,0,0,1,2.19-8.76c1-2,1.3-2.95-1.45-3.57-7.14-1.63-9.15-7-4.85-12.92,1.37-1.89.64-3.29.1-5C496.33,724.4,499.55,720.24,505.44,720.64Z" transform="translate(-321.86 -202.04)"/><path class="cls-12" d="M476.59,705.24c-.76-3.07-1.56-6.13-2.28-9.2-.3-1.3-1.76-2.64.33-3.9,1.68-1,3.24-2.25,5.16-.8,2.3,1.74,4.93,3.22,4.21,7-.52,2.71,1.11,4.7,3.16,6.31C483.71,705.82,480.12,705,476.59,705.24Z" transform="translate(-321.86 -202.04)"/><path class="cls-4" d="M518.76,756.31c3.59,0,6.25.9,9,.51,1.23-.17,1.94,1,1.07,1.86-3,3-5,7.06-9.56,8.09a8.94,8.94,0,0,1-2.85.3c-2.81-.3-5.91-1-6.52-4-.64-3.25,2.27-4.73,4.84-5.8A19.86,19.86,0,0,1,518.76,756.31Z" transform="translate(-321.86 -202.04)"/><path class="cls-3" d="M849.67,454a7.84,7.84,0,0,0,.09-1.62c-.76-3.5-1.55-7-2.3-10.39-1-.48-1.38.16-1.9.57-4,3.24-7.67,3-10.56-1.22a18.69,18.69,0,0,0-7.33-6.37,7.46,7.46,0,0,1-.93-12.75,5.54,5.54,0,0,0,2.71-5.4c-.11-6,4.11-8.89,9.6-6.61a5.08,5.08,0,0,0,4.59-.12c5.3-2.39,8.52-1,10.7,4.48a3.49,3.49,0,0,0,1.82,2,7.67,7.67,0,0,1,2.5,2.08c3.16,4.32-.36,17.16-5.42,18.71-3.4,1-3.41,2.82-2.78,5.55a119.73,119.73,0,0,1,3.07,16.69c.34,3.93-.74,5.36-4.9,5-7.57-.57-12-4.38-13.12-11.86-.44-2.91.6-3.84,3.37-3.34A24,24,0,0,1,849.67,454Z" transform="translate(-321.86 -202.04)"/><path class="cls-3" d="M897.51,426.57c-.48,1.68.24,3.21,1.1,4.88a6.37,6.37,0,0,1-3.39,9.21,4.51,4.51,0,0,0-2.94,3.4c-1.92,5.89-7.77,8.07-12.89,4.53-3-2.05-3.69-.61-4.66,1.66a23.8,23.8,0,0,0-1.68,6.39c-.13,1,.12,2.65-1.43,2.51s-1.41-1.78-1.29-3a21.49,21.49,0,0,1,2.46-8.29c1-1.8.88-2.44-1.3-3-7.69-2-9.35-6.6-4.85-13.4,1-1.46.5-2.52.06-3.83-2.22-6.59.54-10.39,7.35-9.93a4.38,4.38,0,0,0,3.62-1.32c4.56-4.06,8.17-3.82,12,.75a4,4,0,0,0,2.26,1.51C896.33,419.81,897.71,421.81,897.51,426.57Z" transform="translate(-321.86 -202.04)"/><path class="cls-12" d="M844.83,402.3c-.88-3.44-1.76-6.88-2.62-10.32-.54-2.14,2-4.71,4.26-4.35,3,.49,6.11,4.11,5.85,7.19a7.51,7.51,0,0,0,2.79,6.54C851.79,402.86,848.24,401.73,844.83,402.3Z" transform="translate(-321.86 -202.04)"/><path class="cls-4" d="M884.94,464c-2.63-.24-6-.76-6.61-4-.73-3.75,2.65-5.07,5.52-6.17,4.07-1.55,8.21.4,12.33-.09,1.08-.13,1.37.72,1.11,1.68C896.47,458.5,888.8,464,884.94,464Z" transform="translate(-321.86 -202.04)"/><path class="cls-5" d="M403.31,664.76c-.15,1.93-4.86,6.27-6.56,6.13s-2.64-1.57-1.6-2.86a22.55,22.55,0,0,1,5.52-4.89C402.11,662.23,403.31,663.16,403.31,664.76Z" transform="translate(-321.86 -202.04)"/><path class="cls-6" d="M409.92,671.25c-.22,1.54-1.53,2.07-2.86,2.42-1.78.47-3.59,1.82-5.43.27a1.4,1.4,0,0,1,0-2.2,11.45,11.45,0,0,1,6.84-2.35C409.31,669.36,409.89,670.16,409.92,671.25Z" transform="translate(-321.86 -202.04)"/><path class="cls-12" d="M391.06,626.26c-.34-2.31-.7-4.61-1-6.92-.17-1.33-.54-2.59-2.13-2.45s-1.89,1.48-1.82,2.77a48.34,48.34,0,0,0,2.33,12.5c.4.84-.28,1.62-.15,2.41.28,1.75,1.62,3.66-.33,5.1s-4.35,1.37-6.71,1.48c-5.32.24-10.7-2.83-16,.33a2.13,2.13,0,0,1-2.39-.14c-4.31-4.24-10-7.44-11.08-14.2,1.24-5.08,5-8,9.08-10.71,1.14-.77,2.33-1.46,3.48-2.2s2.06-1.65,1.26-3-2.17-1-3.27-.38c-5.68,3.2-11,6.82-13.84,13-.86,1.55-2,1.68-3.42.73-1.83-1.25-3.69-2.64-4.61-4.6-1.65-3.53-3.26-6.92-6.9-8.91a2.59,2.59,0,0,1-1.07-3.28c1.5-3.62.89-7.58,2-11.24,3.55-2.72,7.52-2.07,11.48-1.42,1.48.25,3.32,1,3.85-1,.62-2.35-1.6-2.44-3.12-2.9-3.23-1-6.54-.59-9.84-.59-2.94-1.13-3.82-3.86-4.77-6.41a3.42,3.42,0,0,1,1.67-4.29c3.91-2.25,6.21-6.29,9.94-8.73,2.5-1.63,1.35-5.42,4-7,4.53.42,7.65,2.68,9.16,7,.45,1.3.91,3,2.68,2.4s1.45-2.42,1.05-3.87a13.11,13.11,0,0,0-4.57-6.68c-1.25-1.47-1.51-3.08-.06-4.44,3-2.75,6-5.34,10.58-4.45,2.17.42,4.33.94,6.52,1.23a4.73,4.73,0,0,1,4.37,3.64c.74,2.46,2.51,3.44,5.08,2.55a6.76,6.76,0,0,0,1.81-4.13c3.2-4.76,7.17-8,13.41-7,1.64.27,3.21.47,4.09,2.15a6.68,6.68,0,0,0,2.9,2.41c4.9,2.82,5.22,3.46,3.63,9.09,0,3.6,1.77,3.73,4.11,1.89a24.62,24.62,0,0,0,3.2-3.7,4.43,4.43,0,0,1,3.77-1.16c1.65.07,3.37.72,4.88.46,7.42-1.26,9.6,4.39,12.42,9.14,1.43,2.42-.16,4.11-2,5.57a33,33,0,0,0-16.86,6.2c-1.32,1-3.07,2.16-1.56,4,1.34,1.61,2.74.07,3.93-.76,5.38-3.77,11.26-5.72,17.89-5.11,2.82,4.06,4.19,8.94,7.37,12.79a2.79,2.79,0,0,1,.53,1.1c1.44,5.71-6.06,13.08-12,11.8-3.21-2.52-7-3.69-10.88-4.65-1.2-.3-2.65-.52-3.12,1.05-.53,1.77.81,2.37,2.21,2.8,4.83,1.48,10.05,2.42,11.82,8.28a9.53,9.53,0,0,1-8.31,6c-3.79.24-6.22,1.56-7.48,5.24a5.79,5.79,0,0,1-4.58,3.72c-3.45.79-7,1.08-10.4,2.22C398.38,632.77,394.29,630.2,391.06,626.26Z" transform="translate(-321.86 -202.04)"/><path class="cls-14" d="M391.06,626.26a3.84,3.84,0,0,1,3.77,1.15c2.68,2.52,6.11,2.38,8.92,1.3a21.12,21.12,0,0,1,7.71-1.9c3.41,0,5.26-1.73,6.06-4.95.44-1.79,1.42-3.87,3.43-3.57,5.3.81,8.74-3.32,13.26-4.43a9,9,0,0,1-7.57,11.39c-1.64.26-2.8.44-3.26,2.38-1.61,6.84-5.53,9.26-12.61,7.92-1.36-.26-2.53-.55-3.95.22-6.57,3.56-11.66,1.71-14.5-5.16A39.52,39.52,0,0,1,391.06,626.26Z" transform="translate(-321.86 -202.04)"/><path class="cls-14" d="M351.82,627.15c3.65,4,8.08,7.16,11.06,11.77.94,1.45,2.2.78,3.12-.2a4.56,4.56,0,0,1,5.31-1c3.82,1.39,7.88-.19,11.81,1.16,1.84.63,4.68.26,4-3.34-.27-1.33.75-2.3,1.38-3.35.73,1.33,1.35,2.72,2.19,4,3,4.43,1.73,7.92-3.5,9.63a12.73,12.73,0,0,1-7.72-.3,5.93,5.93,0,0,0-6.09,1.17,9.46,9.46,0,0,1-13.6-1.35c-1.85-2.38-3.89-4.57-5.73-6.9C351.47,635.2,350.23,631.35,351.82,627.15Z" transform="translate(-321.86 -202.04)"/><path class="cls-14" d="M434.17,606.39c5.81-1.11,7.61-6,10-10.45a1.62,1.62,0,0,0-.44-1.89c-2.49-2.62-3.69-6-5.56-9a3.28,3.28,0,0,1,.14-4.37c5.78.31,7.22,1.35,9.06,6.95.46,1.39,1.47,1.78,2.54,2.42,4.32,2.56,4.58,7.57.47,10.31-1.79,1.2-2.65,2.3-2.35,4.67.46,3.6-4.39,8.13-7.93,7.89-1.31-.09-1.85-1-2.48-1.9C436.48,609.45,435.31,607.93,434.17,606.39Z" transform="translate(-321.86 -202.04)"/><path class="cls-14" d="M334.56,596.57c2.18,3.35,1.71,6.9.45,10.32-.68,1.84-.45,2.87,1.32,3.56,2.55,1,3.7,3.06,4.61,5.49,1.38,3.68,3.58,6.7,7.59,7.93-.2.8-.36,1.62-.61,2.4-.56,1.72.26,4.21-2.24,4.86a5.39,5.39,0,0,1-5.74-2.52c-2.28-3.39-5.26-5.87-8.38-8.38a7.5,7.5,0,0,1-2.86-7.4c1.09-4.91,2.67-9.71,4.17-14.52C333.09,597.62,334,597.15,334.56,596.57Z" transform="translate(-321.86 -202.04)"/><path class="cls-14" d="M347.8,564.22a18,18,0,0,0,.16,3.69c.59,2.38,0,4-2.35,4.92-4.62,1.84-6.32,7.2-10.91,9.19-1.25.54-.63,2-.07,2.93a17.94,17.94,0,0,1,2.32,5.7c-2.85,1.71-5.74,2.17-8.37-.29s-1.68-5.25-.45-8a10.1,10.1,0,0,0,.9-6c-.69-4.18,1.33-6.88,5.46-6.82a9,9,0,0,0,7-2.78A8.3,8.3,0,0,1,347.8,564.22Z" transform="translate(-321.86 -202.04)"/><path class="cls-14" d="M382.62,561.65c-3,1.49-4.92.35-7-2.12-3-3.56-7.85-3.64-11.71-3.13-3.13.42-7.34,2-7.77,6.71a8.22,8.22,0,0,1-1.43-.83c-1.63-1.44-5-.9-5.34-3.26-.35-2.57,3-2.29,4.49-3.51,1.1-.87,1.13-2.13,1.4-3.33.67-3,2.4-4.89,5.52-5.39,2.89-.46,4.74.9,6,3.36.94,1.84,2.14,3.1,4.11,1.2,2.38-2.31,5-1.65,7.16-.14a5.58,5.58,0,0,1,2.34,6.55C379.6,560.07,379.76,561.56,382.62,561.65Z" transform="translate(-321.86 -202.04)"/><path class="cls-14" d="M408.46,564.19c-2-7.16-6.73-11.6-12.34-11.74a8.75,8.75,0,0,0-7.38,3,5.35,5.35,0,0,1-4.3,2.06c-.21-1.77-.39-3.55-.62-5.32-.47-3.59,1.38-5.43,4.77-4.29a4.49,4.49,0,0,0,4.84-.7c4.09-3.1,8.73-1.29,10,3.73.37,1.51.84,2.84,2.6,2.46,3-.64,4.74.69,5.85,3.26,1.29,3-.19,5-2.39,6.78Z" transform="translate(-321.86 -202.04)"/><path class="cls-14" d="M434.86,576.39c1.68-4.65-1.93-7.61-3.65-11.15-.67-1.38-2.38-1-3.72-1.18-3.92-.52-7.82-1.12-11.73-1.69.26-1.35.52-2.7.8-4.05a3.5,3.5,0,0,1,3-3,3.09,3.09,0,0,1,3.56,2.18c.92,2.44,2.36,2.43,4.57,1.66,5.5-1.93,8.45.29,8.44,6.3,0,2.23,1.65,2.6,3,3.48a4.94,4.94,0,0,1,2.44,5.27c-.33,1.88-1.66,2.36-3.35,2.3C437.06,576.43,436,576.41,434.86,576.39Z" transform="translate(-321.86 -202.04)"/><path class="cls-12" d="M865.46,399.57c.31-2-.62-3.08-3.53-1.64-1.91.95-3.77,1.13-5.24-.68s-.17-3,.89-4.37c1.45-1.82.94-3-1.28-3.57-1.21-.3-2.57-.46-2.77-2-.22-1.81,1-2.75,2.4-3.47,1.93-1,2.56-2.34.58-3.71-1.4-1-2-1.93-1.18-3.39a3,3,0,0,1,3.81-1.65c3.48,1,4.13-.39,2.7-3.32-.86-1.78-1.14-3.35.51-4.86,2-1.84,3.22-.1,4.6.92.8.59,1.6,1.21,2.62.64,1.2-.66,1.18-1.72.8-2.88-.54-1.63-.3-3.14,1.4-3.83s2.46.77,3.25,1.88c.63.88,1,2.07,2.43,1.92,1.68-.18,1.66-1.59,1.87-2.8.26-1.5.95-2.72,2.6-2.74,1.94,0,2.5,1.45,2.67,3.08.35,3.39,1.6,3.7,4.19,1.57,3.34-2.74,5.38-2.07,6,2,.42,2.82,1.35,3.55,3.67,1.75a4.08,4.08,0,0,1,5.33,0c1.69,1.2,1.4,2.67.74,4.4-.84,2.24.32,3.3,2.49,2.58s4.2-.9,5.15,1.63.41,4.53-2.29,5.82c-2,1-2.34,2.53,0,3.48,1.32.54,2.88.41,2.25,2.48-.51,1.67-1.42,3.11-3.37,3.16-1.34,0-3-.73-3.58,1s1,2.25,2.22,2.88,1.1,1.56.41,2.43c-1.26,1.59-2.78,2.81-5,1.95-.74-.29-1.28-1.08-2-1.42-2-.9-3,0-2.73,2s.37,3.71-1.74,4.53a5.21,5.21,0,0,1-5.77-1.18c-2-1.9-3.57-2.84-4.66.77-.57,1.89-2.31,2.21-4,2.32-2,.12-3.86-.69-4.33-2.52-1.13-4.38-2.89-3.28-5.36-1.16a4.64,4.64,0,0,1-5.44.58C865.29,403.26,864.89,402.07,865.46,399.57Z" transform="translate(-321.86 -202.04)"/><path class="cls-12" d="M826.89,344.69c-.33-1.61-.28-3.19,1.52-3.8s2.47.84,3.18,2,1.18,2.32,2.77,1.91c1.33-.34,1.45-1.53,1.56-2.64.16-1.71.83-3,2.76-2.92s2.34,1.57,2.48,3.23c.31,3.52,1.64,3.57,4.15,1.41,3.4-2.92,5.19-2.17,5.89,2.28.39,2.49,1.44,3.34,3.51,1.65,1.91-1.55,3.73-1.67,5.65-.29s1.24,2.88.62,4.74c-.8,2.4.8,3.05,2.78,2.19,2.89-1.26,5-.28,5.17,2.55a4.63,4.63,0,0,1-4.26,5.05c-4.49.34-6.85,2.64-7.32,6.89a2.85,2.85,0,0,1-2,2.64c-3.54,1.69-5.21,4.69-4.09,8.49a3.5,3.5,0,0,1-1.28,4c-1.45,1.29-2.45-.35-3.39-1.21-1.64-1.5-3.14-2.14-3.88.65s-2.74,3-4.82,2.88-3.77-1.06-4.2-3.3c-.56-3-1.84-3.09-3.87-1.21-1.71,1.59-3.66,2.53-6,1.69-1.89-.67-2.29-2.08-2-4,.44-2.61-.44-3.88-3.18-2.45-1.87,1-3.73,1.42-5.26-.4s-.42-3.25.86-4.7.83-2.81-1.07-3.4c-1.29-.4-2.94-.27-3.11-2.12s1.15-2.85,2.78-3.63c2-1,2.33-2.49.2-3.62-1.46-.78-2.38-1.44-1.38-3.1.83-1.38,1.91-2.5,3.69-1.95,3.86,1.2,4.85.14,2.92-3.48a3.52,3.52,0,0,1,.8-4.82c1.66-1.42,2.78-.15,4,.71,1,.7,1.85,1.87,3.26,1C827.55,346.93,827.13,345.77,826.89,344.69Z" transform="translate(-321.86 -202.04)"/><path class="cls-12" d="M502.13,668.69c-.48-1.81-.26-3.32,1.5-3.92s2.42.91,3.18,2c.62.93,1.13,2,2.48,1.82s1.55-1.45,1.75-2.52c.31-1.6.77-3.11,2.73-3,2.17.11,2.43,1.82,2.61,3.57.28,2.71,1.6,2.82,3.64,1.43,4.51-3.07,5-2.9,6.42,2.25.56,2.06,1.73,2.53,3.3,1.34,1.91-1.44,3.7-1.68,5.7-.35s1.34,2.85.77,4.71c-.74,2.4.75,3,2.79,2.26s3.85-.75,4.84,1.52.65,4.28-1.73,5.66c-2.69,1.56-3.38,3.08.39,4,1.31.32,1.43,1.14,1.24,2.16-.34,1.78-1.27,3.18-3.19,3.26-1.47.06-3.28-.78-3.78,1.32-.43,1.82,1.39,2,2.55,2.69s.78,1.68.13,2.45c-1.3,1.55-3.15,3.12-5,1.74-4.36-3.32-4.81-1.49-4.79,2.79,0,2.91-3.91,3.9-6.85,1.61-2.43-1.89-3.86-3.33-5.54.91-1.19,3-7.2,2.39-8.13-.86-1.18-4.15-2.64-3.27-5-1.23a4.75,4.75,0,0,1-5.4.9c-1.85-.91-1.81-2.48-1.63-4.25.22-2.27-.89-3.13-3-2.14-1.85.85-3.69,1.55-5.33-.21-1.85-2-.24-3.45.86-5.06s.43-2.62-1.28-3.11c-1.31-.37-3-.39-3.15-2.15s1-2.72,2.48-3.43c2.16-1,2.81-2.43.4-3.84-1.31-.77-1.94-1.58-1.24-3s1.93-2.52,3.67-2c3.94,1.16,4.69-.07,2.95-3.57a3.54,3.54,0,0,1,1-4.81c1.69-1.31,2.78.06,4,.91.89.63,1.72,1.54,3,.88S502.22,669.62,502.13,668.69Z" transform="translate(-321.86 -202.04)"/><path class="cls-12" d="M458.82,648.31c-.85-1.75-.68-3.45,1.14-4.23,2.14-.92,2.79,1.13,3.64,2.47.55.87,1.14,1.57,2.29,1.41s1.41-1.12,1.59-2.11c.3-1.65.55-3.58,2.74-3.53,2.37,0,2.62,2,2.81,3.87.24,2.36,1.3,2.86,3.32,1.47,5-3.48,5.31-3.39,6.7,2.28.46,1.89,1.6,2.39,3,1.27,2-1.62,3.81-2.12,6-.65s1.19,3.1.55,5,.95,2.83,2.68,2.1c2.68-1.12,5-.95,5.31,2.2a4.59,4.59,0,0,1-4.42,5.32c-4.29.35-6.56,2.74-7.07,6.74-.22,1.69-1,2.23-2.29,2.91-3,1.53-4.56,4.16-3.92,7.52.37,2,.45,3.73-1.21,4.81s-2.63-.76-3.72-1.66c-1.56-1.28-2.9-1.21-3.42.87-.65,2.62-2.55,3.16-4.71,3.07s-3.86-1-4.32-3.6-2-2.77-3.78-1a5.91,5.91,0,0,1-4,2c-2.57,0-4.89-.62-4.21-4,.75-3.81-.91-3.85-3.58-2.43-1.83,1-3.54.84-4.9-.68s-.4-3,.73-4.36c1.61-1.93,1.13-3.26-1.37-3.79-1.23-.26-2.57-.48-2.71-2.07a3.16,3.16,0,0,1,2.17-3.22c2.33-1,3.35-2.39.75-4-1.39-.86-1.8-1.68-1.23-2.95.66-1.48,1.9-2.63,3.61-2.11,4.72,1.43,4.5-.64,2.84-3.81-.93-1.78-.39-3.13,1-4.41,1.65-1.54,2.72-.25,3.92.65,1,.72,1.81,1.85,3.27,1.11C459.07,650.25,459.08,649.32,458.82,648.31Z" transform="translate(-321.86 -202.04)"/><path class="cls-12" d="M809.24,420.58a3.51,3.51,0,0,1-3.74-2c-1.32-3.07-3.58-4.12-6.88-4.13-4.14,0-5.28-1.91-3.38-5.57,1.24-2.38.89-4.39,0-6.69-1.53-4-.17-5.8,4-5.19,2,.29,2.88-.23,3-2.22.21-4,2.4-3.74,5.1-2.36.12.06.24.22.35.21,9.68-.36,9,9.77,14.1,14,1.66,1.39.48,3.29-1.07,4.09a17.84,17.84,0,0,0-8.34,8.27A3.31,3.31,0,0,1,809.24,420.58Z" transform="translate(-321.86 -202.04)"/><path class="cls-12" d="M431,700c2,.53,3-.18,3.11-2.17.28-3.94,2.38-2.57,5.14-2.48,9.54.3,9.29,9.76,14.21,14.26,1.8,1.65.26,3.7-1.64,4.66a17.06,17.06,0,0,0-7.24,7.13c-1.84,3.22-5.66,3.31-7.29.15s-4.07-4-7.39-4c-3.81-.07-5-2.21-3-5.46,1.59-2.55.78-4.63,0-7C425.64,701.27,427.09,699.64,431,700Z" transform="translate(-321.86 -202.04)"/><path class="cls-17" d="M776.8,488.86c-2.21,0-4.42,0-6.62,0-1.48,0-2.81-.46-3-2.23s1-2.52,2.54-2.64c11.53-.92,22.9-.17,34,3.54,1.47.49,2.54,1.44,2,3.06-.62,2-2.23,2.12-4,1.54A72.19,72.19,0,0,0,776.8,488.86Z" transform="translate(-321.86 -202.04)"/><path class="cls-3" d="M728.9,516.51a9.66,9.66,0,0,1,1.43.4c8.71,3.77,17.51,7.38,25.24,13,1.57,1.15,3.56,2.38,2.14,4.61-1.55,2.42-3.35.78-4.89-.35-7.4-5.41-15.8-8.89-24.13-12.51-1.55-.68-3.11-1.43-2.51-3.61C726.53,516.83,727.5,516.43,728.9,516.51Z" transform="translate(-321.86 -202.04)"/><path class="cls-17" d="M699.25,595.09c-1.8,0-2.53-1.15-3.17-2.41a109.89,109.89,0,0,1-5.57-13.83c-.58-1.69-.39-3.09,1.37-3.75,1.6-.6,2.65.32,3.21,1.79a152.72,152.72,0,0,0,6,14.54C702.05,593.31,701.16,594.61,699.25,595.09Z" transform="translate(-321.86 -202.04)"/><path class="cls-1" d="M602.53,560.49c.07,13.93-9.79,24-22.16,24.23s-22.69-9.35-22.78-21.47c0-2.67-1.36-3.21-3-4.15-1.43-.81-3.25-1.67-2.18-3.76s2.75-1.39,4.21-.37c1.79,1.25,2.59.4,3.43-1.21a29.21,29.21,0,0,1,7.73-9.11c2.78-2.27,6.7-1.32,9.51-3.51.16-.13,1.09.65,1.61,1.07,1,.81,2.5,1.92,3.31,1.35,4-2.8,7.19,1.4,10.84.9,1.1-.15,1.72.5,2.45,1.22C600.07,550.17,602.39,555.6,602.53,560.49Z" transform="translate(-321.86 -202.04)"/><path class="cls-14" d="M595.81,498.51c-9.21,0-15.74-5.62-17-14.59-1-7.08-.48-14.09,3.54-20.4,3.63-5.71,8.57-8.88,15.57-8.14,2.61.28,5.22.51,7.81.87,5.37.74,10,5.37,10.68,11.71.5,4.57,1.7,8.93,2.49,13.4,1.63,9.26-2.38,14.37-11.73,14.62C603,496.08,599.57,499.54,595.81,498.51Z" transform="translate(-321.86 -202.04)"/><path class="cls-3" d="M614.09,442.15c-2.48.21-4.5-.71-5-3.53s.71-4.8,3.43-5.24c4.17-.68,6.16-3.44,7.34-7,1.08-3.24,3.17-4.62,6.29-3.43s3.27,3.63,2.38,6.53C626.38,436.48,620.19,442.06,614.09,442.15Z" transform="translate(-321.86 -202.04)"/><path class="cls-3" d="M661.22,401.51c-2.68,0-4.58-1-4.89-3.88s1-4.73,3.78-5c3.1-.27,5-1.78,6.58-4.29s4.2-3.28,6.76-1.5,2.31,4.15.82,6.59C671.28,398.36,667.35,401.7,661.22,401.51Z" transform="translate(-321.86 -202.04)"/><path class="cls-17" d="M667.22,425.06a3.6,3.6,0,0,1-1.8,3.08c-4,2.35-7.11,5.7-10.32,8.93-1.76,1.77-3.7,2.74-5.73.69s-.74-3.81.83-5.39c3.5-3.54,6.92-7.2,11.34-9.64C664.31,421.2,667.06,422.42,667.22,425.06Z" transform="translate(-321.86 -202.04)"/><path class="cls-17" d="M578.49,409c0-5.83,5-9.55,10.41-7.76,1.68.56,2.62,1.6,2.39,3.34a2.58,2.58,0,0,1-3.21,2.43c-2.64-.44-4.16.19-3.54,3.17.45,2.2.14,4.07-2.41,4.28s-3.07-1.87-3.5-3.83A11.9,11.9,0,0,1,578.49,409Z" transform="translate(-321.86 -202.04)"/><path class="cls-18" d="M631.76,362.58a8.55,8.55,0,0,1,10.66-8.26c1.73.47,3.19,1.33,2.88,3.4-.27,1.85-1.67,2.38-3.4,2.19-2.49-.27-4.5.08-4.38,3.3.07,1.93-.73,3.36-2.81,3.28C632.09,366.39,631.91,364.29,631.76,362.58Z" transform="translate(-321.86 -202.04)"/><path class="cls-19" d="M626.13,526.23a17.21,17.21,0,0,1,5.52,10.49c.16.89.35,2-.76,2.54s-1.86-.25-2.51-.94C625.24,535,625.47,531,626.13,526.23Z" transform="translate(-321.86 -202.04)"/><path class="cls-20" d="M633.88,522.81c3.88-.24,6.76.71,9.08,3.06.88.89,1.47,2.22.62,3.4-1,1.39-2.26.54-3.28-.13A22.31,22.31,0,0,1,633.88,522.81Z" transform="translate(-321.86 -202.04)"/><path class="cls-19" d="M733.09,429.17c6.44-1.45,12.43,3.11,12.52,9.18,0,.82.11,1.75-.76,2.18-1.07.53-1.87-.18-2.47-.94-1.45-1.82-2.71-3.8-4.25-5.54S734.87,430.88,733.09,429.17Z" transform="translate(-321.86 -202.04)"/><path class="cls-19" d="M726.75,436.28c2.75,4.22,5.24,7.31,8.41,9.77.84.65,1.9,1.58,1.07,2.78-.72,1-2,.76-3.08.5C728.54,448.24,726,443.58,726.75,436.28Z" transform="translate(-321.86 -202.04)"/><path class="cls-21" d="M693.26,404c-3.78.52-3.78.52-6.76-3.07Z" transform="translate(-321.86 -202.04)"/><path class="cls-12" d="M482.16,720.26c-.65,2.18.35,2.72,2.27,2.87,3.72.29,4.37,1.59,2.8,5-.45,1-1.42,2.18-1.19,3,1.4,5.07-1.92,6.11-5.58,7.11-2.24.61-3.67,2.39-5.09,4.08-2.15,2.57-4.25,2.47-5.95-.32a16.7,16.7,0,0,0-7.55-6.75c-3.83-1.78-4-5.36-.37-7.6,2.76-1.71,3.47-3.87,3.29-6.93-.26-4.49,1.48-5.68,5.43-3.65,2.51,1.29,4.39.42,6.59-.61C480.58,714.71,482.56,716.24,482.16,720.26Z" transform="translate(-321.86 -202.04)"/><path class="cls-12" d="M479.1,765c-4.11-.33-7.91-3.58-8.59-7.27-.23-1.23-.39-2.4,1.44-2,3.86.89,7.45,2.27,9.1,6.34C482,764.48,481.55,765.15,479.1,765Z" transform="translate(-321.86 -202.04)"/><path class="cls-12" d="M506.24,724.46c2.46.81,4-.74,5.63-2.34,3.28-3.14,5.55-2.44,6.32,2,.38,2.17,1.5,2.5,3.2,1.84,3.83-1.51,4.45.65,4.13,3.63a8.71,8.71,0,0,0,1.31,6.26c1.63,2.42.55,4.37-2.2,4.87-2.46.45-3.34,1.58-3.76,4-.88,5.12-4.73,6.54-8.66,3.31a16.92,16.92,0,0,0-8.6-3.67c-4.15-.63-5.47-4-2.74-7.19A6.31,6.31,0,0,0,502,730C500.3,725.46,501.41,724.08,506.24,724.46Z" transform="translate(-321.86 -202.04)"/><path class="cls-12" d="M519.57,759.08c1.21.42,3.68-.45,3.36,1.27-.53,2.88-3.29,3.86-6.1,3.91-1.51,0-3.93-.3-3.62-1.85C513.85,759.26,517,759.45,519.57,759.08Z" transform="translate(-321.86 -202.04)"/><path class="cls-12" d="M833,418.38c-.24-5.18,1.26-6.33,5.7-4.24,2.34,1.1,4.16.36,6.23-.62,3.95-1.87,5.91-.41,5.37,3.95-.27,2.16.68,2.57,2.55,2.64,3.44.14,4.17,1.47,2.79,4.72-.38.88-1.31,1.83-1.16,2.59,1.12,5.6-2.47,7-6.72,8.22-1.88.53-3,2.33-4.28,3.79-2.07,2.43-4.1,2.2-5.67-.32a18,18,0,0,0-7.86-7c-3.46-1.65-3.53-5.35-.25-7.45C832.16,423,833.64,421.25,833,418.38Z" transform="translate(-321.86 -202.04)"/><path class="cls-12" d="M847.34,461.81c-4.23-.48-7.73-3.4-8.51-7-.31-1.41-.36-2.65,1.64-2.19,3.72.85,7,2.35,8.76,6.11C850.19,460.9,850.08,462.3,847.34,461.81Z" transform="translate(-321.86 -202.04)"/><path class="cls-12" d="M874.55,421.38c2.48.8,4-.78,5.64-2.37,3.25-3.11,5.55-2.42,6.39,2,.43,2.3,1.6,2.1,3.26,1.77,3.4-.69,4.74.45,4,3.78a6.8,6.8,0,0,0,1.07,5.82c1.79,2.6.92,4.6-2.1,5.2-2.47.49-3.33,1.74-3.74,4.14-.88,5-4.72,6.43-8.71,3.14a16.34,16.34,0,0,0-8.21-3.56c-4.53-.71-5.83-3.83-2.94-7.27,2-2.35,2.08-4.54,1-7.26C868.53,422.34,869.68,421,874.55,421.38Z" transform="translate(-321.86 -202.04)"/><path class="cls-12" d="M887.88,456c1.21.42,3.73-.43,3.38,1.18-.59,2.71-3.15,4-6.05,4-1.53,0-3.92-.34-3.65-1.84C882.15,456.11,885.35,456.37,887.88,456Z" transform="translate(-321.86 -202.04)"/><path class="cls-3" d="M411,592.23c-.13,3-.86,5.32-3,6.92-3.66,2.7-6.4,6.48-11.21,7.9-3.21.95-14.4,4.24-17.72,3.45-2.71-.65-5.59,1.5-8-.44-2.88-2.27-5.92-4.5-8.22-7.3-3.48-4.24-5.88-9.11-4.77-15,.1-.54-.09-1.28.21-1.61,3.21-3.55,3.1-9.09,8.79-11.57,3.38-1.48,7.37-2.57,10.46-5.12a4.61,4.61,0,0,1,3.48-1c6.07,1.54,12.69,1.1,18.27,4.18,4.41,2.44,7,7,8.94,11.44C409.24,586.75,411.49,589.33,411,592.23Z" transform="translate(-321.86 -202.04)"/><path class="cls-6" d="M869.54,387.15a37.47,37.47,0,0,0,4,4.4c.55.46,1.65.35,1.28,1.46-.32.92-1.26.91-2.1.89-2.4-.06-2.91-2.35-4.16-3.67-2.76-2.94-2.18-6.91-2.45-10.51a2.13,2.13,0,0,1,3-1.9c3.16,1.23-.41,1.81-.31,2.39.26,1.48,1.06,2.81,1,4.48C869.84,385.28,870.59,386,869.54,387.15Z" transform="translate(-321.86 -202.04)"/><path class="cls-8" d="M876.59,381.1a15,15,0,0,1,.51-3.54,1.93,1.93,0,0,1,2.81-.87c1.23.63,2.67,1.84,1.55,3.18s-.69,2.4-.74,3.67c0,.62-.72,1.32.16,1.75a1.17,1.17,0,0,0,1.69-.64c.41-.85.81-2.1,2-1a1.91,1.91,0,0,1-.28,2.92c-1.59,1.38-3.67,2-5.15.32S875.83,383.48,876.59,381.1Z" transform="translate(-321.86 -202.04)"/><path class="cls-22" d="M822.39,360c.12-2.06,1.08-3.32,3.41-2.89.43.08.78.64,1.16,1-3.55,2.39.8,5.12-.25,7.35-1.64,3.5,3.46,3,2.93,5.57.89,0,2.37-.37,1.82,1.21a2,2,0,0,1-3.19.7c-1.72-1.49-3.58-3.18-4.45-5.19C822.83,365.37,822.84,362.62,822.39,360Z" transform="translate(-321.86 -202.04)"/><path class="cls-11" d="M848.61,360.63a16.75,16.75,0,0,1-.58,2.84,2.09,2.09,0,0,1-2.68,1.32c-1.56-.44-1.19-1.41-.68-2.57.65-1.49,1.51-3.19-1.23-3.74-.87-.17-1.92-.65-1.53-2a3.1,3.1,0,0,1,2.45-2.48c1.34-.23,2.59.09,3,1.47C847.95,357.17,848.22,358.92,848.61,360.63Z" transform="translate(-321.86 -202.04)"/><path class="cls-18" d="M497.69,684.14c0-2.28.86-3.56,3.24-3.23.77.11,1.29.56,1,1.41-1.66,5-.39,9.07,4,12.39.48.37.9.76.65,1.33a1.79,1.79,0,0,1-2.48.86c-2.57-1-4.09-3.31-5.08-5.59S498.08,686.49,497.69,684.14Z" transform="translate(-321.86 -202.04)"/><path class="cls-11" d="M510.77,679.4c1.74.73,3.68,2,2.38,3.49s-.18,2.82-.69,4.1c-.2.51-.38,1.11.3,1.4a1.17,1.17,0,0,0,1.67-.68c.38-.87.66-2.13,1.91-.9a1.83,1.83,0,0,1-.1,2.63,3.81,3.81,0,0,1-4.46,1.26c-2.77-1-4.65-8.24-2.71-10.4A5.73,5.73,0,0,1,510.77,679.4Z" transform="translate(-321.86 -202.04)"/><path class="cls-11" d="M457.79,666.14c0,3.55,1.39,6.25,4.65,7.82.57.27,1,.56.82,1.18-.31,1.25-1.41,1.37-2.32,1.12-2.9-.78-4.34-3.32-5.43-5.67-1-2.16-1.14-4.77-1.38-7.21s1-3.63,3.54-3.23c.74.12,1.41,1.22,1.09,1.27C454.13,662.19,459.81,665,457.79,666.14Z" transform="translate(-321.86 -202.04)"/><path class="cls-23" d="M480,663.77a3.93,3.93,0,0,1-.63,3.4,2.12,2.12,0,0,1-2.62.6c-1.18-.52-1.08-1.31-.49-2.33,1.19-2.06,1.36-3.81-1.69-4.27-1.09-.17-1.22-.89-.88-1.83a3,3,0,0,1,2.62-2.3c1.18-.1,2.41.11,2.67,1.39C479.37,660.3,480.59,662,480,663.77Z" transform="translate(-321.86 -202.04)"/><path class="cls-22" d="M808.11,401.15c-2.9,4.35-2.9,4.35,1.08,11.77.89-2.88,5.6-1.5,5.29-5.66,0-.59,1.2-.23,1.65.3,1,1.19,1.39,3,.12,3.66-2.23,1.23-4.56,2.17-6.1,4.35-.17.24-.77.26-1.17.24-1.74-.1-6.53-6.55-6.27-8.39C803.61,401,803.61,401,808.11,401.15Z" transform="translate(-321.86 -202.04)"/><path class="cls-22" d="M811.12,407.16c0,1.23-.71,1.66-1.62,1.44-1.69-.4-2.19-2-2.7-3.35-.37-1,.66-1.43,1.51-1.45C810.71,403.74,810.07,406.21,811.12,407.16Z" transform="translate(-321.86 -202.04)"/><path class="cls-9" d="M439.78,704c-5.8,4.94-2.62,8.31,1.58,11.31.75-2.25,5.51-1.14,5.06-5.2,0-.26,1.22.09,1.61.68.84,1.25,1.34,2.91-.13,3.65-2.17,1.09-4.55,1.68-5.86,4a1.59,1.59,0,0,1-1.51.28c-2.18-2-4.77-3.82-6.18-6.29-.8-1.41-.3-4,0-5.95C434.72,703.67,437.5,704.54,439.78,704Z" transform="translate(-321.86 -202.04)"/><path class="cls-8" d="M442.91,710.23c-.08,1.16-.67,1.57-1.39,1.49-2-.23-2.46-2.08-2.91-3.54-.35-1.14.92-1.66,1.91-1.53C442.81,706.94,441.16,709.79,442.91,710.23Z" transform="translate(-321.86 -202.04)"/><path class="cls-12" d="M598.46,562.43c0,8.71-7,16.56-16,18-8,1.32-17.48-4.46-19.91-12.38-.69-2.25-1.83-4.8,2.52-5.3,2.55-.3,2.29-2.66.37-3.88-3.69-2.35-.94-4.26.3-6.07,1.36-2,2.72-4.36,5.9-1.93,2,1.57,4.68,2.27,6.84,3.82s4.44,1.33,6.78.54a12.31,12.31,0,0,0,1.13-.52C594.94,550.81,598.5,553.07,598.46,562.43Z" transform="translate(-321.86 -202.04)"/><path class="cls-12" d="M591,548.67c-2.56.73-5.23.27-7.17,2.64-.74.91-2.54.7-3.4-.32-1.47-1.75-3-3.12-5.44-3-.35,0-.95-.61-1.05-1-.16-.66.55-.84,1-1,.26-.1.58-.28.79-.2C580.65,547.56,586.24,545.72,591,548.67Z" transform="translate(-321.86 -202.04)"/><path class="cls-24" d="M586.88,484.73c2.46,3.27,6.28,4.31,9.85,6C592.62,492.67,589.36,490.75,586.88,484.73Z" transform="translate(-321.86 -202.04)"/><path class="cls-11" d="M468.81,730.37c1.09,1,2.68,1.49,2.71,3.31,0,.68.28,1.35,1.17,1.42s2.06-1.1,2.32.52c.18,1.06-.83,1.66-1.78,2-1.29.4-2.74.34-3.15-1.07-.61-2.09-1.43-3.76-3.59-4.58-.37-.14-.62-.88-.73-1.39-.23-1.05,5.4-7.75,6.44-7.49a8.49,8.49,0,0,0,4.78-.21c1.48-.44,4.73,4,3.85,5.19-1.05,1.42-1.84.18-2.51-.68-1.87-2.41-5.7-2.15-6.77.63C471,729.4,469.54,729.29,468.81,730.37Z" transform="translate(-321.86 -202.04)"/><path class="cls-7" d="M517.2,734.37a23.22,23.22,0,0,1-3.59,3c-.54.31-1.55-.92-1.26-1.65.59-1.44,1.36-3,3-3.5C516.36,732,516.91,733,517.2,734.37Z" transform="translate(-321.86 -202.04)"/><path class="cls-22" d="M837.2,427.25c1,1,2.51,1.63,2.65,3.35,0,.61.09,1.44,1.05,1.51s2.21-1.54,2.44.61c.09.89-.79,1.42-1.56,1.71-1.24.47-2.78.59-3.25-.77-.79-2.28-1.87-4.1-4.08-5.19-.26-.13-.35-.74-.39-1.14-.19-1.77,5.66-7.61,7.4-7.16,1.35.35,2.37-.19,3.56-.41,1.91-.35,4.88,3.41,4,5.05-.52,1-1.36.63-2,0-3.32-3-5.06-2.77-7.49.65A10.19,10.19,0,0,1,837.2,427.25Z" transform="translate(-321.86 -202.04)"/><path class="cls-25" d="M885.61,431.19a22.27,22.27,0,0,1-3.62,3.14c-.65.37-1.51-.82-1.31-1.63a4.75,4.75,0,0,1,2.94-3.56C884.67,428.79,885.11,430,885.61,431.19Z" transform="translate(-321.86 -202.04)"/><path class="cls-12" d="M368.41,579c.4.09.81.16,1.21.28,3.53,1,1-6.27,4.3-3.7,4.16,3.24,3.28-.44,4.24-2.09,1.38-2.37,4.16-2.33,5.34.26,1.08,2.37,1.86,2,3.57.61,2.19-1.83,4.49-2.12,5.82,1.19.57,1.42,1.51,2.19,2.78,1s2.11-1.13,3.17-.07,2.12,1.89,1.2,3.53c-1.1,2-.37,2.76,1.77,2.72,3.1-.07,3.93,1.52,2.7,4.18-.72,1.56-.92,2.67,1.14,3,2.55.38,2.06,2.25,1.8,3.81s-1.15,3.4-3.15,3.18c-2.37-.25-3.1,0-2.92,2.78s-2.43,3.06-4.54,2.86c-1.82-.17-2.85-.24-3.69,2-.94,2.48-3.18,1.41-4.84.33-1.37-.89-2.39-1.29-3.27.58-1.47,3.15-3.95,2.6-6.14,1.15-1.5-1-2.26-1.3-3.84,0-2,1.68-4.18.5-4.41-2.24-.09-1-.09-2.54-1-2.31-6.2,1.6-3.82-6.42-8.06-7.05-.7-.11-.61-1.67,0-2.6.43-.69,1.25-1.69,1-2.13-1.56-3.23-1.77-5.42,2.85-5.59,1.08,0,1-1.55.47-2.44C364.39,579.29,365.43,578.42,368.41,579Z" transform="translate(-321.86 -202.04)"/><path class="cls-26" d="M387.92,584.15c1.28.19,1.8.89,1.61,2a1.43,1.43,0,0,1-1.78,1.19,1.55,1.55,0,0,1-1.55-1.52C386.19,584.65,387,584.25,387.92,584.15Z" transform="translate(-321.86 -202.04)"/><path class="cls-27" d="M376.6,595.31a1.47,1.47,0,0,1-1.53-1.52,1.8,1.8,0,0,1,1.69-1.92c1.18-.2,1.81.52,1.73,1.63S377.6,595.09,376.6,595.31Z" transform="translate(-321.86 -202.04)"/><path class="cls-28" d="M379.59,586a1.82,1.82,0,0,1-2,1.61c-.92,0-1.57-.56-1.49-1.51.1-1.15,1-1.51,2-1.55S379.46,585.23,379.59,586Z" transform="translate(-321.86 -202.04)"/><path class="cls-29" d="M385.9,596c-1-.14-1.6-.65-1.5-1.59a1.66,1.66,0,0,1,2-1.47,1.28,1.28,0,0,1,1.22,1.35C387.64,595.43,386.91,595.88,385.9,596Z" transform="translate(-321.86 -202.04)"/></g></svg>